<svg width="16" height="17" fill="none" xmlns="http://www.w3.org/2000/svg"><g fill-rule="evenodd" clip-rule="evenodd" fill="#292929"><path d="M3.333 3.833a.667.667 0 00-.666.667v9.333c0 .368.298.667.667.667h9.333a.667.667 0 00.667-.667V4.5a.667.667 0 00-.667-.667H3.333zm-2 .667a2 2 0 012-2h9.334a2 2 0 012 2v9.333a2 2 0 01-2 2H3.333a2 2 0 01-2-2V4.5z"/><path d="M10.667 1.167c.368 0 .666.298.666.666V4.5A.667.667 0 1110 4.5V1.833c0-.368.299-.666.667-.666zm-5.334 0c.368 0 .667.298.667.666V4.5a.667.667 0 01-1.333 0V1.833c0-.368.298-.666.666-.666zm-4 6c0-.369.299-.667.667-.667h12a.667.667 0 010 1.333H2a.667.667 0 01-.667-.666z"/></g></svg>