<svg width="300" height="164" viewBox="0 0 300 164" fill="none" xmlns="http://www.w3.org/2000/svg">
<g clip-path="url(#clip0_640_3640)">
<path d="M67.9152 142.617C67.8577 149.179 67.377 155.73 66.4763 162.23C66.4448 162.458 66.4105 162.686 66.3788 162.915L4.92899 162.571C4.74857 162.345 4.57098 162.115 4.39892 161.883C3.82522 161.115 3.28752 160.324 2.79391 159.507C0.421424 155.569 -0.664726 150.959 0.423702 147.778L0.443191 147.728C0.678142 147.032 1.04837 146.388 1.53262 145.835C4.01422 143.042 9.03175 143.507 13.5851 145.762C9.50104 141.292 6.2491 135.651 6.00201 130.616C5.75974 125.704 8.32785 122.196 11.1133 119.214C11.2047 119.116 11.296 119.02 11.3874 118.924C11.4318 118.875 11.4788 118.828 11.523 118.779C13.6962 116.507 16.2299 114.267 19.8971 114.538C23.9191 114.835 28.3783 118.204 31.5049 122.13C34.6315 126.053 36.7092 130.509 38.8152 134.858C40.9239 139.205 43.2053 143.663 46.5891 147.378C42.006 141.581 38.3108 134.985 36.9458 128.57C35.5808 122.155 36.7821 115.994 40.8667 112.973C42.1068 112.084 43.5417 111.505 45.0514 111.285C45.2276 111.255 45.4066 111.232 45.5884 111.211C49.3696 110.78 53.8843 112.088 57.7254 115.214C61.9556 118.656 64.8884 123.758 66.3477 128.602C67.8068 133.446 67.9623 138.109 67.9152 142.617Z" fill="#007DB6"/>
<path d="M27.711 162.698L26.536 162.692C26.1629 162.458 25.788 162.228 25.4114 162C25.1783 161.853 24.9424 161.711 24.7064 161.567C20.8088 159.186 16.8868 156.903 12.9405 154.717C8.99772 152.529 5.03514 150.441 1.05273 148.455C0.947163 148.409 0.861042 148.328 0.809323 148.225C0.757604 148.122 0.743557 148.004 0.769628 147.892C0.773894 147.877 0.780509 147.863 0.789211 147.851C0.844758 147.747 0.968903 147.703 1.15009 147.792C1.63856 148.037 2.12985 148.282 2.61829 148.533C6.61158 150.553 10.5877 152.674 14.5467 154.896C18.503 157.117 22.4368 159.437 26.348 161.854C26.4302 161.904 26.5126 161.957 26.5948 162.007C26.9678 162.237 27.3381 162.468 27.711 162.698Z" fill="white"/>
<path d="M42.8615 162.783L42.1349 162.779C41.971 162.55 41.81 162.321 41.6461 162.091C37.7958 156.692 33.9462 151.293 30.0975 145.893C23.7947 137.054 17.4938 128.214 11.1948 119.374C11.1574 119.327 11.1297 119.273 11.113 119.214C11.0591 119.019 11.2029 118.904 11.3872 118.924C11.4649 118.935 11.5393 118.963 11.6055 119.005C11.6717 119.047 11.7281 119.103 11.7711 119.169C15.3048 124.126 18.8375 129.081 22.3694 134.035C28.6394 142.83 34.9085 151.625 41.1767 160.418C41.5754 160.976 41.9741 161.537 42.3727 162.095C42.5366 162.325 42.7005 162.554 42.8615 162.783Z" fill="white"/>
<path d="M59.0489 158.563C59.0118 159.788 58.9308 160.993 58.8249 162.187C58.8045 162.415 58.7839 162.644 58.7633 162.872L58.001 162.868C58.0243 162.639 58.0476 162.411 58.0681 162.183C58.2292 160.458 58.3435 158.714 58.359 156.922C58.3793 151.955 57.8952 146.998 56.9142 142.129C55.8715 136.886 54.3743 131.744 52.4396 126.76C50.409 121.504 47.9607 116.42 45.1184 111.555C45.0648 111.475 45.041 111.38 45.0511 111.285C45.0825 111.067 45.3718 111.003 45.5881 111.21C45.6308 111.251 45.6676 111.298 45.6974 111.349C46.0491 111.953 46.3943 112.56 46.7332 113.168C49.4707 118.06 51.8139 123.163 53.7404 128.427C55.5754 133.427 56.9712 138.577 57.912 143.819C58.7932 148.682 59.1742 153.623 59.0489 158.563Z" fill="white"/>
<path d="M271.92 127.118C271.92 124.17 260.828 121.781 247.145 121.781C233.462 121.781 222.369 124.17 222.369 127.118C222.369 129.006 226.929 130.665 233.804 131.613V160.85C233.804 161.507 234.065 162.138 234.53 162.602C234.994 163.067 235.624 163.328 236.282 163.328C236.939 163.328 237.569 163.067 238.033 162.602C238.498 162.138 238.759 161.507 238.759 160.85V132.14C241.378 132.343 244.201 132.454 247.145 132.454C250.088 132.454 252.911 132.343 255.53 132.14V160.85C255.53 161.507 255.791 162.138 256.256 162.602C256.721 163.067 257.351 163.328 258.008 163.328C258.665 163.328 259.295 163.067 259.76 162.602C260.224 162.138 260.485 161.507 260.485 160.85V131.613C267.36 130.665 271.92 129.006 271.92 127.118Z" fill="#A0A0A0"/>
<path d="M249.884 78.2728C255.779 78.2728 260.557 73.4946 260.557 67.6003C260.557 61.706 255.779 56.9277 249.884 56.9277C243.99 56.9277 239.212 61.706 239.212 67.6003C239.212 73.4946 243.99 78.2728 249.884 78.2728Z" fill="#2F2E41"/>
<path d="M223.325 158.913H218.652L216.429 140.889H223.325L223.325 158.913Z" fill="#FFB8B8"/>
<path d="M215.314 157.578H224.326V163.252H209.64C209.64 162.507 209.786 161.769 210.072 161.081C210.357 160.393 210.775 159.767 211.302 159.24C211.829 158.713 212.454 158.295 213.142 158.01C213.831 157.725 214.569 157.578 215.314 157.578Z" fill="#2F2E41"/>
<path d="M216.03 156.305L211.571 154.906L214.846 137.043L221.427 139.108L216.03 156.305Z" fill="#FFB8B8"/>
<path d="M208.787 152.633L217.386 155.331L215.687 160.745L201.674 156.348C201.897 155.637 202.258 154.977 202.736 154.405C203.215 153.834 203.801 153.362 204.461 153.017C205.122 152.672 205.844 152.46 206.586 152.395C207.328 152.329 208.076 152.409 208.787 152.633Z" fill="#2F2E41"/>
<path d="M217.55 149.115C217.346 149.115 217.143 149.078 216.951 149.006L213.513 147.717C213.127 147.571 212.807 147.291 212.61 146.928C212.413 146.566 212.353 146.144 212.441 145.741C213.306 141.849 216.256 128.6 217.871 121.493C219.787 113.064 247.733 111.497 248.921 111.435L249.019 111.43L252.163 115.38C253.299 119.031 252.938 121.879 251.092 123.845C245.706 129.58 229.623 126.021 227.705 125.571L219.156 148.01C219.032 148.335 218.812 148.615 218.525 148.812C218.238 149.009 217.898 149.115 217.55 149.115Z" fill="#2F2E41"/>
<path d="M222.505 151.783C222.301 151.783 222.098 151.746 221.906 151.674L218.468 150.385C218.082 150.239 217.762 149.959 217.565 149.596C217.368 149.233 217.308 148.812 217.396 148.409C218.261 144.517 221.211 131.268 222.826 124.161C224.742 115.732 252.688 114.165 253.876 114.103L253.974 114.098L257.118 118.048C258.254 121.699 257.894 124.547 256.047 126.513C250.661 132.248 234.578 128.689 232.66 128.239L224.111 150.678C223.987 151.003 223.767 151.283 223.48 151.48C223.193 151.677 222.853 151.783 222.505 151.783Z" fill="#2F2E41"/>
<path d="M212.559 96.888C212.686 97.057 212.799 97.2356 212.897 97.4222L231.696 99.4029L234.402 95.6926L240.535 99.0447L235.22 108.048L212.164 102.17C211.583 102.737 210.842 103.113 210.041 103.249C209.24 103.385 208.417 103.274 207.681 102.931C206.945 102.588 206.33 102.028 205.92 101.327C205.509 100.626 205.322 99.817 205.382 99.0069C205.443 98.1968 205.749 97.4243 206.259 96.7923C206.769 96.1602 207.46 95.6984 208.239 95.4684C209.018 95.2384 209.849 95.251 210.621 95.5046C211.392 95.7582 212.069 96.2407 212.559 96.888Z" fill="#FFB8B8"/>
<path d="M256.246 119.56C255.974 119.559 255.706 119.494 255.465 119.369C251.706 117.458 244.386 114.147 237.598 113.455C237.366 113.432 237.141 113.361 236.938 113.246C236.734 113.131 236.557 112.975 236.418 112.788C236.276 112.598 236.175 112.382 236.12 112.152C236.065 111.921 236.059 111.682 236.1 111.449C236.713 108.059 238.118 99.425 237.937 92.5053C237.884 90.3777 238.556 88.2952 239.843 86.6003C241.13 84.9054 242.956 83.6988 245.02 83.1791C246.262 82.8513 247.524 82.6026 248.798 82.4343C250.262 82.2488 251.75 82.4089 253.141 82.9016C254.532 83.3943 255.789 84.206 256.81 85.2717C257.831 86.3374 258.588 87.6274 259.021 89.0384C259.454 90.4494 259.55 91.9422 259.303 93.3972C258.092 100.568 256.872 110.584 257.932 117.575C257.981 117.889 257.942 118.209 257.82 118.502C257.697 118.794 257.497 119.047 257.239 119.233C256.951 119.444 256.603 119.559 256.246 119.56Z" fill="#007DB6"/>
<path d="M238.284 101.321C238.05 101.32 237.818 101.272 237.603 101.179L232.706 99.0587C232.289 98.8775 231.961 98.5384 231.793 98.1156C231.626 97.6928 231.633 97.2209 231.813 96.8034L235.599 88.0586C235.827 87.53 236.158 87.0516 236.571 86.6507C236.984 86.2498 237.473 85.9343 238.008 85.7222C238.543 85.5101 239.115 85.4056 239.691 85.4146C240.267 85.4236 240.835 85.546 241.364 85.7747C241.892 86.0034 242.37 86.334 242.771 86.7477C243.172 87.1613 243.487 87.6498 243.699 88.1852C243.91 88.7207 244.015 89.2927 244.005 89.8684C243.996 90.4442 243.873 91.0125 243.644 91.5408L239.859 100.286C239.725 100.593 239.505 100.854 239.226 101.038C238.946 101.222 238.619 101.32 238.284 101.321Z" fill="#007DB6"/>
<path d="M249.495 79.4578C254.665 79.4578 258.856 75.2665 258.856 70.0961C258.856 64.9258 254.665 60.7344 249.495 60.7344C244.324 60.7344 240.133 64.9258 240.133 70.0961C240.133 75.2665 244.324 79.4578 249.495 79.4578Z" fill="#FFB8B8"/>
<path d="M239.964 65.4983C244.398 68.2052 249.397 69.8524 254.572 70.3118L253.032 68.4667C254.154 68.8812 255.333 69.1155 256.528 69.1608C257.721 69.1422 258.971 68.6828 259.648 67.7003C259.95 67.2119 260.13 66.6577 260.171 66.0849C260.213 65.5121 260.115 64.9378 259.887 64.411C259.417 63.3601 258.687 62.4468 257.765 61.758C256.131 60.4652 254.202 59.5968 252.151 59.2302C250.099 58.8636 247.989 59.0102 246.008 59.6569C244.649 60.063 243.433 60.8436 242.497 61.9093C241.609 63.0042 239.901 63.9796 240.355 65.3138L239.964 65.4983Z" fill="#2F2E41"/>
<path d="M251.068 57.9428C248.115 54.9486 244.542 52.638 240.6 51.1737C238.07 50.2362 235.316 49.657 232.67 50.1894C230.025 50.7218 227.523 52.5519 226.785 55.1475C226.181 57.2699 226.804 59.5552 227.741 61.5531C228.678 63.5511 229.928 65.4038 230.685 67.4763C231.458 69.591 231.691 71.8652 231.361 74.0925C231.032 76.3198 230.152 78.4297 228.801 80.2305C227.45 82.0314 225.67 83.4663 223.623 84.4049C221.577 85.3435 219.328 85.7561 217.082 85.6053C219.681 85.9538 222.077 87.1753 224.618 87.8255C227.159 88.4756 230.157 88.4316 232.045 86.6114C234.043 84.6856 234.083 81.5544 233.986 78.7814C233.843 74.6591 233.699 70.5368 233.556 66.4146C233.482 64.3123 233.42 62.1426 234.178 60.1805C234.936 58.2183 236.738 56.5001 238.841 56.5179C240.436 56.5315 241.847 57.4972 243.125 58.4497C244.404 59.4021 245.757 60.4183 247.345 60.5599C248.933 60.7016 250.746 59.5264 250.627 57.9366" fill="#2F2E41"/>
<path d="M233.755 117.155C233.135 117.154 232.522 117.016 231.962 116.75C231.401 116.484 230.907 116.097 230.514 115.617C230.121 115.137 229.84 114.576 229.69 113.974C229.54 113.372 229.525 112.744 229.647 112.136C229.769 111.528 230.024 110.954 230.395 110.457C230.765 109.959 231.241 109.55 231.789 109.258C232.336 108.967 232.942 108.8 233.561 108.771C234.181 108.741 234.799 108.85 235.372 109.088C235.544 109.161 235.711 109.246 235.872 109.342L252.925 101.685L253.405 97.06L260.756 96.8633L260.707 104.563C260.698 105.455 260.401 106.321 259.862 107.031C259.322 107.741 258.568 108.258 257.711 108.506L237.767 114.182C237.729 114.314 237.683 114.444 237.631 114.571C237.311 115.335 236.772 115.988 236.083 116.448C235.393 116.907 234.584 117.153 233.755 117.155Z" fill="#FFB8B8"/>
<path d="M260.133 100.638C259.924 100.743 259.695 100.805 259.461 100.819L254.135 101.147C253.681 101.174 253.235 101.02 252.894 100.719C252.554 100.418 252.346 99.9938 252.318 99.54L251.733 90.029C251.697 89.4539 251.774 88.8773 251.961 88.3321C252.148 87.787 252.44 87.284 252.821 86.8519C253.203 86.4199 253.666 86.0673 254.183 85.8143C254.701 85.5612 255.264 85.4128 255.839 85.3774C256.414 85.342 256.99 85.4204 257.535 85.608C258.08 85.7957 258.582 86.0889 259.014 86.4709C259.445 86.853 259.797 87.3163 260.049 87.8345C260.301 88.3526 260.449 88.9154 260.483 89.4906L261.068 99.0016C261.088 99.3357 261.011 99.6685 260.845 99.9591C260.678 100.25 260.431 100.486 260.133 100.638Z" fill="#007DB6"/>
<path d="M248.557 118.117H218.445C218.091 118.117 217.752 117.977 217.501 117.726C217.251 117.476 217.111 117.137 217.111 116.783C217.111 116.429 217.251 116.09 217.501 115.84C217.752 115.59 218.091 115.449 218.445 115.449H248.557C248.91 115.449 249.25 115.59 249.5 115.84C249.75 116.09 249.891 116.429 249.891 116.783C249.891 117.137 249.75 117.476 249.5 117.726C249.25 117.977 248.91 118.117 248.557 118.117Z" fill="#3F3D56"/>
<path d="M205.295 115.639V96.9619C205.296 96.3051 205.557 95.6753 206.021 95.2108C206.486 94.7464 207.116 94.4851 207.772 94.4844H241.696C242.353 94.4851 242.983 94.7464 243.447 95.2108C243.911 95.6753 244.173 96.3051 244.173 96.9619V115.639C244.173 116.296 243.911 116.925 243.447 117.39C242.983 117.854 242.353 118.116 241.696 118.116H207.772C207.116 118.116 206.486 117.854 206.021 117.39C205.557 116.925 205.296 116.296 205.295 115.639Z" fill="#3F3D56"/>
<path d="M224.734 108.588C225.997 108.588 227.021 107.564 227.021 106.301C227.021 105.038 225.997 104.014 224.734 104.014C223.471 104.014 222.447 105.038 222.447 106.301C222.447 107.564 223.471 108.588 224.734 108.588Z" fill="white"/>
<path d="M105.499 84.3222C105.19 83.8547 104.782 83.4605 104.305 83.1676C103.827 82.8746 103.291 82.6899 102.734 82.6265C102.177 82.5631 101.614 82.6226 101.082 82.8007C100.551 82.9788 100.065 83.2713 99.6592 83.6574L87.5557 77.4102L88.3081 84.4481L99.6865 89.3017C100.38 89.9408 101.285 90.3031 102.228 90.3201C103.171 90.337 104.088 90.0074 104.804 89.3936C105.521 88.7798 105.987 87.9245 106.115 86.9899C106.243 86.0552 106.024 85.106 105.499 84.3222Z" fill="#FFB8B8"/>
<path d="M94.7416 87.1547C94.5226 87.2551 94.2849 87.3084 94.044 87.311C93.803 87.3135 93.5642 87.2654 93.3431 87.1696L81.8465 82.1824C77.9155 80.4778 74.7375 77.4034 72.9036 73.531L66.8596 60.773C66.4135 60.2 66.0848 59.5446 65.8922 58.8444C65.6996 58.1442 65.6469 57.413 65.7372 56.6924C65.8274 55.9718 66.0588 55.2761 66.4181 54.6451C66.7774 54.014 67.2576 53.4599 67.8312 53.0146C68.4048 52.5692 69.0606 52.2413 69.761 52.0496C70.4614 51.8579 71.1928 51.8061 71.9132 51.8972C72.6337 51.9883 73.3291 52.2206 73.9597 52.5806C74.5904 52.9407 75.1438 53.4216 75.5885 53.9957L86.2125 73.707L96.0224 81.1174C96.3032 81.3305 96.5118 81.6246 96.6199 81.9601C96.7281 82.2956 96.7306 82.6562 96.6272 82.9932L95.6643 86.1032C95.5609 86.4367 95.3583 86.7307 95.0835 86.9461C94.9782 87.0289 94.8634 87.0989 94.7416 87.1547Z" fill="#003E5B"/>
<path d="M66.5942 45.7703C71.7645 45.7703 75.9559 41.579 75.9559 36.4086C75.9559 31.2383 71.7645 27.0469 66.5942 27.0469C61.4238 27.0469 57.2324 31.2383 57.2324 36.4086C57.2324 41.579 61.4238 45.7703 66.5942 45.7703Z" fill="#FFB8B8"/>
<path d="M70.3859 159.216H75.0586L77.2819 141.191H70.3848L70.3859 159.216Z" fill="#FFB8B8"/>
<path d="M84.0713 163.555L69.3848 163.555L69.3846 157.881L78.3967 157.881C79.9016 157.881 81.345 158.478 82.4091 159.542C83.4733 160.607 84.0712 162.05 84.0713 163.555Z" fill="#2F2E41"/>
<path d="M55.1388 159.216H59.8115L62.0348 141.191H55.1377L55.1388 159.216Z" fill="#FFB8B8"/>
<path d="M68.8242 163.555L54.1378 163.555L54.1375 157.881L63.1496 157.881C64.6546 157.881 66.0979 158.478 67.1621 159.542C68.2263 160.607 68.8241 162.05 68.8242 163.555Z" fill="#2F2E41"/>
<path d="M53.5078 154.058C53.3468 153.874 53.2269 153.658 53.1563 153.424C53.0856 153.19 53.0657 152.944 53.0981 152.701L61.2795 91.3398L81.6064 94.7919L83.7757 93.4902L78.166 151.71C78.1193 152.104 77.9385 152.468 77.6541 152.744C77.3697 153.019 76.999 153.188 76.6047 153.221L70.4498 153.734C70.2051 153.755 69.9589 153.722 69.7277 153.639C69.4966 153.557 69.286 153.425 69.1101 153.254C68.9343 153.082 68.7972 152.875 68.7084 152.646C68.6195 152.417 68.5808 152.172 68.5949 151.927L70.1884 124.2C70.1912 124.153 70.1764 124.107 70.1469 124.07C70.1175 124.033 70.0754 124.008 70.0288 124.001C69.9822 123.993 69.9345 124.003 69.8948 124.029C69.8552 124.054 69.8264 124.094 69.8141 124.139L61.9305 153.374C61.8319 153.738 61.6164 154.06 61.3171 154.289C61.0179 154.518 60.6515 154.643 60.2745 154.643H54.7983C54.5539 154.643 54.3123 154.591 54.0897 154.49C53.8672 154.389 53.6688 154.242 53.5078 154.058Z" fill="#2F2E41"/>
<path d="M67.5849 95.6335C67.3516 95.4222 67.0517 95.2994 66.7372 95.2863C66.4227 95.2731 66.1136 95.3706 65.8635 95.5616L61.7996 98.7226C61.5785 98.8951 61.3184 99.0107 61.0421 99.0592C60.7659 99.1078 60.4819 99.0877 60.2152 99.0009C59.9485 98.9141 59.7072 98.7632 59.5125 98.5614C59.3177 98.3596 59.1754 98.113 59.0982 97.8434C57.1048 90.8623 52.5885 73.2897 53.7011 60.9217C54.3318 53.9111 60.3856 48.5831 67.1962 49.0301C71.8523 49.3405 74.9155 52.0265 76.3006 57.0133C79.7016 69.257 83.4391 91.7158 84.1538 96.094C84.2102 96.4336 84.1626 96.7824 84.0173 97.0945C83.872 97.4067 83.6357 97.6676 83.3395 97.8431C81.4167 98.9974 79.2198 99.6156 76.9772 99.6335C74.2636 99.6335 71.01 98.6887 67.5849 95.6335Z" fill="#003E5B"/>
<path d="M69.1182 99.9905C69.1637 99.432 69.0862 98.8703 68.8911 98.345C68.6961 97.8197 68.3882 97.3436 67.9893 96.9501C67.5903 96.5567 67.1099 96.2555 66.5819 96.0678C66.054 95.8801 65.4913 95.8104 64.9335 95.8637L59.2649 83.4785L55.5137 89.4808L61.4718 100.322C61.6234 101.253 62.1113 102.096 62.8431 102.692C63.5748 103.287 64.4996 103.593 65.4421 103.552C66.3846 103.512 67.2794 103.126 67.957 102.47C68.6345 101.813 69.0476 100.931 69.1182 99.9905Z" fill="#FFB8B8"/>
<path d="M58.9054 95.5808C58.6711 95.5247 58.4512 95.4199 58.26 95.2732C58.0689 95.1265 57.9107 94.9413 57.7958 94.7295L51.8271 83.7104C49.7859 79.9432 49.1826 75.5628 50.1293 71.3841L53.2466 57.6153C53.2495 56.8893 53.3954 56.1709 53.676 55.5012C53.9566 54.8315 54.3665 54.2238 54.8822 53.7126C55.3978 53.2014 56.0092 52.7969 56.6813 52.5222C57.3534 52.2474 58.073 52.1078 58.7991 52.1114C59.5252 52.1149 60.2434 52.2616 60.9128 52.5429C61.5822 52.8242 62.1895 53.2346 62.7002 53.7508C63.2108 54.267 63.6148 54.8787 63.8888 55.5511C64.1629 56.2234 64.3018 56.9432 64.2975 57.6693L60.493 79.7358L63.639 91.6207C63.7284 91.9616 63.711 92.3218 63.5891 92.6525C63.4671 92.9833 63.2466 93.2686 62.9572 93.4699L60.2804 95.3228C59.9932 95.5214 59.6523 95.6278 59.3032 95.6277C59.1692 95.6278 59.0357 95.6121 58.9054 95.5808Z" fill="#003E5B"/>
<path opacity="0.2" d="M63.5389 66.9766L60.1084 81.4607L65.0635 93.6579L61.633 81.8419L63.5389 66.9766Z" fill="black"/>
<path d="M61.2514 44.1059C60.4187 44.1213 59.5911 43.9716 58.8166 43.6654C58.4758 43.534 58.122 43.4261 57.7818 43.2947C54.7776 42.134 52.7986 38.9345 52.7278 35.7147C52.6569 32.4948 54.3243 29.3697 56.8003 27.3101C59.2764 25.2506 62.4834 24.1932 65.6947 23.9487C69.1539 23.6853 73.049 24.5625 74.9819 27.4433C75.4964 28.2101 75.8562 29.1404 75.5513 30.0663C75.46 30.3456 75.2969 30.5962 75.0784 30.7927C74.2152 31.5607 73.3546 30.9833 72.4746 30.9322C71.2651 30.8621 70.1787 31.8411 69.7883 32.9881C69.3978 34.135 69.5697 35.3976 69.885 36.5674C70.1251 37.2713 70.2766 38.0025 70.3357 38.7439C70.3611 39.1157 70.2912 39.4878 70.1326 39.8249C69.9739 40.1621 69.7317 40.4532 69.4291 40.6706C68.6733 41.1274 67.6807 40.863 66.9245 40.4069C66.1682 39.9508 65.5148 39.3166 64.6979 38.9809C63.881 38.6453 62.7835 38.7197 62.3081 39.464C62.157 39.7348 62.0547 40.0301 62.0059 40.3363C61.5797 42.2783 61.6777 42.1639 61.2514 44.1059Z" fill="#2F2E41"/>
<path d="M142.42 75.8754C142.265 75.6789 142.157 75.4495 142.103 75.2048C142.05 74.9601 142.053 74.7064 142.113 74.4631C143.534 68.5085 143.534 62.3029 142.112 56.3483C142.053 56.105 142.05 55.8513 142.103 55.6066C142.157 55.3619 142.265 55.1325 142.42 54.936C142.572 54.7423 142.767 54.5858 142.988 54.4784C143.21 54.371 143.453 54.3156 143.699 54.3164H158.897C159.285 54.3171 159.661 54.4557 159.957 54.7074C160.252 54.9591 160.449 55.3075 160.512 55.6908C161.503 62.1295 161.503 68.682 160.512 75.1206C160.449 75.5039 160.252 75.8524 159.957 76.104C159.661 76.3557 159.285 76.4943 158.897 76.495H143.699C143.453 76.4958 143.21 76.4404 142.988 76.333C142.767 76.2256 142.572 76.0691 142.42 75.8754Z" fill="#A0A0A0"/>
<path d="M118.91 22.2775C118.755 22.081 118.647 21.8517 118.593 21.607C118.54 21.3623 118.543 21.1087 118.603 20.8654C120.024 14.9109 120.024 8.70525 118.603 2.75066C118.543 2.5074 118.54 2.25377 118.593 2.00907C118.647 1.76438 118.755 1.53507 118.91 1.33862C119.062 1.14481 119.257 0.988241 119.478 0.880823C119.7 0.773405 119.943 0.717977 120.189 0.718758H135.387C135.776 0.719541 136.151 0.858098 136.447 1.10977C136.743 1.36145 136.939 1.7099 137.002 2.09311C137.994 8.5318 137.994 15.0843 137.002 21.523C136.939 21.9062 136.743 22.2547 136.447 22.5063C136.151 22.758 135.776 22.8966 135.387 22.8974H120.189C119.943 22.8981 119.7 22.8427 119.478 22.7353C119.257 22.6279 119.062 22.4713 118.91 22.2775Z" fill="#A0A0A0"/>
<path d="M156.306 40.2066C155.315 33.7679 155.315 27.2154 156.306 20.7767C156.369 20.3935 156.566 20.045 156.861 19.7933C157.157 19.5416 157.533 19.4031 157.921 19.4024H173.119C173.365 19.4016 173.608 19.457 173.83 19.5644C174.052 19.6718 174.246 19.8284 174.398 20.0222C174.553 20.2187 174.661 20.448 174.715 20.6927C174.768 20.9374 174.765 21.191 174.705 21.4343C173.284 27.3888 173.284 33.5944 174.705 39.549C174.765 39.7923 174.768 40.0459 174.715 40.2906C174.661 40.5353 174.553 40.7646 174.398 40.9611C174.246 41.1549 174.052 41.3115 173.83 41.4189C173.608 41.5263 173.365 41.5817 173.119 41.5809H157.921C157.533 41.5802 157.157 41.4417 156.861 41.19C156.566 40.9383 156.369 40.5898 156.306 40.2066Z" fill="#007DB6"/>
<path d="M92.6819 39.5288C91.6907 33.0902 91.6907 26.5377 92.6819 20.099C92.7448 19.7158 92.9417 19.3673 93.2374 19.1156C93.5331 18.864 93.9086 18.7254 94.2969 18.7246H109.495C109.741 18.7238 109.984 18.7793 110.206 18.8867C110.428 18.9941 110.622 19.1507 110.774 19.3445C110.929 19.5409 111.037 19.7702 111.091 20.0149C111.144 20.2596 111.141 20.5133 111.081 20.7565C109.66 26.7111 109.66 32.9167 111.081 38.8713C111.141 39.1146 111.144 39.3682 111.091 39.6129C111.037 39.8576 110.929 40.0869 110.774 40.2833C110.622 40.4772 110.428 40.6337 110.206 40.7411C109.984 40.8486 109.741 40.904 109.495 40.9032H94.2969C93.9086 40.9024 93.5331 40.7639 93.2374 40.5122C92.9417 40.2605 92.7448 39.9121 92.6819 39.5288Z" fill="#E6295C"/>
<path d="M96.4408 84.3799C96.2829 84.1802 96.1727 83.9471 96.1185 83.6983C96.0643 83.4496 96.0676 83.1918 96.128 82.9445C97.5731 76.8921 97.5731 70.5845 96.1279 64.5321C96.0675 64.2848 96.0643 64.0269 96.1185 63.7782C96.1727 63.5294 96.283 63.2963 96.4408 63.0966C96.5954 62.8997 96.7927 62.7406 97.018 62.6315C97.2433 62.5223 97.4904 62.466 97.7407 62.4668H113.188C113.583 62.4675 113.965 62.6084 114.265 62.8642C114.566 63.12 114.766 63.4742 114.83 63.8637C115.837 70.4082 115.837 77.0683 114.83 83.6128C114.766 84.0023 114.566 84.3566 114.265 84.6124C113.965 84.8682 113.583 85.009 113.188 85.0098H97.7407C97.4904 85.0105 97.2433 84.9542 97.018 84.8451C96.7927 84.7359 96.5953 84.5768 96.4408 84.3799Z" fill="#007DB6"/>
<path d="M4.79598 163.906H299.546C299.667 163.906 299.782 163.858 299.867 163.773C299.952 163.688 300 163.572 300 163.452C300 163.332 299.952 163.216 299.867 163.131C299.782 163.046 299.667 162.998 299.546 162.998H4.79598C4.73627 162.998 4.67711 163.009 4.6219 163.032C4.56668 163.055 4.5165 163.088 4.47422 163.131C4.43193 163.173 4.39839 163.223 4.3755 163.278C4.35261 163.333 4.34082 163.392 4.34082 163.452C4.34082 163.512 4.35261 163.571 4.3755 163.626C4.39839 163.681 4.43193 163.731 4.47422 163.773C4.5165 163.815 4.56668 163.849 4.6219 163.872C4.67711 163.894 4.73627 163.906 4.79598 163.906Z" fill="#3F3D56"/>
<path d="M110.207 70.7843H102.069C101.766 70.7839 101.475 70.6634 101.261 70.449C101.047 70.2346 100.926 69.9439 100.926 69.6408V69.1552C100.926 68.852 101.047 68.5614 101.261 68.347C101.475 68.1326 101.766 68.012 102.069 68.0117H110.207C110.51 68.012 110.801 68.1326 111.015 68.347C111.229 68.5614 111.35 68.852 111.35 69.1552V69.6408C111.35 69.9439 111.229 70.2346 111.015 70.449C110.801 70.6634 110.51 70.7839 110.207 70.7843Z" fill="white"/>
<path d="M110.207 75.5675H102.069C101.766 75.5671 101.475 75.4466 101.261 75.2322C101.047 75.0178 100.926 74.7272 100.926 74.424V73.9384C100.926 73.6352 101.047 73.3446 101.261 73.1302C101.475 72.9158 101.766 72.7953 102.069 72.7949H110.207C110.51 72.7953 110.801 72.9158 111.015 73.1302C111.229 73.3446 111.35 73.6352 111.35 73.9384V74.424C111.35 74.7271 111.229 75.0178 111.015 75.2322C110.801 75.4466 110.51 75.5671 110.207 75.5675Z" fill="white"/>
<path d="M104.818 28.1301H96.8427C96.5395 28.1298 96.2489 28.0092 96.0345 27.7948C95.8201 27.5805 95.6995 27.2898 95.6992 26.9866V26.54C95.6995 26.2368 95.8201 25.9461 96.0345 25.7318C96.2489 25.5174 96.5395 25.3968 96.8427 25.3965H104.818C105.121 25.3968 105.412 25.5174 105.626 25.7318C105.841 25.9461 105.961 26.2368 105.961 26.54V26.9866C105.961 27.2898 105.841 27.5805 105.626 27.7948C105.412 28.0092 105.121 28.1298 104.818 28.1301Z" fill="white"/>
<path d="M155.771 61.7221H147.796C147.493 61.7218 147.202 61.6012 146.988 61.3868C146.773 61.1725 146.653 60.8818 146.652 60.5786V60.1318C146.653 59.8286 146.773 59.5379 146.988 59.3236C147.202 59.1092 147.493 58.9886 147.796 58.9883H155.771C156.074 58.9886 156.365 59.1092 156.579 59.3236C156.794 59.5379 156.914 59.8286 156.915 60.1318V60.5786C156.914 60.8818 156.794 61.1725 156.579 61.3868C156.365 61.6012 156.074 61.7218 155.771 61.7221Z" fill="white"/>
<path d="M155.771 67.3666H147.796C147.493 67.3663 147.202 67.2457 146.988 67.0314C146.773 66.817 146.653 66.5263 146.652 66.2232V65.7763C146.653 65.4731 146.773 65.1825 146.988 64.9681C147.202 64.7537 147.493 64.6331 147.796 64.6328H155.771C156.074 64.6331 156.365 64.7537 156.579 64.9681C156.794 65.1825 156.914 65.4731 156.915 65.7763V66.2232C156.914 66.5263 156.794 66.817 156.579 67.0314C156.365 67.2457 156.074 67.3663 155.771 67.3666Z" fill="white"/>
<path d="M155.771 73.0151H147.796C147.493 73.0148 147.202 72.8942 146.988 72.6798C146.773 72.4654 146.653 72.1748 146.652 71.8716V71.4247C146.653 71.1216 146.773 70.8309 146.988 70.6165C147.202 70.4022 147.493 70.2816 147.796 70.2812H155.771C156.074 70.2816 156.365 70.4022 156.579 70.6165C156.794 70.8309 156.914 71.1216 156.915 71.4247V71.8716C156.914 72.1748 156.794 72.4654 156.579 72.6798C156.365 72.8942 156.074 73.0148 155.771 73.0151Z" fill="white"/>
<path d="M104.818 32.8354H96.8427C96.5395 32.8351 96.2489 32.7145 96.0345 32.5001C95.8201 32.2857 95.6995 31.9951 95.6992 31.6919V31.245C95.6995 30.9419 95.8201 30.6512 96.0345 30.4368C96.2489 30.2225 96.5395 30.1019 96.8427 30.1016H104.818C105.121 30.1019 105.412 30.2225 105.626 30.4368C105.841 30.6512 105.961 30.9419 105.961 31.245V31.6919C105.961 31.9951 105.841 32.2857 105.626 32.5001C105.412 32.7145 105.121 32.8351 104.818 32.8354Z" fill="white"/>
<path d="M132.329 9.06391H124.353C124.05 9.06358 123.76 8.943 123.545 8.72863C123.331 8.51425 123.21 8.22359 123.21 7.92043V7.47356C123.21 7.17039 123.331 6.87974 123.545 6.66536C123.76 6.45099 124.05 6.33041 124.353 6.33008H132.329C132.632 6.33041 132.922 6.45099 133.137 6.66536C133.351 6.87974 133.472 7.17039 133.472 7.47356V7.92043C133.472 8.22359 133.351 8.51425 133.137 8.72863C132.922 8.943 132.632 9.06358 132.329 9.06391Z" fill="white"/>
<path d="M168.72 29.2788H160.745C160.442 29.2784 160.151 29.1578 159.937 28.9435C159.722 28.7291 159.602 28.4384 159.602 28.1353V27.6884C159.602 27.3852 159.722 27.0946 159.937 26.8802C160.151 26.6658 160.442 26.5453 160.745 26.5449H168.72C169.023 26.5453 169.314 26.6658 169.529 26.8802C169.743 27.0946 169.863 27.3852 169.864 27.6884V28.1353C169.863 28.4384 169.743 28.7291 169.529 28.9435C169.314 29.1578 169.023 29.2784 168.72 29.2788Z" fill="white"/>
</g>
<defs>
<clipPath id="clip0_640_3640">
<rect width="300" height="163.186" fill="white" transform="translate(0 0.71875)"/>
</clipPath>
</defs>
</svg>
