<svg width="90" height="76" viewBox="0 0 90 76" fill="none" xmlns="http://www.w3.org/2000/svg">
<path d="M80.0137 38.5401L14.9589 1.46834C12.7141 0.168759 10.6551 0.0252968 9.0348 0.826984L8.98417 0.767913L3.80273 3.81433L3.81961 3.88184C5.4905 2.88606 7.67615 2.95357 10.0728 4.33753L75.1276 41.4093C80.3681 44.4304 84.6129 52.5485 84.6129 59.5358V66.4219C84.6129 69.8143 83.6002 72.3122 81.9715 73.6371L84.866 71.7299C87.2964 70.3375 89.5074 68.1687 89.5074 63.5527V56.6666C89.5074 49.6793 85.2542 41.5612 80.0137 38.5401Z" fill="url(#paint0_linear_108_39646)"/>
<path d="M75.128 41.4L10.0731 4.32823C4.83262 1.30713 0.587891 4.51388 0.587891 11.5012V18.3873C0.587891 25.3746 4.83262 33.4928 10.0731 36.5139L75.128 73.5856C80.3685 76.6067 84.6132 73.4 84.6132 66.4126V59.5265C84.6132 52.5476 80.3685 44.4295 75.128 41.4Z" fill="url(#paint1_linear_108_39646)"/>
<path d="M78.891 73.1891C77.9711 73.1891 76.9669 72.8768 75.8952 72.2608L10.8403 35.1807C6.11461 32.4549 2.12305 24.7587 2.12305 18.3874V11.5013C2.12305 7.39163 3.76862 4.7334 6.3087 4.7334C7.22853 4.7334 8.23275 5.04563 9.30448 5.66167L74.3593 42.7334C79.0851 45.4591 83.0766 53.1553 83.0766 59.5266V66.4127C83.0766 68.6068 82.6209 70.4127 81.7602 71.6279C81.0344 72.6659 80.064 73.1891 78.891 73.1891Z" fill="url(#paint2_linear_108_39646)"/>
<path d="M79.7349 72.7679C78.815 72.7679 77.8108 72.4557 76.7391 71.8397L11.6842 34.7595C6.95849 32.0338 2.96693 24.3376 2.96693 17.9663V11.0802C2.96693 8.10128 3.82769 5.89875 5.27073 4.89453C3.3298 5.52744 2.12305 7.9747 2.12305 11.5021V18.3882C2.12305 24.7595 6.11461 32.4557 10.8403 35.1814L75.8952 72.2532C76.9669 72.8692 77.9712 73.1814 78.891 73.1814C79.6167 73.1814 80.2581 72.9789 80.815 72.5823C80.4775 72.7089 80.1231 72.7679 79.7349 72.7679Z" fill="#AFB6E5"/>
<path d="M6.93945 21.6875V15.139C6.93945 11.6284 9.07447 10.0166 11.6989 11.5356L49.0154 32.8774C51.6314 34.3879 53.7749 38.4807 53.7749 41.9744V48.5229C53.7749 52.0166 51.6314 53.6368 49.0154 52.1263L11.6989 30.7845C9.07447 29.2655 6.93945 25.198 6.93945 21.6875Z" fill="white"/>
<path d="M77.243 66.8184L72.5848 58.7763C72.0953 57.9324 71.3527 57.4176 70.7873 57.4682L69.4202 55.1138C71.4708 53.1897 71.2683 48.6412 68.7957 44.3881C66.1038 39.7383 61.7325 37.2235 59.0405 38.7594C56.3485 40.2952 56.3485 45.3079 59.0405 49.9577C61.5046 54.2108 65.3696 56.675 68.07 55.8817L69.4371 58.2362C69.108 58.7003 69.1839 59.5948 69.6734 60.4387L74.3316 68.4809C74.9139 69.4851 75.859 70.0336 76.4413 69.7045L77.243 69.2488C77.8253 68.9113 77.8253 67.8311 77.243 66.8184ZM67.1249 52.7172C65.3527 53.7298 62.4751 52.0674 60.6945 49.0041C58.9223 45.9408 58.9223 42.6412 60.6945 41.6286C62.4666 40.6159 65.3443 42.2784 67.1249 45.3416C68.897 48.4049 68.897 51.7045 67.1249 52.7172Z" fill="white"/>
<defs>
<linearGradient id="paint0_linear_108_39646" x1="23.399" y1="-3.79622" x2="97.7243" y2="93.0426" gradientUnits="userSpaceOnUse">
<stop stop-color="#CDD2F3"/>
<stop offset="0.4343" stop-color="#E5E9FF"/>
<stop offset="0.5472" stop-color="#EFF2FF"/>
<stop offset="0.6667" stop-color="white"/>
<stop offset="0.695" stop-color="#EBEDF9"/>
<stop offset="0.7525" stop-color="#B9BFE8"/>
<stop offset="0.7626" stop-color="#AFB6E5"/>
<stop offset="0.9091" stop-color="#AFB6E5"/>
<stop offset="1" stop-color="#AFB6E5"/>
</linearGradient>
<linearGradient id="paint1_linear_108_39646" x1="0.936837" y1="82.1346" x2="61.6908" y2="19.1749" gradientUnits="userSpaceOnUse">
<stop stop-color="#AFB6E5"/>
<stop offset="0.1449" stop-color="#B6BCE8"/>
<stop offset="0.3485" stop-color="#C8CDF1"/>
<stop offset="0.5808" stop-color="#E5E9FF"/>
<stop offset="0.8551" stop-color="#F5F6FF"/>
<stop offset="1" stop-color="white"/>
</linearGradient>
<linearGradient id="paint2_linear_108_39646" x1="-2.51898" y1="6.77601" x2="78.8375" y2="64.8102" gradientUnits="userSpaceOnUse">
<stop stop-color="#0082C5"/>
<stop offset="0.3855" stop-color="#2D7CB7"/>
<stop offset="0.7374" stop-color="#5277AB"/>
<stop offset="0.7686" stop-color="#5B76A9"/>
<stop offset="0.8194" stop-color="#7375A2"/>
<stop offset="0.8833" stop-color="#9A7397"/>
<stop offset="0.9571" stop-color="#D06F88"/>
<stop offset="1" stop-color="#F36D7E"/>
</linearGradient>
</defs>
</svg>
