<svg width="69" height="83" viewBox="0 0 69 83" fill="none" xmlns="http://www.w3.org/2000/svg">
<path d="M49.8326 2.12641C45.571 -0.244894 39.7229 0.151732 33.2588 3.88169L12.0352 16.1349L22.668 22.3036L43.9001 10.0505C50.1617 6.43865 55.8495 5.9492 60.0689 8.08422L49.8326 2.12641Z" fill="url(#paint0_linear_108_39684)"/>
<path d="M0.945312 22.5398V39.2402L11.5951 33.0883V28.7002L22.6668 22.3035L12.0339 16.1348L0.945312 22.5398Z" fill="url(#paint1_radial_108_39684)"/>
<path d="M0.945312 22.5398L11.5951 28.7002L22.6668 22.3035L12.0339 16.1348L0.945312 22.5398Z" fill="url(#paint2_linear_108_39684)"/>
<path d="M22.6635 22.3027L11.5918 28.6994L22.6635 22.3027Z" fill="url(#paint3_linear_108_39684)"/>
<path d="M43.8961 10.0493L22.6641 22.3025L22.7569 22.3616V38.9523L43.8877 26.7497C48.8666 23.8805 52.9088 26.1843 52.9088 31.8974C52.9088 31.9734 52.9088 32.0409 52.9004 32.1168L67.4489 23.7793C67.4489 23.6865 67.4573 23.5936 67.4573 23.5008C67.4658 8.54721 56.9172 2.53033 43.8961 10.0493Z" fill="url(#paint4_linear_108_39684)"/>
<path d="M22.6635 22.3027L11.5918 28.6994V33.0875V45.3998L22.7563 38.9441V22.3618L22.6635 22.3027Z" fill="url(#paint5_linear_108_39684)"/>
<path d="M22.6635 22.3027L11.5918 28.6994V33.0875V45.3998L22.7563 38.9441V22.3618L22.6635 22.3027Z" fill="url(#paint6_linear_108_39684)"/>
<path d="M43.8956 47.4505L11.5918 66.1002V82.8007L43.8956 64.1509C56.8323 56.6825 67.3386 38.6572 67.4652 23.7627L52.9167 32.1003C52.8154 37.7711 48.807 44.615 43.8956 47.4505Z" fill="url(#paint7_linear_108_39684)"/>
<path d="M52.9084 32.1081C52.8072 37.7789 48.7987 44.6144 43.8873 47.4498L22.748 59.6608L22.7565 59.6692V76.3612L43.8873 64.1587C56.824 56.6903 67.3304 38.665 67.4569 23.7705L52.9084 32.1081Z" fill="url(#paint8_linear_108_39684)"/>
<path d="M22.7479 59.6611L11.5918 66.1V82.8004L22.7563 76.3531V59.6611H22.7479Z" fill="url(#paint9_linear_108_39684)"/>
<path d="M22.7479 59.6611L11.5918 66.1V82.8004L22.7563 76.3531V59.6611H22.7479Z" fill="url(#paint10_linear_108_39684)"/>
<path d="M0.945312 76.6422L5.94108 73.7646L0.945312 70.8447V76.6422Z" fill="url(#paint11_radial_108_39684)"/>
<path d="M52.9128 32.1184C52.9128 32.0425 52.9212 31.9665 52.9212 31.8906C52.9212 26.1775 48.8706 23.8737 43.9001 26.7429L43.5879 26.9201L52.8959 32.0931L52.9128 32.1184Z" fill="url(#paint12_linear_108_39684)"/>
<path d="M11.5964 66.1023L43.9002 47.4525C48.8116 44.6171 52.8116 37.7817 52.9213 32.1108L52.9044 32.0939L43.5964 26.9209L42.1196 27.7732C41.3179 33.0137 37.6555 38.7521 33.2588 41.2922L0.955078 59.942V70.8449L5.95084 73.7563L11.6049 70.4905V66.1023H11.5964Z" fill="url(#paint13_radial_108_39684)"/>
<path d="M52.9033 32.1017L43.5953 26.9287L42.1185 27.781C41.3168 33.0215 37.6544 38.7599 33.2577 41.3L12.127 53.5026L22.7598 59.6713L43.8991 47.4604C48.8105 44.6249 52.8105 37.7895 52.9202 32.1186L52.9033 32.1017Z" fill="url(#paint14_linear_108_39684)"/>
<path d="M0.945312 59.9414V70.8443L5.94108 73.7642L11.5951 70.4984V66.1017L22.7512 59.6629L12.1183 53.4941L0.945312 59.9414Z" fill="url(#paint15_linear_108_39684)"/>
<path d="M0.945312 59.9414L11.5951 66.1017L22.7512 59.6629L12.1183 53.4941L0.945312 59.9414Z" fill="url(#paint16_linear_108_39684)"/>
<path d="M11.5944 82.7767L0.927734 76.532V59.8906L11.5944 66.0763V82.7767Z" fill="url(#paint17_linear_108_39684)"/>
<path d="M11.5944 45.4007L0.927734 39.156V22.5146L11.5944 28.7003V45.4007Z" fill="url(#paint18_linear_108_39684)"/>
<defs>
<linearGradient id="paint0_linear_108_39684" x1="65.0696" y1="-43.191" x2="31.9389" y2="19.9488" gradientUnits="userSpaceOnUse">
<stop stop-color="#BB2659"/>
<stop offset="0.3283" stop-color="#C02C59"/>
<stop offset="0.6877" stop-color="#DA4D75"/>
<stop offset="1" stop-color="#F36D91"/>
</linearGradient>
<radialGradient id="paint1_radial_108_39684" cx="0" cy="0" r="1" gradientUnits="userSpaceOnUse" gradientTransform="translate(30.5088 19.9428) scale(24.9607)">
<stop stop-color="#A61273"/>
<stop offset="0.0837" stop-color="#8A0F60"/>
<stop offset="0.2297" stop-color="#600A43"/>
<stop offset="0.3788" stop-color="#3E072B"/>
<stop offset="0.5292" stop-color="#230418"/>
<stop offset="0.6815" stop-color="#0F020B"/>
<stop offset="0.8369" stop-color="#040003"/>
<stop offset="1"/>
</radialGradient>
<linearGradient id="paint2_linear_108_39684" x1="22.5937" y1="1.86557" x2="10.2819" y2="25.3294" gradientUnits="userSpaceOnUse">
<stop stop-color="#BBC4DA"/>
<stop offset="0.2622" stop-color="#D4DAF0"/>
<stop offset="0.4141" stop-color="#E5E9FF"/>
<stop offset="0.7975" stop-color="#F5F6FF"/>
<stop offset="1" stop-color="white"/>
</linearGradient>
<linearGradient id="paint3_linear_108_39684" x1="-32.6793" y1="25.501" x2="22.7597" y2="25.501" gradientUnits="userSpaceOnUse">
<stop stop-color="#BBC4DA"/>
<stop offset="0.2622" stop-color="#D4DAF0"/>
<stop offset="0.4141" stop-color="#E5E9FF"/>
<stop offset="0.7975" stop-color="#F5F6FF"/>
<stop offset="1" stop-color="white"/>
</linearGradient>
<linearGradient id="paint4_linear_108_39684" x1="32.4114" y1="34.6881" x2="121.291" y2="7.38331" gradientUnits="userSpaceOnUse">
<stop stop-color="#BB2659"/>
<stop offset="0.3283" stop-color="#C02C59"/>
<stop offset="0.6877" stop-color="#DA4D75"/>
<stop offset="1" stop-color="#F36D91"/>
</linearGradient>
<linearGradient id="paint5_linear_108_39684" x1="-32.6793" y1="33.8505" x2="22.7597" y2="33.8505" gradientUnits="userSpaceOnUse">
<stop stop-color="#BBC4DA"/>
<stop offset="0.2622" stop-color="#D4DAF0"/>
<stop offset="0.4141" stop-color="#E5E9FF"/>
<stop offset="0.7975" stop-color="#F5F6FF"/>
<stop offset="1" stop-color="white"/>
</linearGradient>
<linearGradient id="paint6_linear_108_39684" x1="13.1238" y1="37.5527" x2="77.743" y2="17.7013" gradientUnits="userSpaceOnUse">
<stop stop-color="#B5BEDA"/>
<stop offset="0.2326" stop-color="#CED5ED"/>
<stop offset="0.4141" stop-color="#E5E9FF"/>
<stop offset="0.7975" stop-color="#F5F6FF"/>
<stop offset="1" stop-color="white"/>
</linearGradient>
<linearGradient id="paint7_linear_108_39684" x1="11.5876" y1="69.3851" x2="67.4632" y2="69.3851" gradientUnits="userSpaceOnUse">
<stop offset="0.0354" stop-color="#CA2463"/>
<stop offset="0.4011" stop-color="#C73361"/>
<stop offset="1" stop-color="#BF555E"/>
</linearGradient>
<linearGradient id="paint8_linear_108_39684" x1="29.3693" y1="54.773" x2="135.833" y2="22.8943" gradientUnits="userSpaceOnUse">
<stop offset="0.0354" stop-color="#5277AB"/>
<stop offset="0.3726" stop-color="#5886BA"/>
<stop offset="1" stop-color="#66ADDE"/>
</linearGradient>
<linearGradient id="paint9_linear_108_39684" x1="-32.6793" y1="71.2308" x2="22.7597" y2="71.2308" gradientUnits="userSpaceOnUse">
<stop stop-color="#BBC4DA"/>
<stop offset="0.2622" stop-color="#D4DAF0"/>
<stop offset="0.4141" stop-color="#E5E9FF"/>
<stop offset="0.7975" stop-color="#F5F6FF"/>
<stop offset="1" stop-color="white"/>
</linearGradient>
<linearGradient id="paint10_linear_108_39684" x1="12.4588" y1="72.6412" x2="99.9346" y2="46.4481" gradientUnits="userSpaceOnUse">
<stop stop-color="#B5BEDA"/>
<stop offset="0.2326" stop-color="#CED5ED"/>
<stop offset="0.4141" stop-color="#E5E9FF"/>
<stop offset="0.7975" stop-color="#F5F6FF"/>
<stop offset="1" stop-color="white"/>
</linearGradient>
<radialGradient id="paint11_radial_108_39684" cx="0" cy="0" r="1" gradientUnits="userSpaceOnUse" gradientTransform="translate(26.9343 51.0777) scale(25.7767 25.7768)">
<stop stop-color="#A61273"/>
<stop offset="0.0837" stop-color="#8A0F60"/>
<stop offset="0.2297" stop-color="#600A43"/>
<stop offset="0.3788" stop-color="#3E072B"/>
<stop offset="0.5292" stop-color="#230418"/>
<stop offset="0.6815" stop-color="#0F020B"/>
<stop offset="0.8369" stop-color="#040003"/>
<stop offset="1"/>
</radialGradient>
<linearGradient id="paint12_linear_108_39684" x1="35.4058" y1="32.1054" x2="61.851" y2="26.1773" gradientUnits="userSpaceOnUse">
<stop stop-color="#BB2659"/>
<stop offset="0.3283" stop-color="#C02C59"/>
<stop offset="0.6877" stop-color="#DA4D75"/>
<stop offset="1" stop-color="#F36D91"/>
</linearGradient>
<radialGradient id="paint13_radial_108_39684" cx="0" cy="0" r="1" gradientUnits="userSpaceOnUse" gradientTransform="translate(26.9333 51.0779) scale(25.7783 25.7783)">
<stop stop-color="#A61273"/>
<stop offset="0.0837" stop-color="#8A0F60"/>
<stop offset="0.2297" stop-color="#600A43"/>
<stop offset="0.3788" stop-color="#3E072B"/>
<stop offset="0.5292" stop-color="#230418"/>
<stop offset="0.6815" stop-color="#0F020B"/>
<stop offset="0.8369" stop-color="#040003"/>
<stop offset="1"/>
</radialGradient>
<linearGradient id="paint14_linear_108_39684" x1="70.01" y1="-26.8331" x2="27.9894" y2="53.2495" gradientUnits="userSpaceOnUse">
<stop offset="0.0354" stop-color="#5277AB"/>
<stop offset="0.3726" stop-color="#5886BA"/>
<stop offset="1" stop-color="#66ADDE"/>
</linearGradient>
<linearGradient id="paint15_linear_108_39684" x1="-32.676" y1="63.6274" x2="22.763" y2="63.6274" gradientUnits="userSpaceOnUse">
<stop stop-color="#BBC4DA"/>
<stop offset="0.2622" stop-color="#D4DAF0"/>
<stop offset="0.4141" stop-color="#E5E9FF"/>
<stop offset="0.7975" stop-color="#F5F6FF"/>
<stop offset="1" stop-color="white"/>
</linearGradient>
<linearGradient id="paint16_linear_108_39684" x1="22.7184" y1="39.0922" x2="10.314" y2="62.7324" gradientUnits="userSpaceOnUse">
<stop stop-color="#BBC4DA"/>
<stop offset="0.2622" stop-color="#D4DAF0"/>
<stop offset="0.4141" stop-color="#E5E9FF"/>
<stop offset="0.7975" stop-color="#F5F6FF"/>
<stop offset="1" stop-color="white"/>
</linearGradient>
<linearGradient id="paint17_linear_108_39684" x1="-13.566" y1="75.7794" x2="26.9809" y2="66.6901" gradientUnits="userSpaceOnUse">
<stop stop-color="#BBC4DA"/>
<stop offset="0.2622" stop-color="#D4DAF0"/>
<stop offset="0.4141" stop-color="#E5E9FF"/>
<stop offset="0.7975" stop-color="#F5F6FF"/>
<stop offset="1" stop-color="white"/>
</linearGradient>
<linearGradient id="paint18_linear_108_39684" x1="-13.566" y1="38.4025" x2="26.9809" y2="29.3132" gradientUnits="userSpaceOnUse">
<stop stop-color="#BBC4DA"/>
<stop offset="0.2622" stop-color="#D4DAF0"/>
<stop offset="0.4141" stop-color="#E5E9FF"/>
<stop offset="0.7975" stop-color="#F5F6FF"/>
<stop offset="1" stop-color="white"/>
</linearGradient>
</defs>
</svg>
