<svg width="15" height="15" viewBox="0 0 15 15" xmlns="http://www.w3.org/2000/svg"><g fill-rule="evenodd" clip-rule="evenodd"><path d="M3.125 3.125a.625.625 0 00-.625.625v8.75c0 .345.28.625.625.625h8.75c.345 0 .625-.28.625-.625V3.75a.625.625 0 00-.625-.625h-8.75zM1.25 3.75c0-1.036.84-1.875 1.875-1.875h8.75c1.036 0 1.875.84 1.875 1.875v8.75c0 1.036-.84 1.875-1.875 1.875h-8.75A1.875 1.875 0 011.25 12.5V3.75z"/><path d="M10 .625c.345 0 .625.28.625.625v2.5a.625.625 0 11-1.25 0v-2.5c0-.345.28-.625.625-.625zm-5 0c.345 0 .625.28.625.625v2.5a.625.625 0 11-1.25 0v-2.5c0-.345.28-.625.625-.625zM1.25 6.25c0-.345.28-.625.625-.625h11.25a.625.625 0 110 1.25H1.875a.625.625 0 01-.625-.625z"/></g></svg>