<svg width="16" height="17" viewBox="0 0 16 17" xmlns="http://www.w3.org/2000/svg"><g fill-rule="evenodd" clip-rule="evenodd"><path d="M5.445 2.13A.667.667 0 016 1.834h4c.223 0 .431.11.555.296l1.135 1.704H14a2 2 0 012 2v7.333a2 2 0 01-2 2H2a2 2 0 01-2-2V5.834a2 2 0 012-2h2.31L5.445 2.13zm.912 1.037L5.22 4.87a.667.667 0 01-.554.297H2a.667.667 0 00-.667.667v7.333a.667.667 0 00.667.667h12a.666.666 0 00.667-.667V5.834A.667.667 0 0014 5.167h-2.667a.667.667 0 01-.554-.297L9.643 3.167H6.357z"/><path d="M8 7.167a2 2 0 100 4 2 2 0 000-4zm-3.333 2a3.333 3.333 0 116.666 0 3.333 3.333 0 01-6.666 0z"/></g></svg>