<svg width="15" height="15" viewBox="0 0 15 15" xmlns="http://www.w3.org/2000/svg"><g fill-rule="evenodd" clip-rule="evenodd"><path d="M14.192 2.058a.625.625 0 010 .884l-6.25 6.25a.625.625 0 01-.884 0L5.183 7.317a.625.625 0 11.884-.884L7.5 7.866l5.808-5.808a.625.625 0 01.884 0z"/><path d="M3.125 2.5a.625.625 0 00-.625.625v8.75a.625.625 0 00.625.625h8.75a.624.624 0 00.625-.625V7.5a.625.625 0 111.25 0v4.375a1.875 1.875 0 01-1.875 1.875h-8.75a1.875 1.875 0 01-1.875-1.875v-8.75A1.875 1.875 0 013.125 1.25H10a.625.625 0 110 1.25H3.125z"/></g></svg>