<svg width="15" height="15" viewBox="0 0 15 15" xmlns="http://www.w3.org/2000/svg"><g fill-rule="evenodd" clip-rule="evenodd"><path d="M1.875 8.75c.345 0 .625.28.625.625v2.5a.625.625 0 00.625.625h8.75a.624.624 0 00.625-.625v-2.5a.625.625 0 111.25 0v2.5a1.875 1.875 0 01-1.875 1.875h-8.75a1.875 1.875 0 01-1.875-1.875v-2.5c0-.345.28-.625.625-.625z"/><path d="M3.933 5.808a.625.625 0 01.884 0L7.5 8.491l2.683-2.683a.625.625 0 11.884.884L7.942 9.817a.625.625 0 01-.884 0L3.933 6.692a.625.625 0 010-.884z"/><path d="M7.5 1.25c.345 0 .625.28.625.625v7.5a.625.625 0 11-1.25 0v-7.5c0-.345.28-.625.625-.625z"/></g></svg>