<svg width="16" height="17" viewBox="0 0 16 17" xmlns="http://www.w3.org/2000/svg"><path fill-rule="evenodd" clip-rule="evenodd" d="M1.427 8.5a12.45 12.45 0 001.643 2.21c1.194 1.274 2.863 2.457 4.93 2.457 2.067 0 3.736-1.183 4.93-2.456A12.447 12.447 0 0014.573 8.5a12.448 12.448 0 00-1.643-2.21C11.736 5.015 10.067 3.832 8 3.832c-2.067 0-3.736 1.183-4.93 2.456A12.45 12.45 0 001.427 8.5zm13.906 0c.597-.298.597-.298.596-.299V8.2l-.003-.004-.008-.015a12.393 12.393 0 00-.515-.875 13.785 13.785 0 00-1.5-1.928C12.597 3.984 10.6 2.5 8 2.5c-2.6 0-4.597 1.484-5.903 2.877A13.784 13.784 0 00.209 7.944a8.253 8.253 0 00-.127.236l-.008.015-.002.004-.001.002.596.299-.597-.298a.667.667 0 000 .596L.667 8.5l-.597.298.002.003.002.004.008.015a5.066 5.066 0 00.127.236 13.783 13.783 0 001.888 2.567C3.403 13.016 5.4 14.5 8 14.5c2.6 0 4.597-1.484 5.903-2.877a13.784 13.784 0 001.888-2.567 8.137 8.137 0 00.127-.236l.008-.015.002-.004.001-.002-.596-.299zm0 0l.597.298a.668.668 0 000-.597l-.597.299z"/><path fill-rule="evenodd" clip-rule="evenodd" d="M8 7.167a1.333 1.333 0 100 2.666 1.333 1.333 0 000-2.666zM5.333 8.5a2.667 2.667 0 115.334 0 2.667 2.667 0 01-5.333 0z"/></svg>