<svg width="15" height="15" viewBox="0 0 15 15" xmlns="http://www.w3.org/2000/svg"><g clip-path="url(#id6a)" fill-rule="evenodd" clip-rule="evenodd"><path d="M7.5 1.875a5.625 5.625 0 100 11.25 5.625 5.625 0 000-11.25zM.625 7.5a6.875 6.875 0 1113.75 0 6.875 6.875 0 01-13.75 0z"/><path d="M.625 7.5c0-.345.28-.625.625-.625h12.5a.625.625 0 110 1.25H1.25A.625.625 0 01.625 7.5z"/><path d="M7.5.625c.176 0 .343.074.461.203a10.188 10.188 0 012.664 6.685 10.188 10.188 0 01-2.664 6.659.625.625 0 01-.922 0 10.187 10.187 0 01-2.664-6.685A10.187 10.187 0 017.04.828.625.625 0 017.5.625zM5.625 7.5A8.938 8.938 0 007.5 12.78 8.938 8.938 0 009.375 7.5 8.938 8.938 0 007.5 2.22 8.938 8.938 0 005.625 7.5z"/></g><defs><clipPath id="id6a"><path d="M0 0h15v15H0z"/></clipPath></defs></svg>