<svg width="20" height="20" viewBox="0 0 20 20" xmlns="http://www.w3.org/2000/svg"><path d="M1.666 2.5c0-.46.373-.833.833-.833h5.834c.46 0 .833.373.833.833v5.834c0 .46-.373.833-.833.833H2.499a.833.833 0 01-.833-.833V2.5zm1.667.834V7.5h4.166V3.334H3.333zm7.501-.834c0-.46.373-.833.833-.833h5.834c.46 0 .833.373.833.833v5.834c0 .46-.373.833-.833.833h-5.834a.833.833 0 01-.833-.833V2.5zm1.667.834V7.5h4.166V3.334h-4.166zm-1.667 8.332c0-.46.373-.833.833-.833h5.834c.46 0 .833.373.833.833V17.5c0 .46-.373.833-.833.833h-5.834a.833.833 0 01-.833-.833v-5.834zm1.667.834v4.166h4.166V12.5h-4.166zm-10.835-.834c0-.46.373-.833.833-.833h5.834c.46 0 .833.373.833.833V17.5c0 .46-.373.833-.833.833H2.499a.833.833 0 01-.833-.833v-5.834zm1.667.834v4.166h4.166V12.5H3.333z" fill-rule="evenodd" clip-rule="evenodd"/></svg>