<svg width="25" height="24" viewBox="0 0 25 24" xmlns="http://www.w3.org/2000/svg"><g clip-path="url(#id10a)"><path fill-rule="evenodd" clip-rule="evenodd" d="M14.806 2.493a6.5 6.5 0 017.085 10.604l-8.84 8.84a1 1 0 01-1.414 0l-8.84-8.84a6.501 6.501 0 019.194-9.194l.353.353.353-.353a6.502 6.502 0 012.109-1.41zm2.488 1.505a4.5 4.5 0 00-3.183 1.319l-1.06 1.06a1 1 0 01-1.414 0l-1.06-1.06a4.501 4.501 0 00-6.366 6.366l8.133 8.133 8.133-8.133a4.501 4.501 0 00-3.183-7.685z"/></g><defs><clipPath id="id10a"><path transform="translate(.344)" d="M0 0h24v24H0z"/></clipPath></defs></svg>