<svg width="16" height="16" viewBox="0 0 16 16" xmlns="http://www.w3.org/2000/svg"><g fill-rule="evenodd" clip-rule="evenodd"><path d="M9.334 2c0-.369.298-.667.667-.667h2.666a2 2 0 012 2v9.333a2 2 0 01-2 2h-2.666a.667.667 0 110-1.333h2.666a.666.666 0 00.667-.667V3.333a.667.667 0 00-.667-.667h-2.666A.667.667 0 019.334 2z"/><path d="M6.195 4.195c.26-.26.683-.26.943 0l3.333 3.334c.26.26.26.682 0 .942l-3.333 3.334a.667.667 0 11-.943-.943L9.057 8 6.195 5.138a.667.667 0 010-.943z"/><path d="M1.334 8c0-.369.298-.667.667-.667h8a.667.667 0 010 1.333H2A.667.667 0 011.334 8z"/></g></svg>