<svg width="20" height="21" viewBox="0 0 20 21" xmlns="http://www.w3.org/2000/svg"><path fill-rule="evenodd" clip-rule="evenodd" d="M10 3a7.5 7.5 0 100 15 7.5 7.5 0 000-15zM.833 10.5a9.167 9.167 0 1118.333 0 9.167 9.167 0 01-18.333 0z"/><path fill-rule="evenodd" clip-rule="evenodd" d="M10 6.333c.46 0 .834.373.834.834v6.666a.833.833 0 01-1.667 0V7.167c0-.46.373-.834.833-.834z"/><path fill-rule="evenodd" clip-rule="evenodd" d="M5.833 10.5c0-.46.373-.833.833-.833h6.667a.833.833 0 010 1.666H6.666a.833.833 0 01-.833-.833z"/></svg>