<svg width="15" height="15" viewBox="0 0 15 15" xmlns="http://www.w3.org/2000/svg"><g fill-rule="evenodd" clip-rule="evenodd"><path d="M3.125 2.5a.625.625 0 00-.625.625v8.75a.625.625 0 00.625.625h8.75a.624.624 0 00.625-.625V5.259L9.741 2.5H3.125zm-1.326-.7c.352-.352.829-.55 1.326-.55H10c.166 0 .325.066.442.183l3.125 3.125A.625.625 0 0113.75 5v6.875a1.875 1.875 0 01-1.875 1.875h-8.75a1.875 1.875 0 01-1.875-1.875v-8.75c0-.497.198-.974.55-1.326z"/><path d="M3.75 8.125c0-.345.28-.625.625-.625h6.25c.345 0 .625.28.625.625v5a.625.625 0 11-1.25 0V8.75H5v4.375a.625.625 0 11-1.25 0v-5zm.625-6.875c.345 0 .625.28.625.625v2.5h4.375a.625.625 0 110 1.25h-5A.625.625 0 013.75 5V1.875c0-.345.28-.625.625-.625z"/></g></svg>