<svg width="15" height="15" viewBox="0 0 15 15" xmlns="http://www.w3.org/2000/svg"><g fill-rule="evenodd" clip-rule="evenodd"><path d="M1.25 3.75c0-.345.28-.625.625-.625h11.25a.625.625 0 110 1.25H1.875a.625.625 0 01-.625-.625z"/><path d="M6.25 1.875a.625.625 0 00-.625.625v1.25a.625.625 0 11-1.25 0V2.5A1.875 1.875 0 016.25.625h2.5A1.875 1.875 0 0110.625 2.5v1.25a.625.625 0 11-1.25 0V2.5a.625.625 0 00-.625-.625h-2.5zm-3.125 1.25c.345 0 .625.28.625.625v8.75a.625.625 0 00.625.625h6.25a.624.624 0 00.625-.625V3.75a.625.625 0 111.25 0v8.75a1.875 1.875 0 01-1.875 1.875h-6.25A1.875 1.875 0 012.5 12.5V3.75c0-.345.28-.625.625-.625z"/><path d="M6.25 6.25c.345 0 .625.28.625.625v3.75a.625.625 0 11-1.25 0v-3.75c0-.345.28-.625.625-.625zm2.5 0c.345 0 .625.28.625.625v3.75a.625.625 0 11-1.25 0v-3.75c0-.345.28-.625.625-.625z"/></g></svg>