<svg width="20" height="20" viewBox="0 0 20 20" xmlns="http://www.w3.org/2000/svg"><path d="M1.22 12.887a4.167 4.167 0 012.947-1.22h6.666A4.167 4.167 0 0115 15.834V17.5a.833.833 0 11-1.667 0v-1.666a2.5 2.5 0 00-2.5-2.5H4.167a2.5 2.5 0 00-2.5 2.5V17.5A.833.833 0 110 17.5v-1.666a4.17 4.17 0 011.22-2.947zM7.5 3.334a2.5 2.5 0 100 5 2.5 2.5 0 000-5zm-4.166 2.5a4.167 4.167 0 118.333 0 4.167 4.167 0 01-8.333 0zM15.86 12.4a.833.833 0 011.016-.599A4.167 4.167 0 0120 15.832V17.5a.833.833 0 11-1.667 0v-1.666a2.5 2.5 0 00-1.875-2.42.833.833 0 01-.598-1.014zm-3.334-9.999a.833.833 0 011.014-.6 4.167 4.167 0 010 8.073.833.833 0 01-.413-1.615 2.5 2.5 0 000-4.844.833.833 0 01-.6-1.014z" fill-rule="evenodd" clip-rule="evenodd"/></svg>