<svg width="16" height="17" viewBox="0 0 16 17" fill="none" xmlns="http://www.w3.org/2000/svg">
<g id="calendar">
<path id="Vector (Stroke)" fill-rule="evenodd" clip-rule="evenodd" d="M3.3335 3.83333C2.96531 3.83333 2.66683 4.13181 2.66683 4.5V13.8333C2.66683 14.2015 2.96531 14.5 3.3335 14.5H12.6668C13.035 14.5 13.3335 14.2015 13.3335 13.8333V4.5C13.3335 4.13181 13.035 3.83333 12.6668 3.83333H3.3335ZM1.3335 4.5C1.3335 3.39543 2.22893 2.5 3.3335 2.5H12.6668C13.7714 2.5 14.6668 3.39543 14.6668 4.5V13.8333C14.6668 14.9379 13.7714 15.8333 12.6668 15.8333H3.3335C2.22893 15.8333 1.3335 14.9379 1.3335 13.8333V4.5Z" fill="#292929"/>
<path id="Vector (Stroke)_2" fill-rule="evenodd" clip-rule="evenodd" d="M10.6667 1.1665C11.0349 1.1665 11.3333 1.46498 11.3333 1.83317V4.49984C11.3333 4.86803 11.0349 5.1665 10.6667 5.1665C10.2985 5.1665 10 4.86803 10 4.49984V1.83317C10 1.46498 10.2985 1.1665 10.6667 1.1665Z" fill="#292929"/>
<path id="Vector (Stroke)_3" fill-rule="evenodd" clip-rule="evenodd" d="M5.33317 1.1665C5.70136 1.1665 5.99984 1.46498 5.99984 1.83317V4.49984C5.99984 4.86803 5.70136 5.1665 5.33317 5.1665C4.96498 5.1665 4.6665 4.86803 4.6665 4.49984V1.83317C4.6665 1.46498 4.96498 1.1665 5.33317 1.1665Z" fill="#292929"/>
<path id="Vector (Stroke)_4" fill-rule="evenodd" clip-rule="evenodd" d="M1.3335 7.16667C1.3335 6.79848 1.63197 6.5 2.00016 6.5H14.0002C14.3684 6.5 14.6668 6.79848 14.6668 7.16667C14.6668 7.53486 14.3684 7.83333 14.0002 7.83333H2.00016C1.63197 7.83333 1.3335 7.53486 1.3335 7.16667Z" fill="#292929"/>
</g>
</svg>
