<svg width="300" height="154" viewBox="0 0 300 154" fill="none" xmlns="http://www.w3.org/2000/svg">
<g clip-path="url(#clip0_640_3593)">
<path d="M286.684 84.7775L285.745 92.2607L283.412 110.847H236.557C236.923 106.682 237.423 100.685 237.957 94.2123C238.01 93.5658 238.065 92.9153 238.118 92.2607C239.458 75.9892 240.924 57.5762 240.924 57.5762L247.084 58.7237L259.035 60.9461L263.905 61.8512L276.947 64.2796C283.449 65.4877 287.922 74.9023 286.684 84.7775Z" fill="#F2F2F2"/>
<path d="M251.242 27.4648L257.004 37.548L245.929 45.3965L241.205 33.0024L251.242 27.4648Z" fill="#FFB6B6"/>
<path d="M243.906 37.0059C251.79 37.0059 258.181 30.615 258.181 22.7315C258.181 14.8479 251.79 8.45703 243.906 8.45703C236.023 8.45703 229.632 14.8479 229.632 22.7315C229.632 30.615 236.023 37.0059 243.906 37.0059Z" fill="#FFB6B6"/>
<path d="M242.882 25.922C241.749 24.197 242.193 23.2947 241.244 22.6608C241.244 22.6608 240.863 22.4057 238.13 22.2602C237.518 17.8566 236.754 17.3225 236.754 17.3225C235.874 16.707 234.568 16.907 233.755 17.2834C232.036 18.0796 232.235 19.7994 231.078 20.1285C229.479 20.5831 226.57 18.0202 226.284 15.0862C226.05 12.6929 227.592 10.3684 228.203 10.4914C228.81 10.6133 230.262 8.75987 231.046 8.78846C231.581 8.80798 233.768 7.85728 234.357 7.93161C234.999 8.0128 237.118 9.11846 237.206 8.86585C237.82 7.11044 237.639 6.62339 238.16 6.12121C239.082 5.23134 240.592 5.85102 242.959 6.1837C247.83 6.8682 248.68 5.26206 251.177 6.35071C252.438 6.90064 253.493 8.38375 255.552 11.3275C258.431 15.4443 259.871 17.5027 259.88 19.9036C259.889 22.352 258.704 22.1966 258.183 25.8213C257.603 29.8561 258.835 31.7011 257.489 33.012C256.449 34.0251 254.335 34.2656 253.225 33.3764C251.323 31.8541 253.812 28.1807 251.707 25.4969C250.415 23.8495 247.818 23.1165 246.628 23.9309C245.282 24.8516 246.023 27.5542 245.077 27.8105C244.267 28.03 243.079 26.2226 242.882 25.922Z" fill="#2F2E41"/>
<path d="M276.133 82.1411C275.735 88.9488 274.153 91.0981 273.599 99.1379C273.478 100.903 273.406 102.952 273.406 105.395C273.406 106.018 273.409 106.621 273.409 107.209C273.409 108.462 273.385 109.646 273.239 110.846C273.129 111.805 272.938 112.771 272.623 113.788H241.88C241.876 113.781 241.876 113.774 241.873 113.767C241.693 112.985 241.579 112.238 241.492 111.521C241.464 111.293 241.44 111.068 241.419 110.846C241.392 110.587 241.367 110.331 241.343 110.078C241.25 109.071 241.156 108.119 240.935 107.209C240.637 105.953 240.097 104.769 238.99 103.627C238.536 103.16 238.083 102.796 237.64 102.478C237.553 102.419 237.47 102.36 237.384 102.301C236.159 101.46 234.999 100.855 233.996 99.1379C233.978 99.1137 233.964 99.086 233.951 99.0618C233.778 98.7607 233.328 97.9715 233.002 96.9195C232.659 95.8258 232.452 94.4517 232.826 93.0467C233.715 89.7172 237.01 89.385 239.703 86.0209C239.993 85.6575 240.281 85.256 240.554 84.8095C241.772 82.8298 242.101 81.0856 242.489 79.0124C242.551 78.6766 242.606 78.3444 242.651 78.0226C242.686 77.7803 242.717 77.5415 242.742 77.3061C242.956 75.3299 242.852 73.6271 242.6 72.1043C241.776 67.117 239.346 64.0299 241.063 59.5548C241.603 58.1498 242.368 57.0941 243.139 56.1908C244.773 54.2768 246.452 53.0344 246.161 50.5634C245.867 48.0714 243.977 47.7287 243.766 45.5517C243.659 44.4513 244.018 43.2918 244.693 42.1531V42.1497C246.853 38.4845 252.245 35.11 255.672 35.2173C256.305 35.2347 256.866 35.3765 257.333 35.65C259.025 36.6467 258.319 38.8236 260.912 41.8763C262.839 44.1432 265.02 45.05 265.847 45.4791C269.124 47.1889 271.789 52.2315 273.599 58.6792C273.613 58.7277 273.627 58.7761 273.641 58.8281C274.759 62.867 275.548 67.4528 275.939 72.1043C276.105 74.0736 276.202 76.0534 276.223 78.0121C276.24 79.5765 276.205 80.9333 276.133 82.1411Z" fill="#007DB6"/>
<path d="M253.111 105.465L252.485 107.209L252.09 108.303L251.176 110.847L250.117 113.789H243.31L244.452 110.847L244.981 109.476L245.86 107.209L247.335 103.402L253.111 105.465Z" fill="#FFB6B6"/>
<path d="M273.707 58.0842C273.69 58.3093 273.666 58.5584 273.641 58.8284C273.372 61.5764 272.735 66.4944 271.804 72.1046C271.312 75.0637 270.738 78.2168 270.091 81.3489C268.699 88.1081 266.969 94.7637 265.013 99.1382C264.664 99.9274 264.304 100.64 263.937 101.27C263.657 101.751 263.362 102.225 263.054 102.693C262.058 104.226 260.94 105.68 259.78 107.036C259.735 107.095 259.683 107.15 259.632 107.209C259.445 107.431 259.251 107.649 259.057 107.867C258.109 108.936 257.14 109.933 256.202 110.847C255.06 111.961 253.959 112.948 252.973 113.788H241.918L241.873 113.768L240.281 113.062C240.281 113.062 240.734 112.529 241.493 111.522C241.648 111.317 241.814 111.092 241.994 110.847C242.216 110.546 242.455 110.213 242.711 109.853C243.244 109.099 243.849 108.213 244.5 107.209C245.76 105.268 247.196 102.88 248.646 100.114C248.813 99.7924 248.982 99.467 249.152 99.1382C249.155 99.1279 249.162 99.1174 249.166 99.1071C249.453 98.5464 249.737 97.9684 250.02 97.38C252.426 92.3755 253.115 88.2223 253.312 86.8761C253.589 84.9726 253.973 82.3109 253.869 79.383C253.8 77.4519 253.519 75.4098 252.852 73.3817V73.3783C252.713 72.9526 252.557 72.527 252.381 72.1046C252.066 71.3467 251.692 70.5991 251.249 69.8619C249.294 66.6156 247.705 66.4806 246.442 62.9434C246.068 61.8948 245.22 59.5275 245.479 57.0287V57.0253C245.511 56.7172 245.563 56.4057 245.632 56.0941V56.0907C245.649 56.0042 245.673 55.9143 245.698 55.8278C245.895 55.0629 246.22 54.3048 246.715 53.5849C247.681 52.1869 248.999 51.3561 250.179 50.8613L250.183 50.8577C251.547 50.2902 252.723 50.1691 252.952 50.1483C258.008 49.6984 261.93 53.9484 264.072 56.2707C264.899 57.1671 265.657 57.9182 266.349 58.5307C271.738 63.3415 273.216 60.2681 273.6 58.6795C273.659 58.4338 273.69 58.2228 273.707 58.0842Z" fill="#007DB6"/>
<path d="M273.724 57.9043C273.724 57.9215 273.721 57.9803 273.707 58.0773C273.714 58.0253 273.718 57.9734 273.721 57.9249C273.721 57.9146 273.721 57.9077 273.724 57.9043Z" fill="#007DB6"/>
<path d="M246.238 130.934H60.7127C58.989 130.934 57.584 132.335 57.584 134.059C57.584 135.786 58.989 137.187 60.7127 137.187H246.238C247.961 137.187 249.363 135.786 249.363 134.059C249.363 132.335 247.961 130.934 246.238 130.934Z" fill="#003E5B"/>
<path d="M205.066 147.09H101.881C100.157 147.09 98.7559 148.491 98.7559 150.215C98.7559 151.939 100.157 153.344 101.881 153.344H205.066C206.79 153.344 208.195 151.939 208.195 150.215C208.195 148.491 206.79 147.09 205.066 147.09Z" fill="#003E5B"/>
<path d="M81.3564 28.1297L93.0488 23.209L98.0639 33.4899L85.777 38.505L81.3564 28.1297Z" fill="#FFB6B6"/>
<path opacity="0.1" d="M81.3564 28.1297L93.0488 23.209L98.0639 33.4899L85.777 38.505L81.3564 28.1297Z" fill="black"/>
<path d="M83.019 24.212L94.5538 37.502C94.5538 37.502 86.5296 62.8283 78.5054 65.0851C70.4813 67.3419 55.6867 78.3751 55.6867 78.3751L37.1309 66.3388L46.158 53.0488C46.158 53.0488 67.9737 23.209 73.7411 23.209C79.5085 23.209 83.019 24.212 83.019 24.212Z" fill="#007DB6"/>
<path d="M67.4341 110.847H40.5833L38.8857 108.577L31.9548 99.3119L30.36 97.1805C30.36 97.1805 24.3419 86.1473 25.5957 76.1171C26.8494 66.0869 39.8887 63.8301 39.8887 63.8301H40.4253L56.3884 77.8573L55.4355 90.9116L60.4907 99.3119L67.4341 110.847Z" fill="#2F2E41"/>
<path d="M46.0834 110.848H38.8867V100.191L46.0834 110.848Z" fill="#2F2E41"/>
<path d="M201.305 94.668L200.41 99.3119L198.189 110.847H153.557C153.905 108.261 154.382 104.54 154.891 100.523C154.941 100.122 154.993 99.7182 155.044 99.3119C156.32 89.214 157.717 77.7871 157.717 77.7871L163.584 78.4993L174.969 79.8784L179.608 80.4401L192.03 81.9472C198.224 82.6969 202.484 88.5395 201.305 94.668Z" fill="#F2F2F2"/>
<path d="M264.468 110.847H240.26C240.628 110.413 240.836 110.162 240.836 110.162L248.093 108.964L263.046 106.496C263.046 106.496 263.728 108.259 264.468 110.847Z" fill="#2F2E41"/>
<path d="M161.785 33.1445L172.312 48.0329L153.949 48.5813L151.978 34.5897L161.785 33.1445Z" fill="#A0616A"/>
<path opacity="0.1" d="M161.785 33.1445L172.312 48.0329L153.949 48.5813L151.978 34.5897L161.785 33.1445Z" fill="black"/>
<path d="M109.867 63.9919C108.516 60.0952 105.411 57.6336 102.931 58.4936C100.451 59.3537 99.5366 63.2093 100.888 67.1073C101.407 68.6718 102.293 70.0893 103.472 71.2413L109.404 87.6797L117.058 84.7315L110.398 68.8392C110.611 67.2043 110.429 65.5421 109.867 63.9919Z" fill="#A0616A"/>
<path d="M181.129 56.4054L181.114 71.5785L179.703 77.1829L176.799 88.7101L174.685 99.3121L173.11 107.211L172.549 110.032C172.125 110.315 171.703 110.586 171.282 110.847H134.604C132.52 109.596 131.354 108.623 131.354 108.623C131.354 108.623 131.931 108.081 132.591 107.211C133.704 105.741 135.051 103.334 134.226 101.035C134.053 100.553 134.007 99.9665 134.06 99.3121C134.396 94.9941 138.925 87.6921 138.925 87.6921L137.987 76.8544L137.576 72.1051L140.475 48.9478L149.926 43.4538L151.558 43.2959L167.664 42.4258L174.321 42.8094L174.624 42.8922L181.129 56.4054Z" fill="#E6295C"/>
<path d="M181.844 110.846H173.82L173.467 107.21L173.459 107.137L175.731 106.982L181.641 106.578L181.744 108.755L181.824 110.425L181.844 110.846Z" fill="#FFB6B6"/>
<path d="M183.82 60.0736L187.19 79.8506L184.439 99.3117L184.011 102.341L183.253 107.689L183.02 109.334L183.028 109.512L183.085 110.846H173.557L173.206 107.21L173.176 106.884L172.458 99.4371L172.446 99.3117L170.924 83.5192L173.908 72.1048L174.128 71.2647V71.2623L175.427 51.7184L174.421 42.8367L174.411 42.7539C174.431 42.7665 174.449 42.779 174.469 42.7915C174.522 42.8241 174.574 42.8567 174.624 42.8918C180.482 46.608 183.973 53.1277 183.82 60.0736Z" fill="#E6295C"/>
<path d="M143.89 52.7392L140.225 48.9492C140.225 48.9492 132.381 52.4855 131.99 54.4474C131.599 56.4093 117.75 85.2242 117.75 85.2242L111.724 69.1312L103.881 74.3677C103.881 74.3677 110.174 99.3531 116.06 100.526C121.946 101.699 141.672 70.9534 141.672 70.9534L143.89 52.7392Z" fill="#E6295C"/>
<path d="M292.673 99.1387H7.32346C3.28454 99.1387 0 102.427 0 106.466C0 110.504 3.28454 113.789 7.32346 113.789H292.673C296.712 113.789 300 110.505 300 106.466C300 102.426 296.712 99.1387 292.673 99.1387Z" fill="#003E5B"/>
<path d="M179.459 76.8126L178.904 102.701C178.851 105.208 176.804 107.211 174.297 107.211H126.673C124.226 107.211 122.205 105.298 122.072 102.854L120.656 76.9654C120.512 74.3254 122.614 72.1055 125.258 72.1055H174.852C177.436 72.1055 179.515 74.2294 179.459 76.8126Z" fill="#3F3D56"/>
<path d="M102.578 34.3781C108.871 34.3781 113.972 29.2768 113.972 22.984C113.972 16.6912 108.871 11.5898 102.578 11.5898C96.2849 11.5898 91.1836 16.6912 91.1836 22.984C91.1836 29.2768 96.2849 34.3781 102.578 34.3781Z" fill="#FFB6B6"/>
<path d="M83.5204 52.7971L84.7742 66.3378L93.2999 100.691L85.9343 103.273L73.4902 65.8363L71.7715 50.791L83.5204 52.7971Z" fill="#FFB6B6"/>
<path d="M80.1291 76.8126L79.5743 102.701C79.5206 105.208 77.4737 107.211 74.967 107.211H27.3432C24.8958 107.211 22.8752 105.298 22.7416 102.854L21.3263 76.9654C21.182 74.3254 23.2839 72.1055 25.9279 72.1055H75.5217C78.1055 72.1055 80.1844 74.2294 80.1291 76.8126Z" fill="#3F3D56"/>
<path d="M94.6577 107.386C99.6274 107.386 103.656 105.604 103.656 103.406C103.656 101.208 99.6274 99.4258 94.6577 99.4258C89.6879 99.4258 85.6592 101.208 85.6592 103.406C85.6592 105.604 89.6879 107.386 94.6577 107.386Z" fill="#FFB6B6"/>
<path d="M65.8418 54.8684L70.9823 27.472C70.9823 27.472 85.2753 25.4659 85.7768 30.2303C86.2783 34.9946 85.4185 58.2786 85.4185 58.2786L65.8418 54.8684Z" fill="#007DB6"/>
<path d="M97.9785 24.7766C97.9785 24.7766 105.027 22.2611 108 20.9076C110.973 19.5541 116.88 28.9946 117.011 24.0087C117.143 19.0229 115.102 16.932 115.102 16.932C115.102 16.932 114.592 6.02478 103.603 7.38845C103.603 7.38845 106.02 1.93142 98.0861 1.08759C90.152 0.243766 77.8086 19.4034 78.914 22.2667C80.0194 25.13 81.3446 27.4972 78.2083 30.5587C75.0721 33.6202 69.1993 50.8985 73.6676 55.5479C78.1358 60.1974 78.429 62.215 75.3676 65.1076C72.3061 68.0001 65.0697 74.2896 72.8939 75.3815C80.7182 76.4734 72.1781 75.6578 78.0112 70.527C83.8443 65.3962 92.356 65.6058 89.1778 57.3738C85.9997 49.1418 91.5213 37.3454 90.8304 35.5559C90.1395 33.7663 92.3783 22.4025 92.3783 22.4025C92.3783 22.4025 97.5889 21.637 97.9785 24.7766Z" fill="#2F2E41"/>
<path d="M156.155 38.5332C163.005 38.5332 168.559 32.9801 168.559 26.1299C168.559 19.2797 163.005 13.7266 156.155 13.7266C149.305 13.7266 143.752 19.2797 143.752 26.1299C143.752 32.9801 149.305 38.5332 156.155 38.5332Z" fill="#FFB6B6"/>
<path d="M157.145 9.45447C156.786 9.66397 156.306 9.34699 156.191 8.94767C156.076 8.54834 156.21 8.12437 156.343 7.73063L157.012 5.74848C157.486 4.34269 157.99 2.88779 159.018 1.8178C160.57 0.202831 163.035 -0.20801 165.255 0.0896299C168.105 0.471859 170.918 2.01533 172.243 4.56766C173.568 7.11999 173.004 10.6814 170.609 12.2738C174.022 16.1859 175.212 20.5457 175.024 25.734C174.837 30.9223 169.183 35.6973 165.495 39.3523C164.672 38.8531 163.923 36.5139 164.376 35.6642C164.829 34.8144 164.18 33.8299 164.741 33.0472C165.302 32.2644 165.771 33.5108 165.204 32.7325C164.846 32.2414 166.243 31.1115 165.711 30.8176C163.139 29.3958 162.283 26.1899 160.668 23.7348C158.719 20.7736 155.385 18.7682 151.855 18.4355C149.911 18.2523 147.858 18.5842 146.264 19.7128C144.671 20.8415 143.639 22.8584 144.009 24.7758C143.052 23.8041 142.575 22.3801 142.755 21.0282C142.935 19.6762 143.767 18.4261 144.944 17.7381C144.228 15.3703 144.842 12.6466 146.503 10.8143C148.165 8.98207 154.907 9.29414 157.333 9.77637L157.145 9.45447Z" fill="#2F2E41"/>
<path d="M157.521 18.5078C160.735 18.8547 163.055 21.6383 165.014 24.2089C166.144 25.6906 167.327 27.3268 167.298 29.1895C167.269 31.0727 166.01 32.688 165.409 34.4728C164.425 37.39 165.384 40.8608 167.725 42.8597C165.411 43.2987 162.91 41.564 162.511 39.2433C162.046 36.5416 164.094 33.9341 163.851 31.2035C163.638 28.7978 161.742 26.9464 160.13 25.1476C158.519 23.3489 157.005 20.962 157.746 18.6635L157.521 18.5078Z" fill="#2F2E41"/>
<path d="M205.564 100.703C202.381 102.514 200.735 105.624 201.887 107.649C203.04 109.675 206.554 109.848 209.738 108.037C211.019 107.331 212.114 106.328 212.928 105.112L226.318 97.2713L222.504 91.0664L209.709 99.4551C208.248 99.5341 206.826 99.9622 205.564 100.703Z" fill="#FFB6B6"/>
<path d="M250.898 43.2056C250.498 43.047 246.987 41.7174 243.782 43.4728C240.1 45.4893 239.531 50.0924 239.332 51.7069C238.871 55.4365 240.229 56.2724 240.515 60.0481C241.051 67.112 242.465 59.0534 240.207 62.2778C239.426 63.3939 231.445 80.6895 227.044 84.0772C218.484 90.666 213.048 95.306 213.048 95.306L219.254 102.047C219.254 102.047 229.06 99.4343 237.727 93.8065C246.617 88.0336 251.063 85.1472 254.502 79.5005C254.798 79.0143 261.885 66.9802 258.079 53.6733C257.211 50.6381 255.62 45.0768 250.898 43.2056Z" fill="#007DB6"/>
<path d="M282.942 76.8126L282.387 102.701C282.333 105.208 280.286 107.211 277.779 107.211H230.156C227.708 107.211 225.688 105.298 225.554 102.854L224.139 76.9654C223.995 74.3254 226.096 72.1055 228.74 72.1055H278.334C280.918 72.1055 282.997 74.2294 282.942 76.8126Z" fill="#3F3D56"/>
</g>
<defs>
<clipPath id="clip0_640_3593">
<rect width="300" height="153.344" fill="white"/>
</clipPath>
</defs>
</svg>
