<svg width="80" height="97" viewBox="0 0 80 97" fill="none" xmlns="http://www.w3.org/2000/svg">
<g clip-path="url(#clip0_640_3711)">
<path d="M46.5039 41.0058H46.3197H46.4579H46.5039ZM32.8521 38.3334L32.5528 38.4717L32.2536 38.656H32.6679L33.0133 38.4717L33.3816 38.3334L33.8651 38.1952L34.3255 37.9879H34.6478H34.9701L35.3384 37.8497H35.7298H36.1442L35.8449 38.0109V38.1491L35.6147 38.3795L35.914 38.7021L36.2363 38.4717H36.6507L36.973 38.2413H37.3643L37.6636 37.9879H37.2262L36.8348 38.1261H37.019H36.7197L36.8348 37.481H36.5356L36.8348 37.2046H37.2262L37.5485 37.0664H37.2953H36.996H37.2032L36.8348 37.2046H36.3974H35.7759L35.4305 37.3198L35.7298 37.2046H36.0982H36.4895H36.8348H37.1111H37.4334H37.7787H39.137H39.5054H39.8507H40.3341H40.6795H41.0248H40.6334H40.219H39.8507H40.173H40.4492H40.8176H41.1399H41.4392H41.7845H42.1068H42.4521H42.7744H43.1197H43.4881H43.8564L44.2018 37.3659L44.5241 37.5732L44.8464 37.6884L45.1226 37.8497H45.4449L45.7672 37.9648L46.0665 38.1261H46.4118H46.7571L47.1025 38.2643L46.6881 37.9648L47.0104 38.1031L47.3097 38.2874L47.632 38.4486L47.4938 38.2643L47.1715 38.1261L46.8723 37.9648L46.5269 37.8497L46.2277 37.6884L45.9054 37.5732L45.583 37.4119L45.2838 37.2737L44.9384 37.1585H44.6161L44.2938 37.0203L43.9255 37.2046H43.5802L43.2579 37.0894H42.9125L42.5672 36.9742H42.2219H41.8766H41.5313H38.3773H38.032H37.6636H37.3183H36.973L36.6277 37.0894H36.2823H35.937H35.6147L35.2924 37.2276L34.9701 37.3428H34.6478H34.9471H35.2694L34.9241 37.5271H35.0852H34.7399L34.3946 37.6653L34.0723 37.7805H33.7039L34.0032 37.5732L33.7269 37.7114H33.4046L33.0823 37.8497L32.76 37.9879L32.4838 38.1722L32.2305 38.5869L32.5989 38.4256L32.8521 38.3334ZM35.914 37.4119H36.1442L35.914 37.5271V37.4119ZM39.2291 36.9512H39.4593H39.8277H39.137H39.2291ZM37.2262 37.0894H37.9629H38.2161H37.8018H38.0089H37.5946H37.1571H37.2262ZM55.091 61.5557L55.2291 61.2101L54.9759 61.4866L54.7687 61.786L54.5615 62.0855L54.3543 62.385L54.2161 62.7536H54.055L53.8708 63.0071L53.6636 63.2605L53.5255 63.56L53.4104 63.8595L53.0651 64.0898L52.8809 64.4354L52.6737 64.7119L52.3974 64.9422L52.1672 65.2187L51.891 65.4491L51.6147 65.6564L51.3154 65.8638L51.0392 66.0941L50.832 66.3706L50.6708 66.6931V66.8313L50.5097 67.1769L50.2795 67.4994L49.9802 67.7759L50.1643 67.6607C50.2637 67.6122 50.3504 67.5412 50.4176 67.4534L50.5557 67.3382L50.832 67.1308C52.5674 65.6739 53.999 63.889 55.0449 61.8782V61.7169L54.8838 61.9243L55.091 61.5557ZM35.1543 66.7853H34.832L34.5327 67.1539L34.3025 67.3843H33.9111L33.5888 67.7759L33.796 68.1675H33.5658V68.5131L33.796 68.7435L34.0953 68.9278H34.4406H34.7859L34.9471 68.7435L34.8089 68.5362L35.0161 68.3288L35.2694 68.1675V67.845V67.5225V67.1539L35.1543 66.7853ZM55.7125 60.2425L55.5514 60.565L55.4133 60.8876L55.2982 61.2101V61.5326V61.3714L55.5744 60.7724V60.4498V60.2195L55.7125 59.966V60.2425ZM50.4406 63.7903L50.6018 63.4908L50.8089 63.2144L50.6478 62.9149L50.3025 62.7306L50.0262 62.5463L50.1874 62.385L50.4176 62.2238V61.8782L50.2564 61.5557L50.0262 61.2792H49.75L49.4967 61.1179V60.7033V60.3116L49.796 60.0352L50.1183 60.2195L50.4636 60.3577L50.6478 60.2425L50.9471 59.9891L51.1543 59.6435L51.3845 59.321V58.9524V58.6529V58.3534V58.0539L51.0161 57.8235L50.6478 57.6623V57.3167L50.7859 56.9942L50.901 56.6486H51.4075L51.6607 56.3952L51.8219 56.0957L52.0521 55.8192L52.3053 55.5658V55.1972L52.5125 54.8747L52.6277 54.5061L52.7658 54.1605V52.663L52.5356 52.4096L52.2823 52.2023L52.0291 51.9719V51.6494L51.914 51.3499L52.0291 51.0273H51.7068H51.3154L51.4536 50.6127L51.7528 50.4975L52.0061 50.3362L52.2363 50.4744H52.4665L52.6967 50.843L52.973 51.1425L53.2953 50.797V50.4514L52.95 50.244L52.7658 49.9446L52.5356 49.6681V49.4377V49.0691L52.4435 48.7235V48.378L52.6507 48.2398V47.8711V47.5025V47.157L52.4895 46.7192L52.2593 46.4198L52.0982 46.1203L51.937 45.8438L51.7989 45.5904L52.0521 45.7286L52.2363 46.0051L52.4435 46.2815L52.7197 46.4198V46.1203L52.4895 45.936L52.3284 45.6595L52.1672 45.383L51.914 45.1757L51.6838 44.9223L51.4075 44.8071V45.1296H51.0392L50.9241 45.4061L50.6938 45.1066L50.4866 44.8071V44.4615V44.0929V43.7243V43.3788V42.9641H50.6708L50.4636 42.6646L50.3025 42.3651V42.0195L50.0723 41.6509L50.3255 41.8582L50.5097 42.1808L50.7169 42.4572L50.9471 42.7106L51.1543 42.9871L51.4075 43.2405L51.8449 43.4709L52.2823 43.6552L52.0751 43.3327L51.8219 43.0562L51.4305 42.7106L51.2003 42.4572L50.9471 42.2269L50.7169 41.9734L50.1874 41.8122L49.9802 41.5127L49.773 41.1901L49.5658 40.8907L49.3125 40.6372L49.0823 40.3377L48.8291 40.0613L48.4838 39.9231L48.1615 39.7618L47.9082 39.5084L47.655 39.301L47.4018 39.1167V39.4623V39.7848L47.5629 40.1074L47.8392 40.3608L47.678 40.7524L47.4938 40.8907V41.075H47.3097V41.2362H47.0564L46.8262 41.4666V41.6279L46.642 41.9504V42.342L46.5039 42.6646H46.1356H45.7442L45.4679 42.8719L45.1687 43.0562H44.9154L44.7543 43.3327L44.5241 43.4939V43.2175V42.918H44.2478H43.9255H43.6262L43.396 43.3788L42.9816 43.4939H42.5442L42.337 43.8625L41.9687 44.0699V44.3463L41.7615 44.5767L41.9687 44.8071L41.6464 44.9223H41.301H40.9327V45.1757V45.4061L40.7025 45.0605L40.5183 44.6458L40.2651 44.9914V45.383L40.15 45.7517H39.5974L39.2751 45.6365H38.9759L38.6536 45.7517H38.3313H38.0089H37.2032H36.8118L36.4895 45.4982L36.2363 45.936H35.937H35.6147L35.3154 46.0742H34.9931L34.7859 45.8208V45.4982L34.9471 45.36L35.2694 45.5673H35.6377H36.0291V45.4982L35.7759 45.2909L35.5687 45.0375L35.3154 44.8301L35.0161 44.6919L34.8089 44.2772L34.5327 44.116H34.1874H33.8881L33.6118 44.2312H33.3125L32.8751 44.3924H32.5068L32.1845 44.5537L31.8392 44.6919H31.4938H31.1715L30.8953 44.9684L30.619 45.2218L30.4809 45.5443L30.7802 45.959V46.2585V46.558V46.8805L31.0564 47.1109L31.4478 46.9496L31.7701 46.7653L32.0694 46.4889V46.1894L32.1845 45.8668L32.4838 45.6595L32.8061 45.4982L33.1514 45.383H33.4967L33.2665 45.5904L32.9672 45.7286L32.691 45.8668L32.5528 46.3046L32.6679 46.6041L32.5298 46.9266L32.2766 47.1339H31.9773L31.7471 47.3643L31.5629 47.6177H31.1715H30.7802L30.5269 47.4334L30.2967 47.2261L29.9284 46.9035L30.2277 46.7653V46.4198L30.3658 46.0972L30.0895 46.3276L29.8363 46.581L29.56 46.8344L29.3759 46.6732H29.0996H28.8464L28.5241 46.8114L28.2248 46.9957H27.8795L27.6723 46.8575H27.396L27.2579 47.203V47.5256L27.0967 47.8251L26.8435 48.0324L26.4751 47.802L26.2219 47.4104L25.9226 47.7099L25.6233 47.9633L25.4852 48.2167V48.5162L25.3241 48.7235V49.1152V49.5068L25.6003 49.622H25.8766L26.1759 49.4608L26.4291 49.1843H26.7054L27.1428 48.9309L27.396 49.1152H27.6723L27.9485 49.2304V49.5529V49.8985L28.0636 50.244L28.2478 50.5666L28.3859 50.9121L28.2708 51.2116V51.5572L28.5241 51.3268L28.7543 51.0504V51.2116V50.82V50.5666V50.2901L28.5701 49.8985L28.7082 49.4608L28.9615 49.7142L29.0766 50.0828L29.2377 50.4744V50.8891L28.9615 51.0734V51.3959V51.7185V52.1101V52.5478L29.2147 52.6861L29.4449 52.8243V52.4557H29.6061V51.7185L29.8823 51.5572L30.1816 51.8106H30.573L30.2967 52.018V52.3635V52.7091V53.3311L30.596 53.4463L30.8953 53.5845L31.1946 53.7228L31.4938 53.884H31.8392V54.2757V54.6443L31.5169 54.8747L31.3097 55.082L31.0564 54.9668L30.55 54.8516H30.1356L29.9284 54.483L29.6751 54.2526L29.3989 53.9762L29.0996 53.7458L28.8233 53.5154H28.5471L28.2018 53.884L27.9946 53.6306L27.8104 53.3311L27.6262 53.0547V52.6861L27.3039 52.5018L27.1658 52.1562L27.2809 51.7876V51.419V51.0504L27.0046 50.8661L26.7054 50.6587L26.4291 50.4284L26.1528 50.198L25.8075 50.0828H25.5313V49.576L25.1169 49.8063H24.7025L24.4723 50.1289L24.196 50.3823H23.8046L23.4823 50.6587L23.3212 51.0504L23.1831 51.442V51.7876L23.0449 52.1101V52.4557V52.8013V53.1468V53.4924V53.838V54.1605V54.5061V54.9668V55.6349L23.16 56.0035V56.3491V56.7177L23.3442 57.0402L23.5974 57.3167L23.7816 57.6853L24.0348 57.9618L24.4262 58.1L24.5874 58.3534L24.7255 58.6298L24.8866 58.8833L25.1629 59.1597L25.3931 59.4592L25.5313 59.8048L25.3241 60.2425V60.6341L25.4392 61.0028L25.6464 61.3483V61.6939L25.8305 62.0164V62.362L26.0147 62.6845L26.1989 62.984L26.4291 63.2605V63.56V63.8364V64.0207V64.3663V64.8501L26.6823 65.1035L26.9586 65.3108L27.1658 65.5873L27.35 65.8638L27.5572 66.1402L27.7643 66.4167L27.9715 66.6931L28.2018 66.9235L28.455 67.1769C29.0378 67.6777 29.6531 68.1395 30.2967 68.5592H30.4348L30.7111 68.6744L31.0104 68.7896H31.3097L31.632 68.5362V68.1675L31.8392 67.9141V67.6837V67.4073L32.0924 67.2691L32.2305 67.1539H32.5528L32.76 66.8774L32.6219 66.5319V66.1632L32.5068 65.8177L32.2305 65.4491V65.0805L32.0464 64.8501L32.3226 64.5736L32.6449 64.3663L33.0133 64.2281L33.3125 63.9746L33.5888 63.6982L33.9572 63.5369L34.3255 63.4217L34.6478 63.1914V62.8228L34.832 62.5002L35.0392 62.1777L35.3154 61.9703V61.6248L35.0852 61.4866H34.855H34.5327H34.1413H33.3816L33.1054 61.1871V60.9106H33.4737H33.842H34.1874H34.5557H34.9241H35.2694L35.5917 60.7724L35.914 60.565H36.4205L36.8348 60.2425H37.1571L37.3413 59.943L37.5255 59.6435L37.7557 59.3671L37.9629 59.0906L37.8478 58.8141V58.5147L37.4334 57.9387L37.2262 57.5931H37.5715L37.8708 57.7544H38.1931L38.4924 57.9157H38.7917L39.137 57.9387H39.4823H39.8046V58.0769L40.0579 58.2843L40.3572 58.3995L40.5643 58.6298L40.8866 58.9524L41.1859 59.2288H41.4852L41.6464 59.4592L41.8305 59.6896V60.0121V60.7033L42.0377 60.9106L42.291 61.0719V61.4635L42.4751 61.7169L42.6363 61.9473L42.7974 62.1777L43.0507 62.3159L43.1888 62.5463L43.442 62.2929L43.7183 62.0855L43.8795 61.763L44.0866 61.4866V61.141V60.4498L44.2708 60.1503L44.5471 59.8969L44.8694 59.7126L45.2147 59.5744L45.4679 59.0906L45.8363 58.8833L46.0665 58.5607L46.3888 58.3534L46.7341 58.2152H47.1485L47.4248 58.4225L47.655 58.699L47.8161 59.0215L48.0233 59.2979H48.3456H48.737L48.9442 59.5744V59.943V60.2886V60.6572V61.0028L49.0823 61.3253L49.3816 61.4866V61.8782L49.5197 62.2238L49.2665 62.0625H48.9442H48.6449H48.3456V62.2468L48.6679 62.5233L49.1054 62.6615V62.9379L49.4277 63.1222V63.3987L49.5428 63.6752L49.842 63.7903H50.1874H50.4406ZM30.3197 63.4908L30.0435 63.0992L30.2737 63.2144V63.0992L30.4809 63.2835L30.3197 63.4908ZM32.6219 59.966L32.2305 59.5514L32.0003 59.2979L31.7931 58.9985L31.632 58.699V58.3534L31.8392 58.0309L31.678 57.7314L31.3557 57.6162V57.2936L31.2406 56.9942V56.6947V56.3721V56.0496H31.5169L31.7931 56.2339L31.9543 56.5334V56.925V57.2706L32.0694 57.6392L32.2305 57.9387L32.3687 58.2612L32.5759 58.5377L32.783 58.8372L32.9442 59.2519V59.92V60.2425L32.6219 59.966ZM33.842 52.4787H33.3816L33.0823 52.3405H32.737L32.4838 52.1101H32.1384H31.7931H31.4248H31.0564L31.3097 51.8567L31.4478 51.5572L31.5629 51.2577L31.7701 50.9813H32.0233H32.2536L32.2305 51.0273V51.2808L32.0464 51.3959L32.3687 51.6954L32.8061 51.5342L32.4147 51.3038L32.6679 51.0965H32.9902H33.2895V51.3729L33.0363 51.6033L33.2435 51.8567L33.4507 52.0871L33.6579 52.3405L33.842 52.4787ZM35.7068 51.9719V51.6954L36.0751 51.5572H36.3974H36.6507L36.3514 51.8106L36.0291 51.9719V52.5248L36.1672 52.8013V53.1238V53.4463V53.7689V54.1144H35.8679H35.5226L35.3615 53.7689L35.2464 53.3772L35.4996 53.1929L35.3615 52.8473L35.2464 52.5248V52.1562L35.7068 51.9719ZM36.6277 57.9157H36.3054L35.914 57.9387L35.7068 57.6853L35.5226 57.4088L35.3154 57.1324L35.1773 56.8329L34.9241 56.6025H35.1543H35.4075V56.879L35.5456 57.1785L35.7528 57.4088L35.937 57.6623H36.3054L36.6507 57.8005L36.6277 57.9157ZM45.8363 41.6048L46.2737 41.7661V41.3975H46.0435L45.8363 41.6048ZM27.6262 49.9446H27.419V50.5205L27.6262 50.198V49.9446ZM29.6982 53.3311H29.9284L29.7902 53.0547L29.6982 53.3311ZM27.7874 51.6263V51.9258L28.0636 51.6724V51.3499H27.7643V51.1195L27.6262 51.2577L27.7874 51.6263ZM54.7226 60.565L55.0219 60.2425V59.9891L54.7917 60.2425L54.7226 60.565ZM53.7557 50.9121H53.5255V51.2577H53.8478L53.7557 50.9121ZM53.3183 57.2936L53.6636 57.501L54.101 57.2706L53.9169 56.925L53.7327 56.6025V56.3261V56.0726H53.4334V56.4643V56.8559L53.3183 57.2936ZM53.3183 58.7911L53.4795 58.4916L53.1802 58.6529V59.0445L53.3183 58.7911ZM54.0089 57.8466H53.8708V57.9387L54.0089 58.0539V57.8466ZM53.8018 48.7235V49.0461V49.7372L53.6866 50.0597V50.3823V50.7509H54.032L54.2622 50.5205V50.198V49.8754V49.1843V48.8387L54.078 48.5392L53.9399 48.2167L53.7787 47.8711V47.9863L53.9169 48.378L53.8018 48.7235ZM51.4996 63.6291H51.1082H50.6478L50.4176 63.9286H51.0161H51.2924H51.6838L52.0291 63.7673L52.2823 63.4448H51.7759L51.4996 63.6291ZM51.2924 57.2245L51.1312 57.524L51.4536 57.6853V57.4319V57.1785L51.2924 57.2245ZM53.0651 54.46V54.7825V55.1281H53.1802V54.7595V54.4139L53.0651 54.46ZM44.2018 62.0625H43.8795L43.6953 62.3159L43.7413 62.5463L43.9025 62.8228V62.961H44.3169V62.6154V62.2929L44.2018 62.0625ZM53.019 47.4104L53.1802 47.6868L53.2953 47.4565V47.157V46.8575L53.019 46.7192H52.95L53.0881 47.0418L53.019 47.4104ZM56.219 58.2612L56.0118 58.6068L55.8046 58.9293L55.6895 59.321L55.4593 59.1136L55.2751 59.3901V59.6896L55.4133 60.0121L55.7816 59.7587V59.943L55.9428 59.5744L56.0809 59.2288L56.219 58.9985C56.219 58.8602 56.219 58.722 56.219 58.6068V58.4916V58.1V58.2612ZM54.2622 58.722H54.5615V58.3764V57.9387V57.5931L54.3773 57.9618L54.2392 58.3304L54.0089 58.6759L54.2622 58.722ZM53.5715 62.5463L53.6866 62.2929L53.4334 62.4541L53.2723 62.7076L53.1572 62.984L53.3413 62.7536L53.5715 62.5463ZM43.0737 42.8028H43.419L42.9586 42.6415L43.0737 42.8028ZM52.7658 62.0164L52.9269 61.74V61.3944L53.0881 61.0949L53.2262 60.7954V60.4498V60.1043L53.4104 59.8969L53.5485 59.6205L53.2953 59.4362H52.95L52.8348 59.7817L52.6737 60.1043L52.4895 60.4268L52.1902 60.8185L52.0061 61.0719L51.7528 61.2792L51.5226 61.4866L51.3154 61.763V62.0625L51.4996 62.362H51.8449H52.1902H52.5586L52.7658 62.0164ZM35.5917 42.2038V41.8813L35.2464 41.8122L34.9701 41.9504L34.7629 42.2038V42.5263H35.2003L35.5917 42.3651L35.7068 42.5033L36.2133 42.3651L35.914 42.1347L35.5917 42.2038ZM31.0795 39.5084L30.8032 39.7157L30.5039 39.877L30.2737 40.1074L29.9054 40.3608L29.6982 40.7524L30.0205 40.6372L30.2737 40.476H30.55V40.6372L30.8953 40.7524L31.0795 41.0519V41.3744H31.4018H31.7241L31.9773 41.1671H32.2305L32.5068 41.0519L32.9212 40.8907H33.1974H33.4507H33.796H34.1413H34.5327V40.6372V40.3838L34.878 40.1995V39.5084L35.2233 39.1167H35.0852L35.2694 38.7021H35.0161L35.2003 38.5177V38.2643H35.4075H35.0852H34.7629L34.4636 38.4026L34.1643 38.5408V38.656L33.842 38.7942L33.5428 38.9324H33.2205L32.9212 39.0937L32.5298 39.2319L32.2075 39.3702L31.9313 39.5314V39.4162H31.6089L31.2866 39.5545L31.0795 39.5084ZM29.9284 41.9734L29.7442 42.2499V42.5724H30.3197L30.4809 42.1577L30.2737 41.8122L29.9284 41.9734ZM38.8607 44.3233H39.1831L39.4593 44.116H39.8277V43.9317L39.4823 43.8165H39.114L38.9068 44.116L38.5615 44.2312L38.2161 44.4155L38.032 44.738L37.8938 45.1066L38.1471 45.2218L38.3773 45.383L38.5154 45.2218V44.8993L38.7687 44.6689L38.8607 44.3233ZM42.4521 42.4112H42.1528V42.8258H42.8205L42.6593 42.5724L42.4521 42.4112ZM30.0435 39.6466L30.3888 39.4853L30.6881 39.255L31.0564 39.1167L31.3787 38.9555L31.5629 38.7021L31.2176 38.8864C30.6355 39.2121 30.0743 39.5738 29.537 39.9691L29.8363 39.8309L30.0435 39.6466ZM54.1471 60.2425L53.7557 60.4268L53.6176 60.7493L53.4104 61.0488V61.3714V61.7169V62.0164H53.7327L53.9399 61.7169V61.3714V61.0028H53.7787L54.0089 60.7263L54.2161 60.4268L54.4003 60.0812L54.1471 60.2425ZM27.9485 45.5673L28.2478 45.4522L28.501 45.2448V44.9223H28.1557L27.8795 45.1066L27.5802 45.2679V45.5213L27.9485 45.5673ZM53.8478 62.5463L54.101 62.2007L54.2852 61.8321L54.055 62.2007L53.8478 62.5463ZM28.5241 45.6595L28.2018 45.8438L27.9255 46.0742L27.6262 46.4198V46.7423H28.0406H28.455L28.6392 46.3967V46.0281L28.7773 45.6825L29.0536 45.4291L29.2607 45.1066V44.738L28.9845 44.8762H28.7313V45.1757L28.478 45.4291L28.5241 45.6595ZM28.5241 40.7985L28.2248 41.098L28.5471 40.7985H28.5241Z" fill="white"/>
<path d="M25.5774 83.5565C25.5774 83.5565 12.8005 76.3686 13.8134 65.3104C13.1921 67.7744 13.436 70.3771 14.5041 72.6826C14.5041 72.6826 8.28824 70.3788 13.6753 61.0254C13.6753 61.0254 20.5818 65.8403 15.6782 72.7287C16.9112 75.1388 18.8244 77.1335 21.1803 78.4651C23.0795 79.5902 24.9092 80.8288 26.6595 82.1742C26.6889 82.3356 26.6843 82.5014 26.6459 82.6609C26.6074 82.8204 26.536 82.9701 26.4363 83.1003C26.3365 83.2306 26.2106 83.3384 26.0666 83.417C25.9227 83.4955 25.7639 83.5431 25.6005 83.5565" fill="white"/>
<path d="M15.7929 75.7935C14.225 77.6339 11.9969 78.7837 9.58935 78.9949C7.18181 79.2061 4.7878 78.4617 2.92383 76.9223C2.92383 76.9223 8.90944 71.1628 14.9871 74.4112C13.0665 74.4352 11.1708 74.8506 9.41591 75.6322C11.521 75.1455 13.715 75.201 15.7929 75.7935Z" fill="white"/>
<path d="M18.9471 75.5404C18.6778 74.9132 18.5437 74.2363 18.5532 73.5538C18.5628 72.8713 18.7159 72.1984 19.0025 71.579C19.2892 70.9596 19.703 70.4076 20.2171 69.9589C20.7311 69.5101 21.3338 69.1748 21.9859 68.9746C21.9859 68.9746 22.6996 75.1488 18.9471 75.5404Z" fill="white"/>
<path d="M40.0115 33.5638C38.9986 32.1124 32.2302 18.7734 0 21.0772V77.2437C0 77.2437 0.73669 90.3062 12.9381 90.3062C25.1396 90.3062 34.1871 89.569 39.9194 96.0657C43.577 92.7263 48.2811 90.7636 53.2259 90.5135C60.6158 90.5135 67.0389 90.5135 67.0389 90.5135C67.0389 90.5135 79.977 89.7302 79.977 76.2531V21.0772C47.7468 18.7734 40.9784 32.1124 39.9885 33.5638" fill="#5392D3"/>
<g opacity="0.5">
<mask id="mask0_640_3711" style="mask-type:luminance" maskUnits="userSpaceOnUse" x="0" y="0" width="80" height="37">
<path d="M80 0.34375H0V36.5594H80V0.34375Z" fill="white"/>
</mask>
<g mask="url(#mask0_640_3711)">
<mask id="mask1_640_3711" style="mask-type:luminance" maskUnits="userSpaceOnUse" x="0" y="0" width="80" height="37">
<path d="M80 0.34375H0V36.5594H80V0.34375Z" fill="white"/>
</mask>
<g mask="url(#mask1_640_3711)">
<path d="M80 36.5595V0.505151C47.7698 -1.79864 41.0014 19.6266 40.0115 21.078C38.9986 19.6266 32.2302 -1.7756 0 0.505151V36.5595" fill="#A4AAAF"/>
</g>
</g>
</g>
<path d="M80 37.2042V5.91868C47.7698 3.61489 41.0014 25.1093 40.0115 26.6528C38.9986 25.2014 32.3223 3.61489 0 5.91868V37.2042" fill="white"/>
<path d="M80 38.2881V11.6793C47.7698 9.37556 41.0014 29.073 40.0115 30.5244C38.9986 29.073 32.2302 9.3986 0 11.6793V38.2881" fill="#C5392A"/>
<path d="M80 36.5594V17.6222C47.7698 15.3184 41.0014 30.6387 40.0115 32.1131C38.9986 30.6387 32.2302 15.3415 0 17.6222V36.5594" fill="white"/>
<path d="M80 42.9411V23.0133C47.7698 20.7095 41.0014 32.1132 40.0115 33.5646C38.9986 32.1132 32.2302 20.7325 0 23.0133V42.9411" fill="#5392D3"/>
<path d="M47.2863 41.4902H47.0791H47.2402H47.2863ZM33.6345 38.8178L33.3352 38.956L33.0359 39.1404H33.4503L33.7956 38.956L34.164 38.8178L34.6705 38.7026L35.1079 38.4723H35.4302H35.7525L36.1208 38.334H36.5122H36.9266L36.6273 38.4723L36.7424 38.6105L36.5122 38.8409L36.8115 39.1634L37.1338 38.956H37.5482L37.8705 38.7026H38.2618L38.5841 38.4723H38.1237L37.7323 38.5874H37.9165H37.6172L37.5021 38.4031L37.6172 38.2879H37.2949L37.6402 38.1728H38.0316H38.3539H37.8244H38.0316L37.6172 38.2879H37.2028H36.6043L36.2589 38.4031L36.5582 38.2879L36.9266 38.1728H37.3179H37.6172L37.8935 38.0576H38.2158H38.5841H38.469H39.7352H40.1036H40.4489H40.9323H41.2777H41.623H41.2316H40.9784H40.587H40.9093H41.1856H41.5539H41.8762H42.1985H42.5438H42.8661H43.2115H43.5338H43.8791H44.2474H44.6158L44.9611 38.2419L45.2834 38.4262L45.6057 38.5414L45.882 38.7026H46.2273L46.5266 38.8409L46.8259 38.9791H47.1712H47.5165L47.8618 39.1173L47.4474 38.8178L47.7697 38.956L48.069 39.1404L48.3913 39.3016L48.3453 39.1404L48.023 39.0252L47.7237 38.8409L47.3784 38.7257L47.0791 38.5644L46.7568 38.4492L46.4345 38.2879L46.0431 38.1497L45.7208 38.0345H45.3755L45.0532 37.8963L44.7079 37.7811H44.3625L44.0402 37.6659H43.6949H43.3496H43.0043H42.659H42.3136H40.564H40.2187H39.8503H39.1366H38.7913H38.446H38.1007H37.7554H37.41H37.0647H36.7194H36.3971L36.0978 37.8042L35.7525 37.9193H36.0518L35.7064 38.1036H35.8676H35.5223L35.1769 38.2419L34.8546 38.3571H34.5323L34.8316 38.1728H34.5554H34.233L33.9107 38.311L33.5884 38.4492L33.3122 38.6335L32.9899 38.8178L33.3582 38.6566L33.6345 38.8178ZM40.0115 37.4355H39.8273H39.482H40.2647H40.61H40.0115ZM38.0316 37.5738H38.7453H38.9985H38.5841H38.7913H38.3769H37.9395H38.0316ZM55.8733 62.04L56.0115 61.6945L55.7582 61.9709L55.551 62.2704L55.2518 62.5469L55.0446 62.8694L54.9064 63.215H54.7453L54.5611 63.4454L54.3539 63.6988L54.2158 63.9983L54.1007 64.2978L53.7554 64.5281L53.5712 64.8737L53.364 65.1732L53.0877 65.3805L52.8575 65.657L52.5813 65.8874L52.305 66.1177L52.0057 66.3021L51.7295 66.5324L51.5223 66.8089L51.3611 67.1314V67.2696L51.2 67.6383L50.9697 67.9377L50.6705 68.2142H50.8546L51.1309 68.0069L51.246 67.8917L51.5223 67.6613C53.2584 66.1959 54.6898 64.4034 55.7352 62.3856V62.2474L55.5741 62.4778L55.8733 62.04ZM35.9366 67.2696H35.6143L35.4302 67.5691L35.1769 67.7995H34.7856L34.4863 68.1912L34.6705 68.5828H34.5323V68.9284L34.7625 69.1588L35.0618 69.3431H35.4072H35.7525L35.9136 69.1588L35.7755 68.9514L35.9827 68.7441L36.2359 68.5828V68.2603V67.9377L36.0287 67.6383L35.9366 67.2696ZM56.4949 60.796L56.3338 61.1185L56.1956 61.4411L56.0805 61.7636V62.0861V61.9248L56.3568 61.3259V61.0264L56.4719 60.773L56.587 60.5195L56.4949 60.796ZM51.223 64.3438L51.3841 64.0443L51.5913 63.7679L51.4072 63.3993L51.0618 63.215L50.8086 62.9385L50.9697 62.7773L51.2 62.616V62.2704L51.0158 61.9479L50.7856 61.6714H50.5323L50.2561 61.5332V61.1185V60.7038L50.5553 60.4274L50.8777 60.6117L51.223 60.7499L51.5913 60.8651L51.8906 60.6117L52.0978 60.2661L52.328 59.9436V59.598V59.2755V58.976V58.6765L51.9597 58.4461L51.5913 58.2388V57.8932L51.7295 57.5707L51.8446 57.2251L52.351 57.3403L52.6043 57.0869L52.7884 56.7874L52.9956 56.5109L53.2489 56.2575V55.8889L53.4561 55.5664L53.5712 55.2208L53.7093 54.8522V53.3317L53.4791 53.1013L53.2259 52.8709L52.9496 52.5945V52.272V51.9494L53.0877 51.6499L52.7194 51.5117H52.305L52.4431 51.097L52.7424 50.9818L52.9956 50.8206L52.9496 51.0279H53.1798L53.41 51.3965L53.6863 51.696L54.0086 51.3504V51.0049L53.8244 50.7284L53.6172 50.4289L53.387 50.1525V49.9221V49.5535L53.2028 49.231V48.8854L53.41 48.7472V48.3786V48.01V47.6644L53.2489 47.2497L52.9496 46.9272V46.6277L52.7194 46.4203L52.5813 46.1669L52.8345 46.3282L52.9496 46.4203L53.1568 46.6968L53.433 46.835V46.5586L53.2028 46.4203L52.9496 46.1669V45.8905L52.6964 45.6831L52.4661 45.4527L52.1899 45.3145V45.637H51.8215L51.7064 45.9135L51.4762 45.637L51.269 45.3376V44.9689V44.6003V44.2317V43.8862V43.5176H51.4532L51.246 43.2181L51.0849 42.9186V42.596L50.8546 42.2044L51.1309 42.4348L51.292 42.7343L51.4992 43.0107L51.7295 43.2641L51.9366 43.5636L52.1899 43.794L52.6273 44.0244L52.9496 44.1165L52.7424 43.794L52.4892 43.5176L52.0978 43.172L51.8676 42.9186L51.6143 42.6882L51.3841 42.4348L51.0849 42.2274L50.7625 41.8127L50.6474 41.5824L50.4402 41.2598L50.187 41.0064L49.9568 40.7069L49.7036 40.4305L49.3582 40.2922L49.0359 40.131L48.7827 39.8776L48.3453 39.6702L48.1841 39.509V39.8545V40.2001L48.3453 40.4996L48.6446 40.753L48.4834 41.1446L48.2762 41.2829V41.4672H48.092V41.6284H47.8388L47.6086 41.8588V42.0431L47.4244 42.3426V42.7343L47.2863 43.0568H47.1942H46.8028L46.5266 43.2641L46.2273 43.4484H46.0431L45.882 43.7249L45.6287 43.8631V43.5867V43.2872H45.3525H45.0532H44.7309L44.5007 43.7249L44.0863 43.8401H43.6489L43.4417 44.2087L43.0733 44.416V44.6925L42.8892 44.9229H42.7741L43.0043 45.1532L42.659 45.2684H42.3136H41.9683V45.5219V45.7753L41.7381 45.4067L41.5539 44.992L41.3007 45.3376V45.7292L41.1856 46.0978H40.8633L40.541 45.9826H40.2417L39.9424 46.0978H39.1366H38.8143H37.9856H37.5942L37.2719 45.8444L37.0187 46.2821H36.8345H36.5122L36.2129 46.4203H35.8906L35.6834 46.1669V45.8444L35.8446 45.7062L36.1899 45.9365H36.5352H36.8345V45.5679L36.5813 45.3836L36.3741 45.1302L36.1208 44.9229L35.8215 44.7616L35.6143 44.3469L35.292 44.2317H34.5323L34.2561 44.3469H33.9568L33.5194 44.5312H33.151L32.8287 44.6925L32.4834 44.8538H32.2302H31.9079L31.6316 45.1302L31.3554 45.3836L31.2172 45.7062L31.5165 46.1208V46.4203V46.7429V47.0424L31.7928 47.2727L32.1841 47.1115L32.5064 46.9272L32.8057 46.6738V46.3743V46.0517L33.105 45.8444L33.4503 45.6831L33.7726 45.5679H34.1179L33.8877 45.7753L33.5884 45.9135L33.3122 46.0517L33.1741 46.5125L33.2892 46.7889L33.151 47.1115L32.8978 47.3418H32.5985L32.3683 47.5722L32.1841 47.8256H31.7928H31.4014L31.1482 47.6644L30.9179 47.457L30.7338 47.2497L31.01 47.1345V46.7889L31.1482 46.4434L30.8719 46.6738L30.6187 46.9272L30.3424 47.1806L30.1582 47.0193H29.882L29.6287 46.9041L29.3064 47.0424L29.0072 47.2267H28.6618L28.4546 47.0884H28.1784L28.0402 47.411V47.7335L27.8791 48.033L27.6259 48.2403L27.2575 48.01L27.0043 47.6183L26.705 47.9178L26.4287 48.1712L26.2676 48.4246V48.7241V49.0236V49.3922V49.8069H26.5438H26.8201L27.1194 49.6226L27.3726 49.3461H27.6259L28.0633 49.1158L28.3165 49.277H28.5928L28.869 49.3922V50.0834L28.9841 50.4059L29.1683 50.7284L29.3064 51.074L29.1913 51.3735V51.7191L29.4446 51.4887L29.6748 51.2122V51.3735V50.9818V50.7284V50.475L29.4906 50.0834L29.6287 49.6226L29.882 49.876L29.9971 50.2446L30.1812 50.6363V51.074L29.905 51.2353V51.5578V51.8803V52.272V52.7327L30.1582 52.8709L30.3884 53.0322V52.6636H30.5496V51.9264L30.8259 51.7651L31.1482 52.0185H31.5165L31.2402 52.2489V52.5715V52.917V53.2856L31.5165 53.4239L31.8158 53.5621L32.1151 53.7003L32.4143 53.8385H32.7597V54.2071V54.5758L32.4374 54.8061L32.2302 55.0135L31.9769 54.8983L31.4705 54.7831H31.0791L30.8028 54.5758L30.5496 54.3684L30.2733 54.0689L29.9741 53.8385L29.6978 53.6082H29.3985L29.0762 53.9768L28.846 53.7234L28.6618 53.4239L28.4777 53.1244V52.7558L28.1554 52.5715L28.0172 52.2489L28.1323 51.8803V51.4887V51.1201L27.8561 50.9358L27.5568 50.7515L27.1654 51.0279L26.9122 50.7975H26.5669H26.2676V50.3137L25.8532 50.5211H25.4388L25.2086 50.8436L24.9323 51.097H24.541L24.2187 51.3965L24.0575 51.7651L23.9194 52.1568V52.5023L23.7812 52.8249V53.1704V53.516V53.8616V54.2071V54.5527V54.8983V55.2439V55.6816V56.0502V56.4188L23.8964 56.7874V57.133V57.5016L24.0805 57.8471L24.3338 58.1006L24.5179 58.4692L24.7712 58.7456L25.1625 58.8838L25.3237 59.1373L25.4618 59.4137L25.623 59.6671L25.8992 59.9436L26.1295 60.2431L26.2676 60.5886V60.9803V61.3719L26.3827 61.7405L26.5899 62.0861V62.4317L26.7741 62.7542V63.0998L26.9582 63.4223L27.1424 63.7218L27.3726 63.9983V64.2978V64.5972V64.7585V65.1271V65.4957L27.6028 65.7491L27.8791 65.9795L28.0863 66.2329L28.2705 66.5094L28.4777 66.7859L28.6848 67.0623L28.892 67.3388L29.1453 67.5691L29.3755 67.8226C29.9583 68.3234 30.5736 68.7851 31.2172 69.2048H31.3784H31.6316H31.9309H32.2302L32.5525 68.9514V68.5828L32.7597 68.3294V68.099V67.8226L32.9899 67.6843H33.3122H33.6345L33.8417 67.4079L33.7036 67.0623V66.6937L33.5884 66.3481L33.4043 66.0256V65.657L33.2661 65.3114L33.5424 65.0119L33.8647 64.8046L34.233 64.6664L34.5323 64.4129L34.8086 64.1365L35.1769 63.9752L35.5453 63.86L35.8676 63.6297V63.261L36.0518 62.9616L36.2589 62.639L36.5352 62.4086V62.0861L36.305 61.9479L36.0748 61.8097H35.6834H35.3151H34.5323L34.2561 61.5102V61.2568H34.6244H34.9928H35.3381H35.7064H36.0748H36.4201L36.7424 61.1185L37.0647 60.9112H37.5712L37.8935 60.796H38.1928L38.3769 60.4965L38.5611 60.197L38.7913 59.9206L38.9985 59.6671L38.8834 59.3676V59.0681L38.5841 58.7687L38.3769 58.4231H38.7223L39.0215 58.5844H39.3669L39.6431 58.7456L39.9424 58.6304H40.2877H40.633H40.9554V58.7687L41.2086 58.976L41.5079 59.0912L41.7381 59.3216L42.0374 59.6441L42.3366 59.9206H42.6359L42.7971 60.1509L42.9813 60.3583V60.6808V61.3719L43.1884 61.5793L43.4417 61.7636V62.1322L43.6259 62.3856L43.787 62.616L43.9482 62.8694H44.2014L44.3625 63.0998L44.5928 62.8464L44.4316 62.5469L44.5928 62.2243L44.8 61.9479V61.6023V60.9112L44.9841 60.6117L45.2604 60.3583L45.5827 60.174L45.928 60.0357L46.1812 59.5519L46.5496 59.3446L46.7798 59.0221L47.1021 58.8147L47.4474 58.6765H47.8618L48.1611 58.8838L48.3683 59.1603L48.5295 59.4828L48.7366 59.7823H49.128H49.5194L49.7266 60.0818V60.4274V60.773V61.1416V61.4871L49.8647 61.8097L50.164 61.9709V62.3626L50.3021 62.7081L50.141 62.5469H49.8187H49.5194H49.1741V62.7312L49.4964 63.0076L49.9338 63.1459V63.4223L50.2561 63.5836V63.8831L50.3712 64.1365H50.6705H51.0158L51.223 64.3438ZM31.1021 64.0443L30.8259 63.6757H31.0561V63.5605L31.2633 63.7448L31.1021 64.0443ZM33.4043 60.5195L33.1971 60.0357L32.9669 59.7823L32.7827 59.5059L32.5985 59.1833V58.8378L32.8057 58.5383L32.6446 58.2388L32.2302 58.1006V57.778V57.4785L32.092 57.179V56.8565V56.534H32.3683L32.6446 56.7413L32.8057 57.0408V57.4094V57.778L32.9208 58.1236L33.082 58.4461L33.2201 58.7456L33.4503 59.0221L33.6345 59.3216L33.7956 59.7362V60.4043V60.7269L33.4043 60.5195ZM34.5323 53.0322H34.0719L33.7726 52.8709H33.4273L33.1741 52.6406H32.8518H32.4834H32.1151H31.7467L32 52.4102L32.1381 52.0877V51.7882L32.3453 51.5117H32.5985H32.8287L32.9669 51.7651V52.0185L32.7827 52.1337L33.105 52.4332L33.5424 52.272L33.151 52.0416L33.4043 51.8342H33.7266H34.0259V52.0877L33.7726 52.318L33.9798 52.5715L34.187 52.8018L34.3942 53.0553L34.5323 53.0322ZM36.3971 52.5254V52.2489L36.7654 52.1107H37.0877H37.341L37.0647 52.3641L36.7424 52.5484V53.0783L36.8805 53.3778L36.9956 53.6773V53.9998V54.3223V54.6679H36.6964H36.351L36.1899 54.3223L36.0748 53.9307L36.328 53.7464L36.1899 53.4008L36.0748 53.0783V52.7327L36.3971 52.5254ZM37.3179 58.4922H36.9956L36.6964 58.377L36.4892 58.1236L36.305 57.8471L36.0978 57.5937L35.9597 57.2712L35.7064 57.0408H35.9366H36.1899V57.3403L36.328 57.6168L36.5352 57.8471L36.8345 57.9393H37.2028L37.5712 58.0775L37.3179 58.4922ZM46.6877 41.9971L47.1251 42.1353V41.8127H46.7568L46.6877 41.9971ZM28.4086 50.452H28.2014V51.0279L28.4086 50.7054V50.452ZM30.4805 53.7925H30.6647L30.5266 53.539L30.4805 53.7925ZM28.6848 52.0877V52.3641L28.9611 52.1337V51.8112H28.6618V51.5808V51.7882L28.6848 52.0877ZM55.6201 61.0033L55.8273 60.796V60.5426L55.505 60.8421L55.6201 61.0033ZM54.6762 51.3504H54.423V51.7191H54.7453L54.6762 51.3504ZM54.2158 57.755L54.5611 57.9393L54.9985 57.7089L54.8143 57.3864L54.6302 57.0408V56.7644V56.5109H54.3539V56.9026V57.2942L54.2158 57.755ZM54.2158 59.2294L54.3769 58.9299L54.0777 59.0912V59.4828L54.2158 59.2294ZM54.9064 58.2849H54.7683V58.5152L54.9064 58.6535V58.2849ZM54.6071 49.1849V49.5074V49.853V50.1985V50.5211V50.8436V51.2122H54.9525L55.1827 50.9588V50.6363V50.3137V49.6226V49.3001L54.9985 48.9775L54.8834 48.655L54.6992 48.3094L54.8374 48.7011L54.6071 49.1849ZM52.305 64.1135H51.9136H51.4992L51.269 64.3899H51.8676H52.1669H52.5352L52.8805 64.2286L53.1338 63.9291H52.6273L52.305 64.1135ZM52.0978 57.7089L51.9366 57.9854L52.259 58.1466V57.8932V57.6398L52.0978 57.7089ZM53.8705 54.9213V55.2439V55.5894V55.1978V54.8522V54.9213ZM45.0302 62.5469H44.7079L44.5237 62.8003V63.0998L44.6848 63.3762V63.5145H45.0992V63.1919V62.8464L45.0302 62.5469ZM53.8705 47.8948L54.0086 48.1943L54.1467 47.9408V47.6413V47.3418L53.8935 47.2036H53.6402L53.7784 47.5262L53.8705 47.8948ZM57.0474 58.7456L56.8402 59.0912L56.633 59.4137L56.5179 59.8054L56.2877 59.6211L56.1036 59.8745V60.174L56.2417 60.4965L56.61 60.2431V60.4274L56.7712 60.0818L56.9093 59.7132L57.0474 59.4828C57.0474 59.3446 57.0474 59.2294 57.0474 59.0912V58.6995V58.7456ZM55.0906 59.2064H55.3899V58.8608V58.5152V58.1697L55.2057 58.5383L55.0676 58.9069L54.8374 59.2525L55.0906 59.2064ZM54.3539 63.261L54.469 63.0076L54.2388 63.1689L54.0546 63.3993L53.9395 63.6757L54.1467 63.4454L54.3539 63.261ZM43.8561 43.4945H44.2014L43.741 43.3333L43.8561 43.4945ZM53.5482 62.5469L53.7093 62.2474V61.9248L53.8705 61.6023L54.0086 61.3028V60.9573V60.6347L54.1928 60.4043L54.3309 60.1279L54.0777 59.9436H53.7784L53.6633 60.2892L53.5021 60.6117L53.3179 60.9342L53.0417 61.3259L52.8575 61.6023L52.5813 61.7866L52.351 62.017L52.1438 62.2704V62.5699L52.328 62.8694H52.6733H53.0187H53.387L53.5482 62.5469ZM36.3741 42.7803V42.4578L36.0518 42.3426L35.7755 42.5039L35.5683 42.7343V43.0568H36.0057L36.3971 42.8955L36.5122 43.0338L37.0187 42.8955L36.7194 42.6652L36.3741 42.7803ZM31.7697 39.9467L31.4935 40.131L31.1942 40.2922L30.964 40.5226L30.5956 40.776L30.3884 41.1907L30.7107 41.0525L30.964 40.8912H31.2402V41.0525L31.5856 41.1907L31.7697 41.4672V41.7897H32.2302H32.5525L32.8057 41.5824H33.128L33.4043 41.4672L33.8187 41.3059H34.0949H34.3482H34.6935H35.3611V41.0525V40.8221L35.7064 40.6148V40.2231L36.0287 39.8315H35.8906L36.0748 39.4168H35.8215L36.0057 39.2325V38.9791H36.2129H35.8906H35.5683L35.269 39.1173L34.9697 39.2555L34.6474 39.3938L34.3482 39.532H34.0259L33.7266 39.6933L33.3352 39.8315L33.0129 39.9697L32.7366 40.131V40.0158H32.4143L32.1151 40.1771L31.7697 39.9467ZM30.7107 42.4809L30.5036 42.7343V43.0568H30.8028H31.0791L31.2402 42.6191L30.941 42.2274L30.7107 42.4809ZM39.8273 44.8077H40.1496L40.4489 44.6003H40.7942V44.3469L40.4489 44.2317H40.0805L39.7813 44.416L39.4129 44.5312L39.0906 44.7155L38.9064 45.0611L38.7683 45.4067L39.0215 45.5219L39.2518 45.6831L39.3899 45.5449V45.1993L39.6431 44.9689L39.8273 44.8077ZM43.4187 42.8955H43.1194V43.3102H43.741L43.5798 43.0568L43.4187 42.8955ZM55.7582 59.9436V59.6671V59.9666V60.2431V59.9436ZM30.8949 40.154L31.2402 39.9697L31.5395 39.7393L31.9079 39.6011L32.2302 39.509L32.3913 39.2555L32.046 39.4398C31.464 39.7656 30.9027 40.1272 30.3654 40.5226L30.6647 40.3844L30.8949 40.154ZM54.9295 60.6578L54.5381 60.8421L54.4 61.1646L54.2158 61.4641L54.1007 61.8097V62.1322V62.4547L54.423 62.3165L54.6302 62.017V61.6714V61.3028H54.469L54.6992 61.0494L54.9064 60.7269L55.2518 60.2431L54.9295 60.6578ZM28.7309 46.0517L29.0302 45.9365L29.2834 45.7292V45.4067L28.9611 45.5219L28.6618 45.6831L28.3625 45.8674V46.0978L28.7309 46.0517ZM54.6302 63.0537L54.8834 62.6851L55.0676 62.3165L54.8374 62.6851L54.6302 63.0537ZM29.3064 46.1439L29.0072 46.4203L28.7309 46.6507L28.4546 46.9041V47.2036H28.869H29.2834L29.4676 46.8581V46.4894L29.6057 46.1439L29.882 45.8905L30.0892 45.591V45.2224H29.8129L29.5597 45.3376V45.637L29.3064 45.8905V46.1439ZM29.3064 41.2829L29.0072 41.5824L29.3295 41.2829H29.3064Z" fill="white"/>
<path d="M26.3602 84.0409C26.3602 84.0409 13.5833 76.9452 14.5732 65.7948C13.9519 68.2588 14.1957 70.8615 15.2638 73.167C15.2638 73.167 9.04801 70.8632 14.4351 61.5098C15.3618 62.1268 16.1527 62.9269 16.7595 63.8608C17.3662 64.7946 17.7759 65.8427 17.9634 66.9407C18.151 68.0387 18.1124 69.1634 17.8501 70.246C17.5878 71.3285 17.1072 72.346 16.4379 73.2361C17.6746 75.6377 19.5875 77.624 21.9401 78.9495C23.8451 80.0738 25.6753 81.3205 27.4192 82.6816C27.4489 82.8418 27.4442 83.0064 27.4056 83.1646C27.3669 83.3228 27.2952 83.4711 27.1952 83.5995C27.0951 83.728 26.9689 83.8337 26.825 83.9098C26.6811 83.9859 26.5227 84.0305 26.3602 84.0409Z" fill="white"/>
<path d="M16.5755 76.3683C15.0051 78.1986 12.78 79.3397 10.3782 79.5464C7.97633 79.7532 5.58922 79.0091 3.72949 77.4741C3.72949 77.4741 9.69208 71.7607 15.7698 74.8939C13.8563 74.9164 11.9679 75.332 10.2216 76.1149C12.3261 75.6509 14.5146 75.7382 16.5755 76.3683Z" fill="white"/>
<path d="M19.7293 76.0459C19.4562 75.4175 19.3189 74.7384 19.3265 74.0532C19.334 73.368 19.4863 72.6922 19.7733 72.07C20.0602 71.4478 20.4754 70.8934 20.9915 70.4431C21.5077 69.9928 22.1131 69.6567 22.7681 69.457C22.7681 69.457 23.4818 75.6082 19.7293 76.0228" fill="white"/>
<path d="M63.3096 52.7099C62.9036 47.0976 60.4447 41.8319 56.4032 37.9195C54.2361 35.8147 51.6996 34.1277 48.9212 32.9434C48.6219 33.7958 48.0463 34.6942 48.2766 35.0168C48.783 35.754 48.2766 36.1226 48.0003 36.5603C47.724 36.998 47.2866 36.5603 46.9413 36.5603C43.6441 35.286 40.0535 34.9732 36.5859 35.6583C33.1183 36.3433 29.9158 37.9981 27.3499 40.4307C24.6723 42.7383 22.7146 45.7681 21.7104 49.1586C20.7063 52.5491 20.698 56.1571 21.6866 59.5522C22.2861 62.0147 23.3867 64.3271 24.9197 66.3448C26.4526 68.3624 28.385 70.042 30.596 71.2785L31.7931 71.9696C31.5399 72.4534 31.3557 73.1676 31.1485 73.1906C29.8593 73.1906 30.2046 74.4116 29.4679 75.1488C32.5132 76.5589 35.7897 77.4021 39.137 77.6369V80.0789H41.6463V77.7751C44.7243 77.5834 47.7332 76.7789 50.4966 75.409C53.2601 74.039 55.7226 72.1311 57.74 69.7968C59.7575 67.4626 61.2892 64.749 62.2456 61.815C63.2019 58.881 63.5637 55.7856 63.3096 52.7099ZM27.9945 67.5463C25.0134 64.712 23.0947 60.9396 22.5591 56.8597C22.0235 52.7797 22.9034 48.6394 25.0518 45.1307C27.2001 41.622 30.4868 38.9575 34.3625 37.5824C38.2382 36.2073 42.4681 36.2051 46.3453 37.576C50.2224 38.9469 53.512 41.6079 55.6641 45.1143C57.8162 48.6207 58.7006 52.76 58.1693 56.8406C57.6381 60.9211 55.7234 64.6955 52.7453 67.533C49.7673 70.3706 45.9062 72.0993 41.8075 72.4303H41.1168C40.0559 72.4879 38.9918 72.4416 37.9399 72.2921C36.9233 72.1651 35.9212 71.9414 34.9471 71.624C34.4636 71.624 33.9341 71.3245 33.4046 71.2324V71.0941C32.735 70.8166 32.0817 70.5012 31.4478 70.1496C31.1378 69.9918 30.8379 69.8148 30.5499 69.6197C29.6103 69.0149 28.7314 68.3206 27.9255 67.5463M59.0276 63.5147C56.7162 68.3699 52.61 72.1365 47.5758 74.0192C42.5415 75.9019 36.9733 75.7535 32.0463 73.6053L32.6449 72.3152C35.5427 73.552 38.6997 74.0581 41.8386 73.789C44.9775 73.5199 48.0024 72.4838 50.6478 70.7716C54.1873 68.5391 56.8843 65.1919 58.314 61.257C59.9419 56.778 59.8734 51.8573 58.1215 47.4254C56.3695 42.9935 53.0554 39.3577 48.8061 37.2054L49.4967 35.777C54.4258 38.177 58.2036 42.4339 60.0029 47.6154C61.8023 52.797 61.4764 58.4809 59.0967 63.4225" fill="white"/>
<path d="M47.2172 82.0371H33.5654C32.4106 82.0639 31.3081 82.5241 30.4766 83.3264C29.645 84.1287 29.1452 85.2144 29.0762 86.3682H51.5683C51.5019 85.2373 51.0216 84.1704 50.2189 83.3715C49.4163 82.5725 48.3477 82.0975 47.2172 82.0371Z" fill="white"/>
<path d="M45.6064 81.2064C45.1186 80.9099 44.5799 80.7068 44.0179 80.6074C41.5776 80.6074 39.1143 80.6074 36.674 80.6074C36.1029 80.7253 35.5573 80.9437 35.0625 81.2525L35.2006 81.575H45.4683L45.6064 81.2064Z" fill="white"/>
</g>
<defs>
<clipPath id="clip0_640_3711">
<rect width="80" height="95.7225" fill="white" transform="translate(0 0.34375)"/>
</clipPath>
</defs>
</svg>
