<svg width="500" height="359" viewBox="0 0 500 359" fill="none" xmlns="http://www.w3.org/2000/svg">
<path d="M107.587 357.746C107.581 357.764 107.581 357.788 107.575 357.806H68.8936C68.1654 357.347 67.4492 356.87 66.7449 356.386C62.3959 353.442 58.3796 350.034 54.7664 346.223C50.6245 341.813 47.2026 336.779 44.6262 331.306C39.5232 320.426 37.9535 308.05 41.9046 296.867L41.905 296.864L41.9063 296.862L41.9082 296.861L41.9105 296.861C42.006 296.58 42.1135 296.294 42.2209 296.008C42.382 296.288 42.5372 296.562 42.7043 296.837L42.7103 296.843C44.928 300.572 47.4428 304.116 50.2305 307.442V307.448C50.4453 307.704 50.6602 307.961 50.881 308.211L50.8814 308.213L50.8827 308.215L50.8847 308.217L50.887 308.217C57.6557 316.125 65.8334 322.71 75.0052 327.638C75.035 327.655 75.0589 327.667 75.0887 327.685C75.1193 327.704 75.1512 327.72 75.1842 327.733C75.1902 327.739 75.1962 327.739 75.2021 327.745C77.2373 328.842 79.3263 329.844 81.451 330.751V330.757C83.1222 331.479 84.8231 332.135 86.5361 332.743C90.1887 334.026 94.1278 335.195 97.6253 336.883C101.027 338.523 104.023 340.652 105.975 343.855C106.124 344.117 106.273 344.374 106.411 344.636L105.271 352.521L107.545 352.51L107.33 356.386L107.27 357.508L107.587 357.746Z" fill="#007DB6"/>
<path d="M98.0373 357.808H97.2196C97.142 357.331 97.0644 356.859 96.9749 356.388C96.7431 355.099 96.4281 353.826 96.0319 352.577C95.8529 352.016 95.6499 351.467 95.4172 350.925C94.0982 347.835 91.8302 345.121 88.476 344.215C87.4995 343.956 86.4958 343.814 85.4858 343.791C83.4864 343.708 81.4572 343.964 79.4697 344.071C78.9803 344.095 78.4849 344.113 78.0075 344.107H77.9955C75.4108 344.15 72.8474 343.633 70.4814 342.592C67.5593 341.194 64.8987 339.306 62.615 337.01C61.1207 335.58 59.7004 334.075 58.3596 332.5V332.494C58.1805 332.298 58.0074 332.095 57.8344 331.886C54.6744 328.091 51.9125 323.982 49.5921 319.623C48.409 317.42 47.3471 315.154 46.4109 312.835C46.3985 312.815 46.3885 312.793 46.3811 312.77C44.2866 307.657 42.7847 302.322 41.9048 296.868L41.9052 296.866L41.9065 296.864L41.9085 296.863L41.9108 296.862C41.863 296.618 41.8272 296.367 41.7914 296.123C41.7138 295.616 42.5195 295.592 42.5912 296.099C42.627 296.35 42.6628 296.588 42.7046 296.839L42.7105 296.845C43.5574 302.067 44.9785 307.179 46.9481 312.09V312.096C47.0496 312.346 47.151 312.591 47.2525 312.835C50.054 319.626 53.8892 325.944 58.6222 331.564L58.6282 331.576C58.6759 331.636 58.7297 331.689 58.7833 331.749C58.7856 331.751 58.7873 331.754 58.7884 331.757C58.7894 331.76 58.7897 331.764 58.7893 331.767C58.7953 331.761 58.7953 331.767 58.7953 331.767C59.8994 333.073 61.0573 334.326 62.2629 335.542C64.4922 337.896 67.0783 339.885 69.9263 341.435C72.3044 342.653 74.9357 343.294 77.6076 343.308C77.8762 343.308 78.1447 343.314 78.4133 343.308C78.6282 343.308 78.843 343.302 79.0579 343.29C81.0812 343.195 83.1343 342.938 85.1695 342.974C86.095 342.992 87.0174 343.088 87.9269 343.26C89.4207 343.58 90.83 344.212 92.0622 345.115C93.2945 346.017 94.3219 347.17 95.077 348.497C95.8362 349.779 96.4412 351.147 96.8795 352.571C97.0287 353.036 97.154 353.507 97.2793 353.985V353.99C97.4703 354.754 97.6374 355.529 97.7807 356.311C97.7876 356.336 97.7916 356.362 97.7926 356.388C97.8821 356.859 97.9597 357.337 98.0373 357.808Z" fill="white"/>
<path d="M58.6649 332.276C56.6191 333.799 54.0983 334.545 51.5527 334.382C49.0072 334.218 46.6025 333.156 44.7683 331.385C44.3984 331.025 44.9404 330.434 45.3108 330.794C47.0157 332.447 49.2558 333.436 51.6265 333.583C53.9973 333.73 56.3426 333.026 58.2392 331.597C58.6517 331.286 59.075 331.968 58.6649 332.276Z" fill="white"/>
<path d="M77.5737 343.554C78.3746 338.405 77.204 333.143 74.2954 328.818C74.0069 328.39 74.6872 327.965 74.9753 328.393C77.9937 332.899 79.2007 338.377 78.3555 343.734C78.2746 344.244 77.4932 344.062 77.5737 343.554Z" fill="white"/>
<path d="M46.7314 312.202C47.6458 311.777 48.4405 311.133 49.044 310.326C49.6475 309.518 50.0409 308.574 50.189 307.578C50.2634 307.066 51.0447 307.249 50.9708 307.757C50.8021 308.858 50.3663 309.9 49.7015 310.793C49.0367 311.686 48.1631 312.403 47.1571 312.881C47.0661 312.934 46.9583 312.95 46.8556 312.927C46.7529 312.903 46.6631 312.841 46.6043 312.754C46.5484 312.664 46.5304 312.555 46.5542 312.452C46.578 312.348 46.6417 312.258 46.7314 312.202Z" fill="white"/>
<path d="M113.423 331.57L113.095 334.594L107.873 334.516L107.085 339.968L106.948 340.904V340.91L106.411 344.638L105.271 352.523L107.545 352.511L107.33 356.388L107.27 357.509L107.586 357.748L107.658 357.807L107.682 357.825C107.616 357.956 107.545 358.088 107.473 358.225C107.515 358.082 107.545 357.951 107.575 357.807H92.4626C92.1821 357.336 91.9075 356.865 91.6389 356.388C89.3069 352.332 87.2511 348.123 85.4856 343.791C85.3781 343.522 85.2647 343.254 85.1692 342.98V342.974C83.5994 339.01 82.3558 334.924 81.4509 330.758V330.752C80.9606 328.471 80.5881 326.165 80.3349 323.846C79.6879 317.85 79.988 311.789 81.2241 305.886C81.2341 305.857 81.2421 305.827 81.248 305.797C83.6294 294.53 89.4366 284.116 98.6339 277.519C99.0159 277.233 99.4098 276.964 99.8096 276.702C99.8156 276.696 99.8156 276.696 99.8216 276.696C99.8224 276.696 99.8232 276.696 99.8239 276.696C99.8246 276.695 99.8253 276.695 99.8258 276.694C99.8264 276.694 99.8268 276.693 99.8271 276.692C99.8274 276.692 99.8276 276.691 99.8275 276.69C100.078 276.529 100.323 276.368 100.574 276.207C100.538 276.529 100.496 276.851 100.466 277.173C99.9839 281.482 99.8562 285.823 100.084 290.152V290.164C100.09 290.498 100.108 290.832 100.132 291.172V291.184C100.783 301.586 103.355 311.778 107.718 321.245C107.725 321.27 107.735 321.294 107.748 321.317C107.76 321.346 107.771 321.37 107.783 321.4C109.416 324.921 111.301 328.32 113.423 331.57Z" fill="#007DB6"/>
<path d="M100.824 276.5C100.704 276.72 100.58 276.947 100.467 277.172C99.5757 278.857 98.7553 280.577 98.0057 282.334C96.6661 285.436 95.5518 288.631 94.6714 291.893C94.6001 292.148 94.5298 292.408 94.4653 292.667C92.605 299.785 91.8609 307.148 92.2593 314.494C92.2597 314.566 92.2649 314.632 92.2712 314.704C92.3661 316.418 92.5307 318.127 92.7649 319.83C93.1255 323.05 93.991 326.193 95.3295 329.145C95.5169 329.53 95.715 329.908 95.9229 330.272C96.4402 331.162 97.0408 332.001 97.7164 332.778C98.2035 333.346 98.7284 333.88 99.2875 334.378C99.6246 334.683 99.9725 334.981 100.336 335.263C100.546 335.427 100.761 335.589 100.977 335.752C101.155 335.873 101.329 336 101.507 336.121C103.36 337.389 105.358 338.516 107.086 339.968L106.95 340.905C105.267 339.391 103.235 338.245 101.366 336.993C100.195 336.218 99.0988 335.337 98.0913 334.359C97.9592 334.225 97.8211 334.091 97.6938 333.95C97.012 333.247 96.3963 332.484 95.8544 331.669C95.5786 331.263 95.3184 330.841 95.0729 330.399C93.5893 327.525 92.6049 324.42 92.1617 321.216C91.8297 319.172 91.6009 317.113 91.4762 315.046C91.4542 314.777 91.4392 314.514 91.429 314.243C91.1953 309.313 91.4657 304.371 92.236 299.495C93.2086 293.311 94.9716 287.276 97.4816 281.54C98.1985 279.898 98.9803 278.281 99.8269 276.689C99.9347 276.471 100.049 276.258 100.169 276.037C100.412 275.584 101.067 276.047 100.824 276.5Z" fill="white"/>
<path d="M91.8561 315.057C89.3054 315.042 86.843 314.121 84.9089 312.459C82.9748 310.797 81.6948 308.503 81.2975 305.984C81.2189 305.475 82.0078 305.329 82.0866 305.839C82.4522 308.185 83.6447 310.322 85.449 311.866C87.2532 313.41 89.5503 314.259 91.9256 314.259C92.4418 314.259 92.3694 315.058 91.8561 315.057Z" fill="white"/>
<path d="M100.16 335.439C103.902 331.81 106.137 326.904 106.42 321.701C106.448 321.186 107.247 321.256 107.22 321.771C106.915 327.185 104.578 332.285 100.676 336.053C100.304 336.412 99.79 335.796 100.16 335.439Z" fill="white"/>
<path d="M94.4213 291.849C95.407 292.061 96.4298 292.024 97.3979 291.743C98.366 291.462 99.249 290.944 99.9677 290.238C100.335 289.874 100.849 290.491 100.484 290.852C99.686 291.629 98.7101 292.199 97.6412 292.512C96.5723 292.825 95.443 292.872 94.3518 292.648C94.2472 292.635 94.1513 292.584 94.0835 292.503C94.0157 292.422 93.9812 292.319 93.9869 292.214C93.9967 292.108 94.0478 292.011 94.1291 291.942C94.2104 291.874 94.3154 291.841 94.4213 291.849Z" fill="white"/>
<path d="M217.918 358.29C217.918 358.383 217.9 358.476 217.864 358.562C217.829 358.648 217.777 358.726 217.711 358.792C217.645 358.858 217.566 358.911 217.48 358.946C217.393 358.982 217.301 359 217.208 359H49.9202C49.8269 359 49.7346 358.981 49.6484 358.946C49.5622 358.91 49.4839 358.858 49.418 358.792C49.352 358.726 49.2997 358.648 49.264 358.561C49.2283 358.475 49.21 358.383 49.21 358.29C49.21 358.197 49.2283 358.104 49.264 358.018C49.2997 357.932 49.352 357.854 49.418 357.788C49.4839 357.722 49.5622 357.67 49.6484 357.634C49.7346 357.598 49.8269 357.58 49.9202 357.58H217.208C217.301 357.58 217.393 357.598 217.48 357.634C217.566 357.669 217.644 357.721 217.71 357.787C217.777 357.853 217.829 357.932 217.864 358.018C217.9 358.104 217.918 358.197 217.918 358.29Z" fill="#CCCCCC"/>
<path d="M467.744 66.388H359.588C359.124 66.3886 358.665 66.2979 358.236 66.121C357.808 65.9441 357.418 65.6845 357.09 65.3572C356.762 65.0298 356.502 64.641 356.325 64.213C356.147 63.785 356.056 63.3262 356.056 62.8629C356.056 62.3996 356.147 61.9409 356.325 61.5129C356.502 61.0849 356.762 60.6961 357.09 60.3687C357.418 60.0413 357.808 59.7818 358.236 59.6049C358.665 59.428 359.124 59.3373 359.588 59.3379H467.744C468.208 59.3373 468.667 59.428 469.095 59.6049C469.524 59.7818 469.913 60.0413 470.241 60.3687C470.569 60.6961 470.83 61.0849 471.007 61.5129C471.185 61.9409 471.276 62.3996 471.276 62.8629C471.276 63.3262 471.185 63.785 471.007 64.213C470.83 64.641 470.569 65.0298 470.241 65.3572C469.913 65.6845 469.524 65.9441 469.095 66.121C468.667 66.2979 468.208 66.3886 467.744 66.388Z" fill="#A0A0A0"/>
<path d="M467.744 80.318H359.587C358.653 80.3168 357.757 79.9449 357.096 79.2839C356.435 78.6229 356.064 77.727 356.064 76.7928C356.064 75.8587 356.435 74.9627 357.096 74.3017C357.757 73.6407 358.653 73.2688 359.587 73.2676H467.744C468.679 73.2688 469.575 73.6407 470.235 74.3017C470.896 74.9627 471.267 75.8587 471.267 76.7928C471.267 77.727 470.896 78.6229 470.235 79.2839C469.575 79.9449 468.679 80.3168 467.744 80.318Z" fill="#A0A0A0"/>
<path d="M406.471 94.2477H359.587C358.653 94.2465 357.757 93.8746 357.096 93.2136C356.435 92.5526 356.064 91.6566 356.064 90.7225C356.064 89.7883 356.435 88.8924 357.096 88.2314C357.757 87.5704 358.653 87.1985 359.587 87.1973H406.471C406.934 87.1967 407.394 87.2874 407.822 87.4643C408.251 87.6412 408.64 87.9007 408.968 88.2282C409.296 88.5556 409.556 88.9444 409.734 89.3724C409.911 89.8004 410.003 90.2592 410.003 90.7225C410.003 91.1858 409.911 91.6446 409.734 92.0726C409.556 92.5006 409.296 92.8894 408.968 93.2168C408.64 93.5442 408.251 93.8038 407.822 93.9807C407.394 94.1576 406.934 94.2483 406.471 94.2477Z" fill="#A0A0A0"/>
<path d="M467.745 145.374H359.588C358.652 145.374 357.755 145.003 357.094 144.342C356.432 143.681 356.061 142.784 356.061 141.849C356.061 140.914 356.432 140.018 357.094 139.357C357.755 138.696 358.652 138.324 359.588 138.324H467.745C468.68 138.324 469.577 138.696 470.239 139.357C470.9 140.018 471.272 140.914 471.272 141.849C471.272 142.784 470.9 143.681 470.239 144.342C469.577 145.003 468.68 145.374 467.745 145.374Z" fill="#E6295C"/>
<path d="M467.745 159.304H359.588C358.653 159.304 357.755 158.933 357.094 158.272C356.432 157.611 356.061 156.714 356.061 155.779C356.061 154.844 356.432 153.948 357.094 153.286C357.755 152.625 358.653 152.254 359.588 152.254H467.745C468.68 152.254 469.577 152.625 470.239 153.286C470.901 153.948 471.272 154.844 471.272 155.779C471.272 156.714 470.901 157.611 470.239 158.272C469.577 158.933 468.68 159.304 467.745 159.304Z" fill="#E6295C"/>
<path d="M406.471 173.232H359.588C358.653 173.232 357.755 172.861 357.094 172.2C356.432 171.538 356.061 170.642 356.061 169.707C356.061 168.772 356.432 167.875 357.094 167.214C357.755 166.553 358.653 166.182 359.588 166.182H406.471C406.935 166.181 407.394 166.272 407.823 166.449C408.251 166.626 408.641 166.885 408.969 167.213C409.297 167.54 409.557 167.929 409.735 168.357C409.912 168.785 410.003 169.244 410.003 169.707C410.003 170.17 409.912 170.629 409.735 171.057C409.557 171.485 409.297 171.874 408.969 172.201C408.641 172.529 408.251 172.788 407.823 172.965C407.394 173.142 406.935 173.233 406.471 173.232Z" fill="#E6295C"/>
<path d="M467.745 228.947H359.588C359.125 228.947 358.666 228.855 358.238 228.678C357.81 228.501 357.421 228.241 357.094 227.914C356.766 227.587 356.506 227.198 356.329 226.771C356.152 226.343 356.061 225.884 356.061 225.422C356.061 224.959 356.152 224.5 356.329 224.073C356.506 223.645 356.766 223.256 357.094 222.929C357.421 222.602 357.81 222.342 358.238 222.165C358.666 221.988 359.125 221.896 359.588 221.896H467.745C468.208 221.896 468.666 221.988 469.094 222.165C469.522 222.342 469.911 222.602 470.239 222.929C470.566 223.256 470.826 223.645 471.003 224.073C471.181 224.5 471.272 224.959 471.272 225.422C471.272 225.884 471.181 226.343 471.003 226.771C470.826 227.198 470.566 227.587 470.239 227.914C469.911 228.241 469.522 228.501 469.094 228.678C468.666 228.855 468.208 228.947 467.745 228.947Z" fill="#A0A0A0"/>
<path d="M467.744 242.875H359.587C358.653 242.873 357.757 242.502 357.096 241.841C356.435 241.18 356.064 240.284 356.064 239.349C356.064 238.415 356.435 237.519 357.096 236.858C357.757 236.197 358.653 235.825 359.587 235.824H467.744C468.679 235.825 469.575 236.197 470.235 236.858C470.896 237.519 471.267 238.415 471.267 239.349C471.267 240.284 470.896 241.18 470.235 241.841C469.575 242.502 468.679 242.873 467.744 242.875Z" fill="#A0A0A0"/>
<path d="M406.471 256.804H359.588C358.653 256.804 357.755 256.433 357.094 255.772C356.432 255.111 356.061 254.214 356.061 253.279C356.061 252.344 356.432 251.448 357.094 250.786C357.755 250.125 358.653 249.754 359.588 249.754H406.471C406.935 249.753 407.394 249.844 407.823 250.021C408.251 250.198 408.641 250.457 408.969 250.785C409.297 251.112 409.557 251.501 409.735 251.929C409.912 252.357 410.003 252.816 410.003 253.279C410.003 253.742 409.912 254.201 409.735 254.629C409.557 255.057 409.297 255.446 408.969 255.773C408.641 256.101 408.251 256.36 407.823 256.537C407.394 256.714 406.935 256.805 406.471 256.804Z" fill="#A0A0A0"/>
<path d="M316.439 183.698H251.326C249.581 183.696 247.908 183.003 246.674 181.77C245.44 180.537 244.746 178.865 244.744 177.121V134.433C244.746 132.689 245.44 131.017 246.674 129.784C247.908 128.551 249.581 127.857 251.326 127.855H316.439C318.184 127.857 319.857 128.551 321.091 129.784C322.324 131.017 323.019 132.689 323.021 134.433V177.121C323.019 178.865 322.324 180.537 321.091 181.77C319.857 183.003 318.184 183.696 316.439 183.698Z" fill="#A0A0A0"/>
<path d="M311.863 133.191H255.904C254.315 133.193 252.792 133.824 251.668 134.947C250.544 136.069 249.912 137.591 249.909 139.179V172.377C249.911 173.965 250.544 175.487 251.667 176.61C252.791 177.733 254.315 178.365 255.904 178.368H291.587C298.551 178.361 305.229 175.593 310.153 170.671C315.078 165.75 317.848 159.077 317.854 152.117V139.179C317.853 137.592 317.221 136.07 316.098 134.947C314.974 133.824 313.451 133.193 311.863 133.191Z" fill="white"/>
<path d="M296.049 144.414L295.882 144.716C297.371 141.049 296.017 136.532 293.361 133.767C290.706 131.003 287.014 129.739 283.379 129.238C280.681 128.865 277.88 128.876 275.314 129.864C271.599 131.294 268.76 134.606 266.39 138.05C265.305 139.626 264.239 141.422 264.347 143.392C264.448 145.219 265.533 146.77 266.422 148.321C267.311 149.871 268.053 151.795 267.415 153.487C267.035 154.495 266.232 155.222 265.58 156.047C264.928 156.872 264.391 157.987 264.706 159.022C264.846 159.418 265.086 159.771 265.404 160.046C265.721 160.322 266.104 160.51 266.516 160.593C267.314 160.726 268.129 160.707 268.92 160.536L289.64 157.408C291.047 157.195 292.383 156.646 293.533 155.806C294.682 154.966 295.611 153.861 296.241 152.584C296.87 151.308 297.182 149.898 297.148 148.476C297.115 147.053 296.738 145.66 296.049 144.414Z" fill="#2F2E41"/>
<path d="M280.637 157.263C286.232 157.263 290.767 152.73 290.767 147.139C290.767 141.548 286.232 137.016 280.637 137.016C275.042 137.016 270.507 141.548 270.507 147.139C270.507 152.73 275.042 157.263 280.637 157.263Z" fill="#FFB9B9"/>
<path d="M307.072 173.307C302.582 176.6 297.157 178.373 291.588 178.366H260.502C260.44 178.316 260.38 178.265 260.317 178.211L263.216 170.127C263.872 168.691 264.906 167.461 266.207 166.567C267.509 165.674 269.029 165.152 270.606 165.056L272.45 164.943L276.848 161.153C276.848 161.153 288.697 160.73 288.522 160.527L295.699 164.842L295.693 164.812L298.515 164.985C300.091 165.08 301.612 165.602 302.914 166.495C304.216 167.389 305.249 168.62 305.904 170.056L307.072 173.307Z" fill="#E6295C"/>
<path d="M290.246 137.745C289.985 136.362 288.574 135.73 287.365 135.423C283.858 134.529 280.211 134.329 276.628 134.834C274.016 135.207 271.341 136.027 269.446 138.065C267.918 139.781 267.052 141.985 267.004 144.281C266.927 145.654 267.234 147.022 267.89 148.23C268.184 148.793 268.619 149.27 269.153 149.613C269.687 149.957 270.301 150.157 270.935 150.192L271.057 150.614C276.143 149.906 280.867 146.743 283.843 142.055C283.284 144.048 282.173 145.842 280.637 147.23C284.071 145.857 287.056 143.558 289.259 140.59C289.861 139.792 290.445 138.796 290.246 137.745Z" fill="#2F2E41"/>
<path d="M316.439 104.484H251.326C249.581 104.482 247.908 103.788 246.674 102.555C245.44 101.322 244.746 99.6498 244.744 97.9059V55.2182C244.746 53.4744 245.44 51.8025 246.674 50.5694C247.908 49.3362 249.581 48.6426 251.326 48.6406H316.439C318.184 48.6426 319.857 49.3362 321.091 50.5693C322.324 51.8025 323.019 53.4744 323.021 55.2182V97.9059C323.019 99.6498 322.324 101.322 321.091 102.555C319.857 103.788 318.184 104.482 316.439 104.484Z" fill="#CCCCCC"/>
<path d="M311.863 53.9727H255.904C254.315 53.9746 252.792 54.606 251.668 55.7284C250.544 56.8509 249.912 58.3728 249.909 59.9606V93.1579C249.911 94.7461 250.544 96.2687 251.667 97.3917C252.791 98.5147 254.315 99.1466 255.904 99.1488H291.587C298.552 99.1432 305.23 96.3757 310.155 91.454C315.079 86.5323 317.849 79.8586 317.854 72.8983V59.9606C317.853 58.373 317.221 56.8509 316.098 55.7283C314.974 54.6057 313.451 53.9743 311.863 53.9727Z" fill="white"/>
<path d="M270.434 60.4127C273.07 60.4127 275.206 58.2776 275.206 55.6439C275.206 53.0101 273.07 50.875 270.434 50.875C267.799 50.875 265.662 53.0101 265.662 55.6439C265.662 58.2776 267.799 60.4127 270.434 60.4127Z" fill="#2F2E41"/>
<path d="M278.068 78.5373C284.745 78.5373 290.157 73.1284 290.157 66.4561C290.157 59.7839 284.745 54.375 278.068 54.375C271.392 54.375 265.979 59.7839 265.979 66.4561C265.979 73.1284 271.392 78.5373 278.068 78.5373Z" fill="#2F2E41"/>
<path d="M279.069 78.533C284.494 78.533 288.892 74.1377 288.892 68.7157C288.892 63.2938 284.494 58.8984 279.069 58.8984C273.643 58.8984 269.245 63.2938 269.245 68.7157C269.245 74.1377 273.643 78.533 279.069 78.533Z" fill="#FFB8B8"/>
<path d="M285.741 58.7081C284.02 57.6593 282.048 57.092 280.032 57.0654C278.016 57.0389 276.03 57.554 274.281 58.5571C272.533 59.5601 271.086 61.0142 270.093 62.7672C269.099 64.5203 268.595 66.5079 268.633 68.5223C273.639 69.7783 278.897 70.7394 284.235 68.8227L285.496 65.7394L286.239 68.825C287.865 69.489 289.495 70.0509 291.125 68.8186C291.191 66.8099 290.729 64.8189 289.784 63.0446C288.839 61.2704 287.445 59.775 285.741 58.7081Z" fill="#2F2E41"/>
<path d="M265.991 42.701C264.316 41.9864 262.474 41.7545 260.673 42.0317C258.873 42.3089 257.186 43.084 255.803 44.2694C254.451 45.4886 253.422 47.0231 252.807 48.7363C252.193 50.4494 252.011 52.2879 252.28 54.0879C252.821 57.7491 255.048 60.9018 257.101 63.982C259.154 67.0621 261.16 70.4373 261.158 74.1381C261.156 76.8037 260.097 79.3598 258.212 81.2459C256.327 83.1321 253.771 84.1942 251.104 84.1995C254.234 85.5463 257.501 86.9196 260.906 86.7599C264.311 86.6002 267.879 84.413 268.434 81.0525C268.834 78.6311 267.646 76.2699 266.654 74.0246C265.039 70.366 263.872 66.526 263.178 62.5879C262.847 60.7083 262.631 58.7323 263.244 56.9249C263.732 55.5855 264.638 54.4384 265.829 53.6527C267.019 52.867 268.43 52.4843 269.854 52.5611L270.979 51.5497C271.172 49.7395 270.795 47.9143 269.901 46.3283C269.007 44.7423 267.64 43.4743 265.991 42.701Z" fill="#2F2E41"/>
<path d="M305.055 95.4276C300.988 97.8695 296.332 99.1563 291.588 99.1496H257.913L257.859 99.1049L260.758 91.0178C261.414 89.5823 262.448 88.3521 263.749 87.4593C265.051 86.5665 266.572 86.0447 268.148 85.9499L269.992 85.8367L274.39 82.0463C274.39 82.0463 286.239 81.6205 286.064 81.418L293.241 85.7325L293.235 85.7057L296.057 85.8784C297.633 85.9722 299.154 86.4936 300.456 87.3866C301.758 88.2795 302.792 89.5102 303.446 90.9463L305.055 95.4276Z" fill="#007DB6"/>
<path d="M316.439 267.273H251.326C249.581 267.271 247.908 266.577 246.674 265.344C245.44 264.111 244.746 262.439 244.744 260.695V218.007C244.746 216.263 245.44 214.592 246.674 213.358C247.908 212.125 249.581 211.432 251.326 211.43H316.439C318.184 211.432 319.857 212.125 321.091 213.358C322.324 214.592 323.019 216.263 323.021 218.007V260.695C323.019 262.439 322.324 264.111 321.091 265.344C319.857 266.577 318.184 267.271 316.439 267.273Z" fill="#A0A0A0"/>
<path d="M311.863 216.762H255.904C254.315 216.763 252.792 217.395 251.668 218.517C250.544 219.64 249.912 221.162 249.909 222.75V255.947C249.911 257.535 250.544 259.058 251.667 260.181C252.791 261.304 254.315 261.936 255.904 261.938H291.587C298.551 261.931 305.229 259.163 310.153 254.242C315.078 249.32 317.848 242.647 317.854 235.687V222.75C317.853 221.162 317.221 219.64 316.098 218.517C314.974 217.395 313.451 216.763 311.863 216.762Z" fill="white"/>
<path d="M283.834 237.881C291.278 237.881 297.312 231.85 297.312 224.411C297.312 216.972 291.278 210.941 283.834 210.941C276.39 210.941 270.355 216.972 270.355 224.411C270.355 231.85 276.39 237.881 283.834 237.881Z" fill="#2F2E41"/>
<path d="M283.84 239.652C290.489 239.652 295.88 234.264 295.88 227.619C295.88 220.973 290.489 215.586 283.84 215.586C277.19 215.586 271.799 220.973 271.799 227.619C271.799 234.264 277.19 239.652 283.84 239.652Z" fill="#FFB8B8"/>
<path d="M307.924 256.231C303.285 259.932 297.523 261.945 291.587 261.94H261.56L264.408 253.998C265.063 252.562 266.097 251.332 267.399 250.438C268.701 249.545 270.221 249.023 271.797 248.927L273.642 248.814L278.039 245.024C278.039 245.024 289.889 244.601 289.713 244.398L296.891 248.713L296.885 248.683L299.707 248.856C301.283 248.951 302.804 249.473 304.105 250.367C305.407 251.26 306.441 252.491 307.096 253.927L307.924 256.231Z" fill="#007DB6"/>
<path d="M296.543 223.4C296.628 222.501 296.666 221.599 296.659 220.697C296.708 218.912 296.381 217.137 295.699 215.487C294.86 213.661 293.364 212.216 291.508 211.441C289.668 210.7 287.613 210.702 285.774 211.446C284.157 210.334 282.283 209.652 280.329 209.465C279.35 209.386 278.367 209.546 277.463 209.929C276.558 210.312 275.761 210.909 275.137 211.667C274.87 212.085 274.566 212.479 274.23 212.844C273.268 213.735 271.806 213.606 270.527 213.424C271.101 213.915 271.675 214.407 272.248 214.898C271.554 215.079 270.86 215.26 270.166 215.442C270.976 215.933 271.786 216.424 272.596 216.915C270.244 218.325 269.175 221.404 269.457 224.201C269.725 226.848 271.004 229.269 272.533 231.421C273.143 230.135 273.011 228.596 273.001 227.147C272.995 226.677 273.024 226.208 273.087 225.742C278.254 226.98 283.653 227.774 289.129 225.808L290.228 223.121C290.382 223.136 290.536 223.151 290.69 223.168L291.327 225.811C292.77 226.4 294.216 226.915 295.663 226.374C295.734 226.782 295.776 227.199 295.809 227.599C295.933 227.12 296.041 226.638 296.138 226.153C296.329 226.051 296.512 225.934 296.685 225.804C296.72 225 296.673 224.194 296.543 223.4Z" fill="#2F2E41"/>
<path d="M225.145 7.97553C226.379 7.97553 227.379 6.97627 227.379 5.74362C227.379 4.51098 226.379 3.51172 225.145 3.51172C223.912 3.51172 222.912 4.51098 222.912 5.74362C222.912 6.97627 223.912 7.97553 225.145 7.97553Z" fill="white"/>
<path d="M233.622 7.97553C234.855 7.97553 235.855 6.97627 235.855 5.74362C235.855 4.51098 234.855 3.51172 233.622 3.51172C232.389 3.51172 231.389 4.51098 231.389 5.74362C231.389 6.97627 232.389 7.97553 233.622 7.97553Z" fill="white"/>
<path d="M242.1 7.97553C243.333 7.97553 244.333 6.97627 244.333 5.74362C244.333 4.51098 243.333 3.51172 242.1 3.51172C240.866 3.51172 239.866 4.51098 239.866 5.74362C239.866 6.97627 240.866 7.97553 242.1 7.97553Z" fill="white"/>
<path d="M490.121 4.20696H480.36C480.168 4.20696 479.984 4.13082 479.849 3.9953C479.713 3.85978 479.637 3.67599 479.637 3.48434C479.637 3.29269 479.713 3.10888 479.849 2.97337C479.984 2.83785 480.168 2.76172 480.36 2.76172H490.121C490.313 2.76172 490.497 2.83785 490.633 2.97337C490.768 3.10888 490.845 3.29269 490.845 3.48434C490.845 3.67599 490.768 3.85978 490.633 3.9953C490.497 4.13082 490.313 4.20696 490.121 4.20696Z" fill="white"/>
<path d="M490.121 6.91789H480.36C480.265 6.91789 480.171 6.89919 480.083 6.86288C479.995 6.82656 479.916 6.77334 479.849 6.70624C479.781 6.63914 479.728 6.55948 479.692 6.4718C479.655 6.38413 479.637 6.29016 479.637 6.19527C479.637 6.10037 479.655 6.00641 479.692 5.91874C479.728 5.83107 479.781 5.7514 479.849 5.6843C479.916 5.6172 479.995 5.56398 480.083 5.52766C480.171 5.49135 480.265 5.47266 480.36 5.47266H490.121C490.216 5.47266 490.31 5.49135 490.398 5.52766C490.486 5.56398 490.566 5.6172 490.633 5.6843C490.7 5.7514 490.753 5.83107 490.789 5.91874C490.826 6.00641 490.845 6.10037 490.845 6.19527C490.845 6.29016 490.826 6.38413 490.789 6.4718C490.753 6.55948 490.7 6.63914 490.633 6.70624C490.566 6.77334 490.486 6.82656 490.398 6.86288C490.31 6.89919 490.216 6.91789 490.121 6.91789Z" fill="white"/>
<path d="M490.121 9.62883H480.36C480.168 9.62883 479.984 9.5527 479.849 9.41719C479.713 9.28167 479.637 9.09786 479.637 8.90621C479.637 8.71456 479.713 8.53077 479.849 8.39525C479.984 8.25973 480.168 8.18359 480.36 8.18359H490.121C490.313 8.18359 490.497 8.25973 490.633 8.39525C490.768 8.53077 490.845 8.71456 490.845 8.90621C490.845 9.09786 490.768 9.28167 490.633 9.41719C490.497 9.5527 490.313 9.62883 490.121 9.62883Z" fill="white"/>
<path d="M441.097 94.975C443.327 94.975 445.136 93.1679 445.136 90.9387C445.136 88.7095 443.327 86.9023 441.097 86.9023C438.866 86.9023 437.058 88.7095 437.058 90.9387C437.058 93.1679 438.866 94.975 441.097 94.975Z" fill="#A0A0A0"/>
<path d="M454.213 94.975C456.443 94.975 458.252 93.1679 458.252 90.9387C458.252 88.7095 456.443 86.9023 454.213 86.9023C451.982 86.9023 450.174 88.7095 450.174 90.9387C450.174 93.1679 451.982 94.975 454.213 94.975Z" fill="#A0A0A0"/>
<path d="M467.329 94.975C469.56 94.975 471.368 93.1679 471.368 90.9387C471.368 88.7095 469.56 86.9023 467.329 86.9023C465.098 86.9023 463.29 88.7095 463.29 90.9387C463.29 93.1679 465.098 94.975 467.329 94.975Z" fill="#A0A0A0"/>
<path d="M441.097 173.621C443.327 173.621 445.136 171.814 445.136 169.585C445.136 167.356 443.327 165.549 441.097 165.549C438.866 165.549 437.058 167.356 437.058 169.585C437.058 171.814 438.866 173.621 441.097 173.621Z" fill="#E6295C"/>
<path d="M454.213 173.621C456.443 173.621 458.252 171.814 458.252 169.585C458.252 167.356 456.443 165.549 454.213 165.549C451.982 165.549 450.174 167.356 450.174 169.585C450.174 171.814 451.982 173.621 454.213 173.621Z" fill="#E6295C"/>
<path d="M467.329 173.621C469.56 173.621 471.368 171.814 471.368 169.585C471.368 167.356 469.56 165.549 467.329 165.549C465.098 165.549 463.29 167.356 463.29 169.585C463.29 171.814 465.098 173.621 467.329 173.621Z" fill="#E6295C"/>
<path d="M441.097 257.342C443.327 257.342 445.136 255.535 445.136 253.306C445.136 251.077 443.327 249.27 441.097 249.27C438.866 249.27 437.058 251.077 437.058 253.306C437.058 255.535 438.866 257.342 441.097 257.342Z" fill="#A0A0A0"/>
<path d="M454.213 257.342C456.443 257.342 458.252 255.535 458.252 253.306C458.252 251.077 456.443 249.27 454.213 249.27C451.982 249.27 450.174 251.077 450.174 253.306C450.174 255.535 451.982 257.342 454.213 257.342Z" fill="#A0A0A0"/>
<path d="M467.329 257.342C469.56 257.342 471.368 255.535 471.368 253.306C471.368 251.077 469.56 249.27 467.329 249.27C465.098 249.27 463.29 251.077 463.29 253.306C463.29 255.535 465.098 257.342 467.329 257.342Z" fill="#A0A0A0"/>
<path d="M326.133 172.805L305.314 159.632C304.917 159.381 304.459 159.241 303.989 159.228C303.518 159.214 303.053 159.328 302.642 159.556C302.231 159.785 301.889 160.12 301.652 160.527C301.415 160.933 301.293 161.396 301.297 161.866L301.502 184.579C301.507 185.183 301.721 185.766 302.108 186.23C302.495 186.694 303.03 187.01 303.623 187.124C304.217 187.239 304.831 187.144 305.363 186.857C305.894 186.571 306.31 186.109 306.54 185.55L309.248 178.966L316.801 193.846C317.16 194.55 317.783 195.083 318.535 195.328C319.287 195.573 320.105 195.51 320.81 195.152C321.515 194.795 322.05 194.172 322.296 193.422C322.542 192.671 322.48 191.853 322.124 191.148L314.4 175.929L324.299 177.595C324.895 177.695 325.507 177.586 326.032 177.286C326.557 176.987 326.962 176.515 327.178 175.95C327.394 175.386 327.408 174.765 327.217 174.192C327.027 173.618 326.644 173.128 326.133 172.805Z" fill="#3F3D56"/>
<path d="M102.217 235.842C102.723 235.292 103.102 234.638 103.327 233.926C103.553 233.213 103.619 232.46 103.522 231.72C103.425 230.979 103.166 230.269 102.765 229.639C102.363 229.009 101.828 228.475 101.197 228.074L105.387 210.406L96.5194 213.644L93.9001 229.925C93.2962 231.028 93.1183 232.315 93.4 233.54C93.6818 234.766 94.4036 235.846 95.4288 236.575C96.454 237.304 97.7112 237.633 98.9623 237.497C100.213 237.362 101.371 236.773 102.217 235.842Z" fill="#FFB8B8"/>
<path d="M123.543 161.806L119.984 170.952C119.984 170.952 121.509 180.098 118.967 182.13C116.425 184.163 117.442 184.163 117.442 185.687C117.354 186.78 117.037 187.843 116.512 188.806C115.986 189.769 115.264 190.61 114.391 191.276C112.357 192.8 103.206 223.794 103.206 223.794H94.0539C94.3495 221.432 94.3495 219.043 94.0539 216.681C93.5455 213.124 95.5792 203.978 96.596 202.454C97.6129 200.93 96.596 198.897 96.596 195.849C96.596 192.8 98.6297 191.276 98.6297 186.195C98.6297 181.114 104.731 141.482 104.222 136.909C103.714 132.336 109.307 128.271 109.307 128.271H114.391L123.543 161.806Z" fill="#E6295C"/>
<path d="M104.97 347.122H111.558L114.693 321.729H104.97L104.97 347.122Z" fill="#FFB6B6"/>
<path d="M102.821 342.612L113.346 341.984V346.491L123.352 353.397C123.846 353.738 124.218 354.228 124.414 354.795C124.61 355.363 124.619 355.978 124.441 356.551C124.262 357.124 123.904 357.625 123.421 357.98C122.937 358.336 122.352 358.528 121.751 358.528H109.221L107.062 354.07L106.218 358.528H101.494L102.821 342.612Z" fill="#2F2E41"/>
<path d="M141.974 347.122H148.562L151.697 321.729H141.974L141.974 347.122Z" fill="#FFB6B6"/>
<path d="M139.824 342.612L150.349 341.984V346.491L160.355 353.397C160.849 353.738 161.221 354.228 161.417 354.795C161.613 355.363 161.622 355.978 161.443 356.551C161.265 357.124 160.907 357.625 160.424 357.98C159.94 358.336 159.355 358.528 158.754 358.528H146.224L144.065 354.07L143.221 358.528H138.497L139.824 342.612Z" fill="#2F2E41"/>
<path d="M102.129 325.225H102.2L105.855 283.936C105.035 282.356 104.619 280.597 104.643 278.817C104.668 277.037 105.133 275.291 105.996 273.734L106.178 273.406L105.707 271.227C105.103 268.428 105.381 265.511 106.501 262.875L105.296 224.361C101.073 197.013 121.196 179.178 121.196 179.178H151.342L157.813 201.399C160.243 225.058 167.842 249.942 166.836 272.878C166.07 290.326 157.46 305.984 154.526 322.976L154.711 323.069C155.378 323.299 155.664 324.222 155.35 325.13C155.036 326.039 154.242 326.589 153.575 326.359L137.655 325.805C136.989 325.575 136.703 324.653 137.016 323.744C137.33 322.836 138.125 322.286 138.791 322.516L139.874 323.063L147.711 281.432L147.968 274.155L147.44 265.899L134.853 230.553L125.617 276.219L116.182 325.684C116.442 325.92 116.625 326.229 116.705 326.57C116.786 326.911 116.762 327.269 116.635 327.596C116.508 327.923 116.285 328.204 115.995 328.402C115.706 328.6 115.362 328.705 115.011 328.704H102.129C101.9 328.704 101.674 328.659 101.462 328.572C101.251 328.485 101.059 328.356 100.898 328.195C100.736 328.033 100.608 327.841 100.52 327.63C100.433 327.419 100.388 327.193 100.388 326.965C100.388 326.736 100.433 326.51 100.52 326.299C100.608 326.088 100.736 325.896 100.898 325.734C101.059 325.573 101.251 325.445 101.462 325.357C101.674 325.27 101.9 325.225 102.129 325.225Z" fill="#2F2E41"/>
<path d="M99.6302 197.752C98.6405 197.752 98.0784 197.558 97.8607 197.142C97.5413 196.532 98.0956 195.734 98.7373 194.81C99.2134 194.207 99.5889 193.531 99.8493 192.809C100.233 191.274 102.824 152.52 101.274 144.777C100.916 142.985 101.224 140.688 102.191 137.951C104.832 130.474 108.436 128.176 115.616 123.599C116.199 123.228 116.806 122.84 117.437 122.435C118.253 121.911 118.208 120.173 118.16 118.332C118.107 116.286 118.051 114.171 119.054 112.849L119.119 112.762L119.224 112.738C121.65 112.178 129.808 111.137 134.639 112.746L134.706 112.768L134.756 112.818C135.903 113.965 136.008 116.186 136.109 118.334C136.192 120.098 136.27 121.763 136.919 122.487C141.883 128.016 147.513 127.908 147.57 127.907L147.849 127.899L147.877 128.176C150.036 150.124 153.517 183.251 154.256 184.555C154.295 184.615 154.317 184.684 154.319 184.755C154.321 184.826 154.304 184.896 154.269 184.958C153.183 186.986 103.36 197.752 99.6302 197.752Z" fill="#E6295C"/>
<path d="M132.052 106.525C140.183 106.525 146.775 99.9382 146.775 91.8125C146.775 83.6868 140.183 77.0996 132.052 77.0996C123.922 77.0996 117.33 83.6868 117.33 91.8125C117.33 99.9382 123.922 106.525 132.052 106.525Z" fill="#FFB8B8"/>
<path d="M91.6084 85.2439C94.0976 82.343 95.2811 78.4942 97.271 75.2001C99.2609 71.9059 102.724 68.9576 106.382 69.7242C108.904 70.2526 110.853 72.4765 111.84 74.9559C112.826 77.4352 113.011 80.1694 113.184 82.848C113.123 77.3434 116.752 72.007 121.751 70.2506C126.749 68.4941 132.732 70.4534 135.873 74.8757C137.244 73.606 139.033 72.883 140.901 72.8438C142.77 72.8046 144.588 73.4519 146.011 74.663C148.821 77.1725 149.442 81.949 147.376 85.1499C146.339 86.7074 144.768 87.8328 142.959 88.3148C141.15 88.7969 139.227 88.6024 137.551 87.768L136.39 88.8352C136.691 89.9759 136.581 91.186 136.079 92.2539C135.578 93.3217 134.717 94.1794 133.646 94.677C131.919 95.3742 129.48 95.2582 128.834 97.0697C128.382 98.3355 129.227 99.6866 130.125 100.659C131.023 101.632 132.089 102.636 132.197 103.982C132.36 106.013 130.26 107.436 128.351 107.864C126.01 108.332 123.583 108.091 121.381 107.172C119.178 106.254 117.3 104.699 115.987 102.708C115.936 102.629 115.88 102.551 115.82 102.472C114.331 100.57 113.247 98.3844 112.632 96.049C112.017 93.7135 111.885 91.2773 112.244 88.8893C112.394 87.9509 112.243 87.253 111.596 87.0308C108.798 86.0703 100.959 88.0862 98.5864 89.9081C96.2138 91.73 94.3139 94.1411 92.0288 96.0806C89.7434 98.0201 86.8313 99.5161 83.9297 98.988C81.6058 98.565 79.6288 96.8789 78.299 94.8452C77.045 92.7405 76.1081 90.4626 75.5186 88.085C80.6573 91.0517 87.6904 89.8099 91.6084 85.2439Z" fill="#2F2E41"/>
<path d="M155.654 235.842C155.148 235.292 154.769 234.638 154.544 233.926C154.318 233.213 154.252 232.46 154.349 231.72C154.446 230.979 154.705 230.269 155.106 229.639C155.508 229.009 156.043 228.475 156.673 228.074L152.483 210.406L161.351 213.644L163.971 229.925C164.575 231.028 164.753 232.315 164.471 233.54C164.189 234.766 163.467 235.846 162.442 236.575C161.417 237.304 160.16 237.633 158.909 237.497C157.657 237.362 156.499 236.773 155.654 235.842Z" fill="#FFB8B8"/>
<path d="M134.329 161.806L137.888 170.952C137.888 170.952 136.363 180.098 138.905 182.13C141.447 184.163 140.43 184.163 140.43 185.687C140.518 186.78 140.835 187.843 141.36 188.806C141.886 189.769 142.608 190.61 143.481 191.276C145.515 192.8 154.666 223.794 154.666 223.794H163.818C163.522 221.432 163.522 219.043 163.818 216.681C164.326 213.124 162.293 203.978 161.276 202.454C160.259 200.93 161.276 198.897 161.276 195.849C161.276 192.8 159.242 191.276 159.242 186.195C159.242 181.114 153.141 141.482 153.649 136.909C154.158 132.336 148.565 128.271 148.565 128.271H143.481L134.329 161.806Z" fill="#E6295C"/>
</svg>
