<svg width="63" height="90" viewBox="0 0 63 90" fill="none" xmlns="http://www.w3.org/2000/svg">
<g opacity="0.95">
<path d="M7.92206 27.1641L0.65625 31.6535L13.4157 39.0291L20.6815 34.5396L7.92206 27.1641Z" fill="#E5E9FF"/>
<path d="M0.648438 60.9286L13.4079 68.3041V39.0214L0.648438 31.6543V60.9286Z" fill="url(#paint0_linear_108_39664)"/>
<path d="M13.4062 68.3037L20.6805 63.8143V34.54L13.4062 39.021V68.3037Z" fill="#AFB6E5"/>
</g>
<g opacity="0.95">
<path d="M26.2697 15.7119L19.0039 20.1929L31.7634 27.5684L39.0292 23.079L26.2697 15.7119Z" fill="#E5E9FF"/>
<path d="M18.9961 71.5858L31.764 78.9613V27.5604L18.9961 20.1934V71.5858Z" fill="url(#paint1_linear_108_39664)"/>
<path d="M31.7539 78.961L39.0282 74.4715V23.0791L31.7539 27.5601V78.961Z" fill="#AFB6E5"/>
</g>
<g opacity="0.95">
<path d="M44.6271 0.920898L37.3613 5.41033L50.1208 12.7774L57.3866 8.28797L44.6271 0.920898Z" fill="#E5E9FF"/>
<path d="M37.3457 82.2462L50.1136 89.6133V12.7694L37.3457 5.40234V82.2462Z" fill="url(#paint2_linear_108_39664)"/>
<path d="M50.1133 89.613L57.3875 85.132V8.28809L50.1133 12.7691V89.613Z" fill="#AFB6E5"/>
</g>
<defs>
<linearGradient id="paint0_linear_108_39664" x1="34.3253" y1="3.18139" x2="-0.928027" y2="63.6157" gradientUnits="userSpaceOnUse">
<stop stop-color="#0082C5"/>
<stop offset="0.3301" stop-color="#2D7CB7"/>
<stop offset="0.6313" stop-color="#5277AB"/>
<stop offset="0.6752" stop-color="#5B76A9"/>
<stop offset="0.7464" stop-color="#7375A2"/>
<stop offset="0.8361" stop-color="#9A7397"/>
<stop offset="0.9398" stop-color="#D06F88"/>
<stop offset="1" stop-color="#F36D7E"/>
</linearGradient>
<linearGradient id="paint1_linear_108_39664" x1="45.2623" y1="9.23986" x2="14.6789" y2="71.2807" gradientUnits="userSpaceOnUse">
<stop stop-color="#0082C5"/>
<stop offset="0.3301" stop-color="#2D7CB7"/>
<stop offset="0.6313" stop-color="#5277AB"/>
<stop offset="0.6752" stop-color="#5B76A9"/>
<stop offset="0.7464" stop-color="#7375A2"/>
<stop offset="0.8361" stop-color="#9A7397"/>
<stop offset="0.9398" stop-color="#D06F88"/>
<stop offset="1" stop-color="#F36D7E"/>
</linearGradient>
<linearGradient id="paint2_linear_108_39664" x1="60.4593" y1="16.1188" x2="27.208" y2="78.519" gradientUnits="userSpaceOnUse">
<stop stop-color="#0082C5"/>
<stop offset="0.3301" stop-color="#2D7CB7"/>
<stop offset="0.6313" stop-color="#5277AB"/>
<stop offset="0.6752" stop-color="#5B76A9"/>
<stop offset="0.7464" stop-color="#7375A2"/>
<stop offset="0.8361" stop-color="#9A7397"/>
<stop offset="0.9398" stop-color="#D06F88"/>
<stop offset="1" stop-color="#F36D7E"/>
</linearGradient>
</defs>
</svg>
