<svg width="71" height="86" viewBox="0 0 71 86" fill="none" xmlns="http://www.w3.org/2000/svg">
<path d="M36.6791 41.3881V85.0675C19.8605 75.3544 5.67487 55.3375 0.476562 33.9873L36.6791 41.3881Z" fill="url(#paint0_linear_108_39693)"/>
<path d="M36.6797 85.0681L40.089 83.0766L40.0299 39.8867L36.6797 41.3888V85.0681Z" fill="#AFB6E5"/>
<path d="M0.484375 33.9877L3.88522 31.9961L40.0877 39.4054L36.6785 41.3885L0.484375 33.9877Z" fill="#E5E9FF"/>
<path d="M68.7223 43.4638C63.8024 23.2359 47.5324 4.333 32.3763 1.23595C27.8278 0.307681 23.8953 0.915277 20.756 2.76338L20.7392 2.72962L16.3425 5.99544L16.6379 6.46802C12.4438 11.9954 11.1695 21.16 13.8615 32.2486L35.2708 36.6283L41.2877 46.3667V70.9575C44.4775 72.7971 47.1696 73.8604 50.1991 74.4849C53.2961 75.1178 56.1062 75.0334 58.5704 74.333L59.0176 75.0672C59.0176 75.0672 63.2371 72.0208 63.7518 71.5735L64.4016 71.0925L64.3594 71.025C69.794 65.8267 71.7349 55.8351 68.7223 43.4638Z" fill="url(#paint1_linear_108_39693)"/>
<path d="M37.8955 40.4101L10.4694 34.7983C5.54955 14.5704 13.8365 0.688591 28.9842 3.78564C44.1318 6.88268 60.4019 25.7941 65.3301 46.0135C70.25 66.2413 61.9631 80.1232 46.8154 77.0261C43.7858 76.4101 41.0854 75.3384 37.904 73.4987V40.4101H37.8955Z" fill="url(#paint2_linear_108_39693)"/>
<defs>
<linearGradient id="paint0_linear_108_39693" x1="-4.30571" y1="73.4081" x2="50.0544" y2="40.4356" gradientUnits="userSpaceOnUse">
<stop stop-color="#AFB6E5"/>
<stop offset="0.1449" stop-color="#B6BCE8"/>
<stop offset="0.3485" stop-color="#C8CDF1"/>
<stop offset="0.5808" stop-color="#E5E9FF"/>
<stop offset="0.8551" stop-color="#F5F6FF"/>
<stop offset="1" stop-color="white"/>
</linearGradient>
<linearGradient id="paint1_linear_108_39693" x1="62.456" y1="70.8835" x2="22.2638" y2="3.04152" gradientUnits="userSpaceOnUse">
<stop offset="0.0909" stop-color="#4088AF"/>
<stop offset="0.5" stop-color="#3882AD"/>
<stop offset="0.691" stop-color="#4EB6DD"/>
<stop offset="0.798" stop-color="#58CFF3"/>
<stop offset="1" stop-color="#3888B7"/>
</linearGradient>
<linearGradient id="paint2_linear_108_39693" x1="55.5091" y1="18.158" x2="10.3576" y2="75.1915" gradientUnits="userSpaceOnUse">
<stop stop-color="#0082C5"/>
<stop offset="0.3301" stop-color="#2D7CB7"/>
<stop offset="0.6313" stop-color="#5277AB"/>
<stop offset="0.6752" stop-color="#5B76A9"/>
<stop offset="0.7464" stop-color="#7375A2"/>
<stop offset="0.8361" stop-color="#9A7397"/>
<stop offset="0.9398" stop-color="#D06F88"/>
<stop offset="1" stop-color="#F36D7E"/>
</linearGradient>
</defs>
</svg>
