<svg xmlns="http://www.w3.org/2000/svg"><symbol id="icon-archive" viewBox="0 0 16 15"><title>archive</title><g clip-path="url(#id2a)" fill-rule="evenodd" clip-rule="evenodd"><path d="M2.375 4.375c.345 0 .625.28.625.625v7.5h10V5a.625.625 0 111.25 0v8.125c0 .345-.28.625-.625.625H2.375a.625.625 0 01-.625-.625V5c0-.345.28-.625.625-.625z"/><path d="M.5 1.875c0-.345.28-.625.625-.625h13.75c.345 0 .625.28.625.625V5c0 .345-.28.625-.625.625H1.125A.625.625 0 01.5 5V1.875zm1.25.625v1.875h12.5V2.5H1.75zm4.375 5c0-.345.28-.625.625-.625h2.5a.625.625 0 110 1.25h-2.5a.625.625 0 01-.625-.625z"/></g><defs><clipPath id="id2a"><path transform="translate(.5)" d="M0 0h15v15H0z"/></clipPath></defs></symbol><symbol id="icon-arrow-down" viewBox="0 0 15 15"><title>arrow-down</title><g fill-rule="evenodd" clip-rule="evenodd"><path d="M7.5 2.5c.345 0 .625.28.625.625v8.75a.625.625 0 11-1.25 0v-8.75c0-.345.28-.625.625-.625z"/><path d="M2.683 7.058a.625.625 0 01.884 0L7.5 10.991l3.933-3.933a.625.625 0 11.884.884l-4.375 4.375a.625.625 0 01-.884 0L2.683 7.942a.625.625 0 010-.884z"/></g></symbol><symbol id="icon-arrow-up-right" viewBox="0 0 24 25"><title>arrow-up-right</title><g fill-rule="evenodd" clip-rule="evenodd"><path d="M17.707 6.793a1 1 0 010 1.414l-10 10a1 1 0 01-1.414-1.414l10-10a1 1 0 011.414 0z"/><path d="M6 7.5a1 1 0 011-1h10a1 1 0 011 1v10a1 1 0 11-2 0v-9H7a1 1 0 01-1-1z"/></g></symbol><symbol id="icon-arrow-up" viewBox="0 0 15 15"><title>arrow-up</title><g fill-rule="evenodd" clip-rule="evenodd"><path d="M7.5 2.5c.345 0 .625.28.625.625v8.75a.625.625 0 11-1.25 0v-8.75c0-.345.28-.625.625-.625z"/><path d="M7.058 2.683a.625.625 0 01.884 0l4.375 4.375a.625.625 0 11-.884.884L7.5 4.009 3.567 7.942a.625.625 0 11-.884-.884l4.375-4.375z"/></g></symbol><symbol id="icon-bell" viewBox="0 0 25 24"><title>bell</title><path class="ph1" d="M18.344 8a6 6 0 00-12 0c0 7-3 9-3 9h18s-3-2-3-9z"/><path class="ph2" d="M14.073 21a2 2 0 01-3.46 0"/></symbol><symbol id="icon-calendar" viewBox="0 0 15 15"><title>calendar</title><g fill-rule="evenodd" clip-rule="evenodd"><path d="M3.125 3.125a.625.625 0 00-.625.625v8.75c0 .345.28.625.625.625h8.75c.345 0 .625-.28.625-.625V3.75a.625.625 0 00-.625-.625h-8.75zM1.25 3.75c0-1.036.84-1.875 1.875-1.875h8.75c1.036 0 1.875.84 1.875 1.875v8.75c0 1.036-.84 1.875-1.875 1.875h-8.75A1.875 1.875 0 011.25 12.5V3.75z"/><path d="M10 .625c.345 0 .625.28.625.625v2.5a.625.625 0 11-1.25 0v-2.5c0-.345.28-.625.625-.625zm-5 0c.345 0 .625.28.625.625v2.5a.625.625 0 11-1.25 0v-2.5c0-.345.28-.625.625-.625zM1.25 6.25c0-.345.28-.625.625-.625h11.25a.625.625 0 110 1.25H1.875a.625.625 0 01-.625-.625z"/></g></symbol><symbol id="icon-camera" viewBox="0 0 16 17"><title>camera</title><g fill-rule="evenodd" clip-rule="evenodd"><path d="M5.445 2.13A.667.667 0 016 1.834h4c.223 0 .431.11.555.296l1.135 1.704H14a2 2 0 012 2v7.333a2 2 0 01-2 2H2a2 2 0 01-2-2V5.834a2 2 0 012-2h2.31L5.445 2.13zm.912 1.037L5.22 4.87a.667.667 0 01-.554.297H2a.667.667 0 00-.667.667v7.333a.667.667 0 00.667.667h12a.666.666 0 00.667-.667V5.834A.667.667 0 0014 5.167h-2.667a.667.667 0 01-.554-.297L9.643 3.167H6.357z"/><path d="M8 7.167a2 2 0 100 4 2 2 0 000-4zm-3.333 2a3.333 3.333 0 116.666 0 3.333 3.333 0 01-6.666 0z"/></g></symbol><symbol id="icon-check-square" viewBox="0 0 15 15"><title>check-square</title><g fill-rule="evenodd" clip-rule="evenodd"><path d="M14.192 2.058a.625.625 0 010 .884l-6.25 6.25a.625.625 0 01-.884 0L5.183 7.317a.625.625 0 11.884-.884L7.5 7.866l5.808-5.808a.625.625 0 01.884 0z"/><path d="M3.125 2.5a.625.625 0 00-.625.625v8.75a.625.625 0 00.625.625h8.75a.624.624 0 00.625-.625V7.5a.625.625 0 111.25 0v4.375a1.875 1.875 0 01-1.875 1.875h-8.75a1.875 1.875 0 01-1.875-1.875v-8.75A1.875 1.875 0 013.125 1.25H10a.625.625 0 110 1.25H3.125z"/></g></symbol><symbol id="icon-check" viewBox="0 0 20 20"><title>check</title><path fill-rule="evenodd" clip-rule="evenodd" d="M17.317 5.183a.625.625 0 010 .884l-8.75 8.75a.625.625 0 01-.884 0l-4.375-4.375a.625.625 0 11.884-.884l3.933 3.933 8.308-8.308a.625.625 0 01.884 0z"/></symbol><symbol id="icon-chevron-down" viewBox="0 0 19 18"><title>chevron-down</title><path fill-rule="evenodd" clip-rule="evenodd" d="M4.313 6.22a.75.75 0 011.061 0l3.97 3.97 3.97-3.97a.75.75 0 011.06 1.06l-4.5 4.5a.75.75 0 01-1.06 0l-4.5-4.5a.75.75 0 010-1.06z"/></symbol><symbol id="icon-chevron-left" viewBox="0 0 12 12"><title>chevron-left</title><path fill-rule="evenodd" clip-rule="evenodd" d="M7.854 2.646a.5.5 0 010 .708L5.207 6l2.647 2.646a.5.5 0 11-.708.708l-3-3a.5.5 0 010-.708l3-3a.5.5 0 01.708 0z"/></symbol><symbol id="icon-chevron-right" viewBox="0 0 12 12"><title>chevron-right</title><path fill-rule="evenodd" clip-rule="evenodd" d="M4.146 2.646a.5.5 0 01.708 0l3 3a.5.5 0 010 .708l-3 3a.5.5 0 11-.708-.708L6.793 6 4.146 3.354a.5.5 0 010-.708z"/></symbol><symbol id="icon-chevron-up" viewBox="0 0 16 16"><title>chevron-up</title><path fill-rule="evenodd" clip-rule="evenodd" d="M7.53 5.528c.26-.26.682-.26.942 0l4 4a.667.667 0 01-.943.943L8.001 6.942l-3.529 3.53a.667.667 0 01-.943-.944l4-4z"/></symbol><symbol id="icon-clock" viewBox="0 0 15 15"><title>clock</title><g clip-path="url(#id4a)" stroke-width="1.25" stroke-linecap="round" stroke-linejoin="round"><path d="M7.5 13.75a6.25 6.25 0 100-12.5 6.25 6.25 0 000 12.5z"/><path d="M7.5 3.75V7.5L10 8.75"/></g><defs><clipPath id="id4a"><path d="M0 0h15v15H0z"/></clipPath></defs></symbol><symbol id="icon-close" viewBox="0 0 18 18"><title>close</title><g fill-rule="evenodd" clip-rule="evenodd"><path d="M14.03 3.97a.75.75 0 010 1.06l-9 9a.75.75 0 01-1.06-1.06l9-9a.75.75 0 011.06 0z"/><path d="M3.97 3.97a.75.75 0 011.06 0l9 9a.75.75 0 11-1.06 1.06l-9-9a.75.75 0 010-1.06z"/></g></symbol><symbol id="icon-download" viewBox="0 0 15 15"><title>download</title><g fill-rule="evenodd" clip-rule="evenodd"><path d="M1.875 8.75c.345 0 .625.28.625.625v2.5a.625.625 0 00.625.625h8.75a.624.624 0 00.625-.625v-2.5a.625.625 0 111.25 0v2.5a1.875 1.875 0 01-1.875 1.875h-8.75a1.875 1.875 0 01-1.875-1.875v-2.5c0-.345.28-.625.625-.625z"/><path d="M3.933 5.808a.625.625 0 01.884 0L7.5 8.491l2.683-2.683a.625.625 0 11.884.884L7.942 9.817a.625.625 0 01-.884 0L3.933 6.692a.625.625 0 010-.884z"/><path d="M7.5 1.25c.345 0 .625.28.625.625v7.5a.625.625 0 11-1.25 0v-7.5c0-.345.28-.625.625-.625z"/></g></symbol><symbol id="icon-edit-2" viewBox="0 0 16 15"><title>edit-2</title><path fill-rule="evenodd" clip-rule="evenodd" d="M12.375 1.982a1.142 1.142 0 00-.808.335l-8.32 8.32-.606 2.222 2.222-.606 8.32-8.32a1.143 1.143 0 00-.808-1.95zM11.459.915a2.393 2.393 0 012.608 3.902l-8.438 8.438a.626.626 0 01-.277.16l-3.438.938a.625.625 0 01-.767-.767l.938-3.438a.625.625 0 01.16-.277l8.438-8.438a2.39 2.39 0 01.776-.518z"/></symbol><symbol id="icon-eye-off" viewBox="0 0 16 17"><title>eye-off</title><g clip-path="url(#id10a)" fill-rule="evenodd" clip-rule="evenodd"><path d="M7.998 3.833a5.413 5.413 0 00-1.246.143.667.667 0 11-.304-1.298A6.746 6.746 0 018.001 2.5L8 3.167V2.5c2.6 0 4.597 1.484 5.903 2.877a13.784 13.784 0 011.888 2.567 8.115 8.115 0 01.127.236l.008.015.002.004.001.002-.596.299-.588-.314c-.056.105-.114.21-.173.313a12.447 12.447 0 00-1.642-2.21C11.736 5.016 10.067 3.833 8 3.833h-.002zM14.572 8.5c-.345.6-.743 1.168-1.189 1.698a.667.667 0 001.02.859 13 13 0 001.518-2.242.667.667 0 00.009-.612l-.597.298-.596.299v-.001l-.004-.008a6.966 6.966 0 00-.16-.291zM4.57 4.135a.667.667 0 01-.125.935 11.633 11.633 0 00-3.017 3.432 12.45 12.45 0 001.641 2.209c1.194 1.272 2.861 2.454 4.926 2.456a6.047 6.047 0 003.56-1.237.667.667 0 01.81 1.06A7.38 7.38 0 018.01 14.5H8c-2.6 0-4.597-1.484-5.903-2.877A13.784 13.784 0 01.209 9.056a8.23 8.23 0 01-.127-.236l-.008-.015-.002-.004-.001-.002.596-.299-.597.298a.667.667 0 01.01-.613A12.967 12.967 0 013.634 4.01a.667.667 0 01.935.125zm2.504 2.497a.667.667 0 01-.033.942A1.333 1.333 0 108.926 9.46a.667.667 0 01.975.909 2.666 2.666 0 11-3.769-3.77.667.667 0 01.942.034z"/><path d="M.195.695c.26-.26.683-.26.943 0l14.667 14.667a.667.667 0 11-.943.943L.195 1.638a.667.667 0 010-.943z"/></g><defs><clipPath id="id10a"><path transform="translate(0 .5)" d="M0 0h16v16H0z"/></clipPath></defs></symbol><symbol id="icon-eye" viewBox="0 0 16 17"><title>eye</title><path fill-rule="evenodd" clip-rule="evenodd" d="M1.427 8.5a12.45 12.45 0 001.643 2.21c1.194 1.274 2.863 2.457 4.93 2.457 2.067 0 3.736-1.183 4.93-2.456A12.447 12.447 0 0014.573 8.5a12.448 12.448 0 00-1.643-2.21C11.736 5.015 10.067 3.832 8 3.832c-2.067 0-3.736 1.183-4.93 2.456A12.45 12.45 0 001.427 8.5zm13.906 0c.597-.298.597-.298.596-.299V8.2l-.003-.004-.008-.015a12.393 12.393 0 00-.515-.875 13.785 13.785 0 00-1.5-1.928C12.597 3.984 10.6 2.5 8 2.5c-2.6 0-4.597 1.484-5.903 2.877A13.784 13.784 0 00.209 7.944a8.253 8.253 0 00-.127.236l-.008.015-.002.004-.001.002.596.299-.597-.298a.667.667 0 000 .596L.667 8.5l-.597.298.002.003.002.004.008.015a5.066 5.066 0 00.127.236 13.783 13.783 0 001.888 2.567C3.403 13.016 5.4 14.5 8 14.5c2.6 0 4.597-1.484 5.903-2.877a13.784 13.784 0 001.888-2.567 8.137 8.137 0 00.127-.236l.008-.015.002-.004.001-.002-.596-.299zm0 0l.597.298a.668.668 0 000-.597l-.597.299z"/><path fill-rule="evenodd" clip-rule="evenodd" d="M8 7.167a1.333 1.333 0 100 2.666 1.333 1.333 0 000-2.666zM5.333 8.5a2.667 2.667 0 115.334 0 2.667 2.667 0 01-5.333 0z"/></symbol><symbol id="icon-file-text" viewBox="0 0 24 24"><title>file-text</title><g fill-rule="evenodd" clip-rule="evenodd"><path d="M3.879 1.879A3 3 0 016 1h8a1 1 0 01.707.293l6 6A1 1 0 0121 8v12a3 3 0 01-3 3H6a3 3 0 01-3-3V4a3 3 0 01.879-2.121zM6 3a1 1 0 00-1 1v16a1 1 0 001 1h12a1 1 0 001-1V8.414L13.586 3H6z"/><path d="M14 1a1 1 0 011 1v5h5a1 1 0 110 2h-6a1 1 0 01-1-1V2a1 1 0 011-1zM7 13a1 1 0 011-1h8a1 1 0 110 2H8a1 1 0 01-1-1zm0 4a1 1 0 011-1h8a1 1 0 110 2H8a1 1 0 01-1-1zm0-8a1 1 0 011-1h2a1 1 0 110 2H8a1 1 0 01-1-1z"/></g></symbol><symbol id="icon-filter" viewBox="0 0 20 20"><title>filter</title><path fill-rule="evenodd" clip-rule="evenodd" d="M.911 2.15a.833.833 0 01.756-.483h16.667a.833.833 0 01.636 1.371l-6.47 7.65V17.5a.833.833 0 01-1.205.746L7.96 16.579a.833.833 0 01-.46-.745v-5.145l-6.47-7.65a.833.833 0 01-.12-.89zm2.552 1.184L8.97 9.846c.128.15.197.34.197.538v4.935l1.667.833v-5.768c0-.197.07-.388.197-.538l5.507-6.512H3.463z"/></symbol><symbol id="icon-globe" viewBox="0 0 15 15"><title>globe</title><g clip-path="url(#id8a)" fill-rule="evenodd" clip-rule="evenodd"><path d="M7.5 1.875a5.625 5.625 0 100 11.25 5.625 5.625 0 000-11.25zM.625 7.5a6.875 6.875 0 1113.75 0 6.875 6.875 0 01-13.75 0z"/><path d="M.625 7.5c0-.345.28-.625.625-.625h12.5a.625.625 0 110 1.25H1.25A.625.625 0 01.625 7.5z"/><path d="M7.5.625c.176 0 .343.074.461.203a10.188 10.188 0 012.664 6.685 10.188 10.188 0 01-2.664 6.659.625.625 0 01-.922 0 10.187 10.187 0 01-2.664-6.685A10.187 10.187 0 017.04.828.625.625 0 017.5.625zM5.625 7.5A8.938 8.938 0 007.5 12.78 8.938 8.938 0 009.375 7.5 8.938 8.938 0 007.5 2.22 8.938 8.938 0 005.625 7.5z"/></g><defs><clipPath id="id8a"><path d="M0 0h15v15H0z"/></clipPath></defs></symbol><symbol id="icon-grid" viewBox="0 0 20 20"><title>grid</title><path d="M1.666 2.5c0-.46.373-.833.833-.833h5.834c.46 0 .833.373.833.833v5.834c0 .46-.373.833-.833.833H2.499a.833.833 0 01-.833-.833V2.5zm1.667.834V7.5h4.166V3.334H3.333zm7.501-.834c0-.46.373-.833.833-.833h5.834c.46 0 .833.373.833.833v5.834c0 .46-.373.833-.833.833h-5.834a.833.833 0 01-.833-.833V2.5zm1.667.834V7.5h4.166V3.334h-4.166zm-1.667 8.332c0-.46.373-.833.833-.833h5.834c.46 0 .833.373.833.833V17.5c0 .46-.373.833-.833.833h-5.834a.833.833 0 01-.833-.833v-5.834zm1.667.834v4.166h4.166V12.5h-4.166zm-10.835-.834c0-.46.373-.833.833-.833h5.834c.46 0 .833.373.833.833V17.5c0 .46-.373.833-.833.833H2.499a.833.833 0 01-.833-.833v-5.834zm1.667.834v4.166h4.166V12.5H3.333z" fill-rule="evenodd" clip-rule="evenodd"/></symbol><symbol id="icon-heart" viewBox="0 0 25 24"><title>heart</title><g clip-path="url(#id6a)"><path fill-rule="evenodd" clip-rule="evenodd" d="M14.806 2.493a6.5 6.5 0 017.085 10.604l-8.84 8.84a1 1 0 01-1.414 0l-8.84-8.84a6.501 6.501 0 019.194-9.194l.353.353.353-.353a6.502 6.502 0 012.109-1.41zm2.488 1.505a4.5 4.5 0 00-3.183 1.319l-1.06 1.06a1 1 0 01-1.414 0l-1.06-1.06a4.501 4.501 0 00-6.366 6.366l8.133 8.133 8.133-8.133a4.501 4.501 0 00-3.183-7.685z"/></g><defs><clipPath id="id6a"><path transform="translate(.344)" d="M0 0h24v24H0z"/></clipPath></defs></symbol><symbol id="icon-log-in" viewBox="0 0 16 16"><title>log-in</title><g fill-rule="evenodd" clip-rule="evenodd"><path d="M9.334 2c0-.369.298-.667.667-.667h2.666a2 2 0 012 2v9.333a2 2 0 01-2 2h-2.666a.667.667 0 110-1.333h2.666a.666.666 0 00.667-.667V3.333a.667.667 0 00-.667-.667h-2.666A.667.667 0 019.334 2z"/><path d="M6.195 4.195c.26-.26.683-.26.943 0l3.333 3.334c.26.26.26.682 0 .942l-3.333 3.334a.667.667 0 11-.943-.943L9.057 8 6.195 5.138a.667.667 0 010-.943z"/><path d="M1.334 8c0-.369.298-.667.667-.667h8a.667.667 0 010 1.333H2A.667.667 0 011.334 8z"/></g></symbol><symbol id="icon-logo1" viewBox="0 0 169 68"><title>logo1</title><path d="M148.695 67.767c1.349 0 2.409-.482 3.181-1.35l-.772-.77c-.674.674-1.446 1.06-2.409 1.06-1.928 0-3.278-1.35-3.278-3.278a3.25 3.25 0 013.278-3.277c.963 0 1.735.289 2.409.964l.772-.771c-.772-.868-1.928-1.35-3.181-1.35-2.603 0-4.531 1.832-4.531 4.338.096 2.603 2.024 4.434 4.531 4.434zm7.422-1.157v-2.699h4.242v-1.06h-4.242v-2.603h4.724v-1.06h-5.977v8.483h6.169v-1.06h-4.916zm-16.291 1.06h1.253v-8.482h-1.253v8.483zm-3.663-8.482l-3.085 6.94-3.085-6.94h-1.349l3.759 8.483h1.157l3.663-8.483h-1.06zm-13.014 4.916h-2.024v-3.76h2.024c1.543 0 2.314.675 2.314 1.929.096 1.06-.771 1.831-2.314 1.831zm3.76 3.567l-2.025-2.796c1.157-.385 1.832-1.35 1.832-2.699 0-1.831-1.35-2.988-3.567-2.988h-3.277v8.483h1.253v-2.603h2.699l1.832 2.603h1.253zm-15.231-1.06v-2.7h4.242v-1.06h-4.242v-2.603h4.724v-1.06h-5.977v8.483h6.169v-1.06h-4.916zm-7.615 1.156c2.217 0 3.277-1.157 3.277-2.41 0-3.084-5.109-1.831-5.109-3.856 0-.77.579-1.35 2.024-1.35.772 0 1.543.194 2.314.676l.386-.964c-.675-.482-1.736-.772-2.7-.772-2.217 0-3.277 1.157-3.277 2.41 0 3.182 5.109 1.832 5.109 3.856 0 .771-.675 1.35-2.121 1.35-1.06 0-2.12-.386-2.795-.964l-.482.964c.867.675 2.12 1.06 3.374 1.06zm-13.689-.096h1.157v-7.423h2.892v-1.06h-7.037v1.06h2.892v7.423h.096zm-8.386-3.567h-2.025v-3.76h2.025c1.542 0 2.313.675 2.313 1.929 0 1.06-.77 1.831-2.313 1.831zm3.663 3.567l-2.025-2.796c1.157-.385 1.832-1.35 1.832-2.699 0-1.831-1.35-2.988-3.567-2.988h-3.277v8.483h1.253v-2.603h2.7l1.83 2.603h1.254zm-15.135-1.06v-2.7h4.242v-1.06h-4.242v-2.603h4.724v-1.06h-5.977v8.483h6.17v-1.06h-4.917zm-7.904-2.507h-2.024v-3.76h2.024c1.542 0 2.313.675 2.313 1.929 0 1.06-.77 1.831-2.313 1.831zm0-4.916h-3.278v8.483h1.254v-2.603h2.12c2.217 0 3.567-1.157 3.567-2.988-.096-1.735-1.446-2.892-3.663-2.892zm-5.784 8.483l-3.181-4.338 2.988-4.049h-1.35l-2.313 3.278-2.41-3.278h-1.35l2.989 4.145-3.181 4.338h1.35l2.506-3.47 2.506 3.47h1.446v-.096zm-14.845-1.06v-2.7h4.241v-1.06h-4.241v-2.603h4.723v-1.06H40.73v8.483h6.17v-1.06h-4.917zm-11.278 0v-6.363h2.313c2.12 0 3.47 1.253 3.47 3.181 0 1.928-1.35 3.181-3.47 3.181h-2.314zm-1.254 1.06h3.567c2.7 0 4.53-1.735 4.53-4.242 0-2.506-1.83-4.241-4.53-4.241h-3.567v8.483zm-8.193-1.06v-2.7h4.241v-1.06h-4.241v-2.603h4.723v-1.06h-5.977v8.483h6.17v-1.06h-4.916zm-5.11 1.06v-8.483h-.963l-3.47 5.977-3.567-5.977h-.964v8.483H8.34V61.5l3.085 5.11h.578l3.085-5.11v6.17h1.06zm100.831-44.729a9.038 9.038 0 00-1.156-1.735 5.195 5.195 0 00-3.664-1.542c-1.349 0-2.699.482-3.663 1.542l-3.663 3.663 3.663 3.664a5.195 5.195 0 003.663 1.542c1.35 0 2.7-.482 3.664-1.542a5.465 5.465 0 001.156-1.736c.289-.674.386-1.35.386-2.024.096-.578-.097-1.253-.386-1.832zM51.525 4.049c-.578-1.254-.096-2.7 1.157-3.278 1.253-.578 2.7-.096 3.278 1.157L77.745 46.27c.579 1.253.097 2.699-1.157 3.277-1.253.578-2.699.096-3.277-1.157L51.525 4.05zm-29.593 0c-.579-1.254-.097-2.7 1.157-3.278 1.253-.578 2.699-.096 3.277 1.157L48.152 46.27c.578 1.253.096 2.699-1.157 3.277-1.253.578-2.7.096-3.277-1.157L21.931 4.05zM9.593 27.184c.579-1.253 2.025-1.735 3.278-1.157 1.253.578 1.735 2.024 1.157 3.278l-9.35 19.183c-.58 1.253-2.025 1.735-3.278 1.157C.146 49.066-.336 47.62.243 46.367l9.35-19.183zM84.59 2.41C84.59 1.06 85.652 0 87 0c1.35 0 2.41 1.06 2.41 2.41v44.92c0 1.35-1.06 2.41-2.41 2.41a2.387 2.387 0 01-2.41-2.41V2.41z"/><path d="M116.691 0c1.35 0 2.41 1.06 2.41 2.41s-1.06 2.41-2.41 2.41h-29.69c-1.35 0-2.41-1.06-2.41-2.41S85.65 0 87 0h29.69zm0 44.921c1.35 0 2.41 1.06 2.41 2.41s-1.06 2.41-2.41 2.41h-29.69c-1.35 0-2.41-1.06-2.41-2.41s1.06-2.41 2.41-2.41h29.69zm14.267-31.233c0 1.35-1.061 2.41-2.41 2.41-1.35 0-2.41-1.06-2.41-2.41 0-3.76 1.542-7.23 4.048-9.64C132.693 1.543 136.067 0 139.826 0h21.786c1.349 0 2.41 1.06 2.41 2.41s-1.061 2.41-2.41 2.41h-21.786c-2.41 0-4.627.964-6.169 2.603a8.528 8.528 0 00-2.699 6.265zm-.676 36.149a2.386 2.386 0 01-2.409-2.41c0-1.35 1.06-2.41 2.409-2.41h24.389c2.41 0 4.627-.964 6.169-2.602 1.639-1.64 2.603-3.76 2.603-6.17s-.964-4.627-2.603-6.17c-1.638-1.638-3.759-2.602-6.169-2.602h-14.845c-1.35 0-2.41-1.06-2.41-2.41s1.06-2.41 2.41-2.41h14.845c3.759 0 7.23 1.543 9.64 4.049 2.506 2.506 4.048 5.88 4.048 9.64 0 3.76-1.542 7.23-4.048 9.64-2.507 2.506-5.881 4.048-9.64 4.048h-24.389v-.193z"/></symbol><symbol id="icon-mail" viewBox="0 0 15 15"><title>mail</title><g stroke-width="1.25" stroke-linecap="round" stroke-linejoin="round"><path d="M2.5 2.5h10c.688 0 1.25.563 1.25 1.25v7.5c0 .688-.563 1.25-1.25 1.25h-10c-.688 0-1.25-.563-1.25-1.25v-7.5c0-.688.563-1.25 1.25-1.25z"/><path d="M13.75 3.75L7.5 8.125 1.25 3.75"/></g></symbol><symbol id="icon-map-pin" viewBox="0 0 15 16"><title>map-pin</title><g clip-path="url(#id14a)" fill-rule="evenodd" clip-rule="evenodd"><path d="M7.5 1.75a5 5 0 00-5 5c0 1.936 1.26 3.815 2.641 5.273A18.388 18.388 0 007.5 14.108a18.388 18.388 0 002.359-2.085C11.24 10.565 12.5 8.686 12.5 6.75a5 5 0 00-5-5zm0 13.125l-.347.52-.002-.001-.004-.003-.014-.01a17.758 17.758 0 01-.9-.671 19.636 19.636 0 01-2-1.827C2.804 11.373 1.25 9.189 1.25 6.75a6.25 6.25 0 0112.5 0c0 2.439-1.553 4.622-2.984 6.133a19.632 19.632 0 01-2.847 2.463l-.052.035-.014.01-.004.003h-.002l-.347-.519zm0 0l.347.52a.625.625 0 01-.694 0l.347-.52z"/><path d="M7.5 5.5a1.25 1.25 0 100 2.5 1.25 1.25 0 000-2.5zM5 6.75a2.5 2.5 0 115 0 2.5 2.5 0 01-5 0z"/></g><defs><clipPath id="id14a"><path transform="translate(0 .5)" d="M0 0h15v15H0z"/></clipPath></defs></symbol><symbol id="icon-message" viewBox="0 0 15 15"><title>message</title><path fill-rule="evenodd" clip-rule="evenodd" d="M3.125 2.5a.625.625 0 00-.625.625v8.491l1.433-1.433A.625.625 0 014.375 10h7.5a.625.625 0 00.625-.625v-6.25a.625.625 0 00-.625-.625h-8.75zm-1.326-.7c.352-.352.829-.55 1.326-.55h8.75a1.875 1.875 0 011.875 1.875v6.25a1.875 1.875 0 01-1.875 1.875H4.634l-2.317 2.317a.625.625 0 01-1.067-.442v-10c0-.497.198-.974.55-1.326z"/></symbol><symbol id="icon-minus-circle" viewBox="0 0 20 20"><title>minus-circle</title><g clip-path="url(#id12a)" fill-rule="evenodd" clip-rule="evenodd"><path d="M10 2.5a7.5 7.5 0 100 15 7.5 7.5 0 000-15zM.833 10a9.167 9.167 0 1118.333 0A9.167 9.167 0 01.833 10z"/><path d="M5.833 10c0-.46.373-.833.833-.833h6.667a.833.833 0 010 1.666H6.666A.833.833 0 015.833 10z"/></g><defs><clipPath id="id12a"><path d="M0 0h20v20H0z"/></clipPath></defs></symbol><symbol id="icon-phone" viewBox="0 0 15 15"><title>phone</title><g clip-path="url(#id17a)"><path d="M13.75 10.575v1.875a1.25 1.25 0 01-1.363 1.25 12.37 12.37 0 01-5.393-1.919c-1.51-.96-2.79-2.24-3.75-3.75a12.369 12.369 0 01-1.92-5.418A1.25 1.25 0 012.57 1.25h1.875a1.25 1.25 0 011.25 1.075c.079.6.226 1.19.437 1.756a1.25 1.25 0 01-.281 1.32l-.794.793a10 10 0 003.75 3.75L9.6 9.15a1.25 1.25 0 011.319-.281 8.027 8.027 0 001.756.437 1.25 1.25 0 011.075 1.27z"/></g><defs><clipPath id="id17a"><path d="M0 0h15v15H0z"/></clipPath></defs></symbol><symbol id="icon-plus-circle" viewBox="0 0 20 21"><title>plus-circle</title><path fill-rule="evenodd" clip-rule="evenodd" d="M10 3a7.5 7.5 0 100 15 7.5 7.5 0 000-15zM.833 10.5a9.167 9.167 0 1118.333 0 9.167 9.167 0 01-18.333 0z"/><path fill-rule="evenodd" clip-rule="evenodd" d="M10 6.333c.46 0 .834.373.834.834v6.666a.833.833 0 01-1.667 0V7.167c0-.46.373-.834.833-.834z"/><path fill-rule="evenodd" clip-rule="evenodd" d="M5.833 10.5c0-.46.373-.833.833-.833h6.667a.833.833 0 010 1.666H6.666a.833.833 0 01-.833-.833z"/></symbol><symbol id="icon-plus" viewBox="0 0 12 13"><title>plus</title><g fill-rule="evenodd" clip-rule="evenodd"><path d="M6 2.4a.6.6 0 01.6.6v7a.6.6 0 11-1.2 0V3a.6.6 0 01.6-.6z"/><path d="M1.9 6.5a.6.6 0 01.6-.6h7a.6.6 0 110 1.2h-7a.6.6 0 01-.6-.6z"/></g></symbol><symbol id="icon-printer" viewBox="0 0 15 15"><title>printer</title><g clip-path="url(#id22a)" fill-rule="evenodd" clip-rule="evenodd"><path d="M3.125 1.25c0-.345.28-.625.625-.625h7.5c.345 0 .625.28.625.625v4.375a.625.625 0 11-1.25 0v-3.75h-6.25v3.75a.625.625 0 11-1.25 0V1.25z"/><path d="M2.5 6.25a.625.625 0 00-.625.625V10a.625.625 0 00.625.625h1.25a.625.625 0 110 1.25H2.5A1.875 1.875 0 01.625 10V6.875A1.875 1.875 0 012.5 5h10a1.875 1.875 0 011.875 1.875V10a1.875 1.875 0 01-1.875 1.875h-1.25a.625.625 0 110-1.25h1.25a.624.624 0 00.625-.625V6.875a.625.625 0 00-.625-.625h-10z"/><path d="M3.125 8.75c0-.345.28-.625.625-.625h7.5c.345 0 .625.28.625.625v5c0 .345-.28.625-.625.625h-7.5a.625.625 0 01-.625-.625v-5zm1.25.625v3.75h6.25v-3.75h-6.25z"/></g><defs><clipPath id="id22a"><path d="M0 0h15v15H0z"/></clipPath></defs></symbol><symbol id="icon-refresh-ccw" viewBox="0 0 20 20"><title>refresh-ccw</title><g clip-path="url(#id20a)" fill-rule="evenodd" clip-rule="evenodd"><path d="M.833 2.5c.46 0 .834.373.834.833V7.5h4.166a.833.833 0 110 1.667h-5A.833.833 0 010 8.333v-5c0-.46.373-.833.833-.833zm12.501 9.166c0-.46.373-.833.833-.833h5c.46 0 .834.373.834.833v5a.833.833 0 11-1.667 0V12.5h-4.167a.833.833 0 01-.833-.834z"/><path d="M7.69 1.997a8.334 8.334 0 0110.17 5.225.833.833 0 01-1.57.556 6.667 6.667 0 00-11.02-2.47L1.405 8.94A.833.833 0 11.263 7.726L4.12 4.102a8.333 8.333 0 013.57-2.105zm12.084 9.1a.833.833 0 01-.037 1.177L15.88 15.9a8.333 8.333 0 01-13.74-3.12.833.833 0 111.57-.557 6.667 6.667 0 0011 2.49l.012-.012.007-.007 3.867-3.633a.833.833 0 011.178.036z"/></g><defs><clipPath id="id20a"><path d="M0 0h20v20H0z"/></clipPath></defs></symbol><symbol id="icon-rotate-ccw" viewBox="0 0 16 15"><title>rotate-ccw</title><g clip-path="url(#id24a)" fill-rule="evenodd" clip-rule="evenodd"><path d="M1.125 1.875c.345 0 .625.28.625.625v3.125h3.125a.625.625 0 110 1.25h-3.75A.625.625 0 01.5 6.25V2.5c0-.345.28-.625.625-.625z"/><path d="M7.128 1.317a6.25 6.25 0 11-5.024 8.266.625.625 0 111.18-.416 5 5 0 101.169-5.186l-2.9 2.724a.625.625 0 01-.856-.91l2.893-2.72a6.25 6.25 0 013.538-1.758z"/></g><defs><clipPath id="id24a"><path transform="translate(.5)" d="M0 0h15v15H0z"/></clipPath></defs></symbol><symbol id="icon-save" viewBox="0 0 15 15"><title>save</title><g fill-rule="evenodd" clip-rule="evenodd"><path d="M3.125 2.5a.625.625 0 00-.625.625v8.75a.625.625 0 00.625.625h8.75a.624.624 0 00.625-.625V5.259L9.741 2.5H3.125zm-1.326-.7c.352-.352.829-.55 1.326-.55H10c.166 0 .325.066.442.183l3.125 3.125A.625.625 0 0113.75 5v6.875a1.875 1.875 0 01-1.875 1.875h-8.75a1.875 1.875 0 01-1.875-1.875v-8.75c0-.497.198-.974.55-1.326z"/><path d="M3.75 8.125c0-.345.28-.625.625-.625h6.25c.345 0 .625.28.625.625v5a.625.625 0 11-1.25 0V8.75H5v4.375a.625.625 0 11-1.25 0v-5zm.625-6.875c.345 0 .625.28.625.625v2.5h4.375a.625.625 0 110 1.25h-5A.625.625 0 013.75 5V1.875c0-.345.28-.625.625-.625z"/></g></symbol><symbol id="icon-send" viewBox="0 0 25 24"><title>send</title><g fill-rule="evenodd" clip-rule="evenodd"><path d="M23.05 1.293a1 1 0 010 1.414l-11 11a1 1 0 01-1.413-1.414l11-11a1 1 0 011.414 0z"/><path d="M23.05 1.293a1 1 0 01.238 1.037l-7 20a1 1 0 01-1.858.076l-3.844-8.648-8.648-3.844a1 1 0 01.075-1.858l20-7a1 1 0 011.038.237zM5.056 9.11l6.695 2.975a1 1 0 01.508.508l2.975 6.695 5.48-15.659L5.056 9.11z"/></g></symbol><symbol id="icon-sliders" viewBox="0 0 15 15"><title>sliders</title><g fill-rule="evenodd" clip-rule="evenodd"><path d="M2.5 8.125c.345 0 .625.28.625.625v4.375a.625.625 0 11-1.25 0V8.75c0-.345.28-.625.625-.625zm0-6.875c.345 0 .625.28.625.625V6.25a.625.625 0 11-1.25 0V1.875c0-.345.28-.625.625-.625zm5 5.625c.345 0 .625.28.625.625v5.625a.625.625 0 11-1.25 0V7.5c0-.345.28-.625.625-.625zm0-5.625c.345 0 .625.28.625.625V5a.625.625 0 11-1.25 0V1.875c0-.345.28-.625.625-.625zm5 8.125c.345 0 .625.28.625.625v3.125a.625.625 0 11-1.25 0V10c0-.345.28-.625.625-.625zm0-8.125c.345 0 .625.28.625.625V7.5a.625.625 0 11-1.25 0V1.875c0-.345.28-.625.625-.625z"/><path d="M0 8.75c0-.345.28-.625.625-.625h3.75a.625.625 0 110 1.25H.625A.625.625 0 010 8.75zM5 5c0-.345.28-.625.625-.625h3.75a.625.625 0 110 1.25h-3.75A.625.625 0 015 5zm5 5c0-.345.28-.625.625-.625h3.75a.625.625 0 110 1.25h-3.75A.625.625 0 0110 10z"/></g></symbol><symbol id="icon-trash-2" viewBox="0 0 15 15"><title>trash-2</title><g fill-rule="evenodd" clip-rule="evenodd"><path d="M1.25 3.75c0-.345.28-.625.625-.625h11.25a.625.625 0 110 1.25H1.875a.625.625 0 01-.625-.625z"/><path d="M6.25 1.875a.625.625 0 00-.625.625v1.25a.625.625 0 11-1.25 0V2.5A1.875 1.875 0 016.25.625h2.5A1.875 1.875 0 0110.625 2.5v1.25a.625.625 0 11-1.25 0V2.5a.625.625 0 00-.625-.625h-2.5zm-3.125 1.25c.345 0 .625.28.625.625v8.75a.625.625 0 00.625.625h6.25a.624.624 0 00.625-.625V3.75a.625.625 0 111.25 0v8.75a1.875 1.875 0 01-1.875 1.875h-6.25A1.875 1.875 0 012.5 12.5V3.75c0-.345.28-.625.625-.625z"/><path d="M6.25 6.25c.345 0 .625.28.625.625v3.75a.625.625 0 11-1.25 0v-3.75c0-.345.28-.625.625-.625zm2.5 0c.345 0 .625.28.625.625v3.75a.625.625 0 11-1.25 0v-3.75c0-.345.28-.625.625-.625z"/></g></symbol><symbol id="icon-user-check" viewBox="0 0 20 20"><title>user-check</title><path d="M1.22 12.887a4.167 4.167 0 012.947-1.22H10a4.167 4.167 0 014.167 4.167V17.5a.833.833 0 11-1.667 0v-1.666a2.5 2.5 0 00-2.5-2.5H4.167a2.5 2.5 0 00-2.5 2.5V17.5A.833.833 0 110 17.5v-1.666a4.17 4.17 0 011.22-2.947zm5.863-9.553a2.5 2.5 0 100 5 2.5 2.5 0 000-5zm-4.167 2.5a4.167 4.167 0 118.333 0 4.167 4.167 0 01-8.333 0zm16.841 1.077a.833.833 0 010 1.179l-3.334 3.333a.833.833 0 01-1.178 0l-1.667-1.667a.833.833 0 111.179-1.178l1.077 1.077 2.744-2.744a.833.833 0 011.179 0z" fill-rule="evenodd" clip-rule="evenodd"/></symbol><symbol id="icon-user" viewBox="0 0 20 20"><title>user</title><path d="M3.72 12.887a4.167 4.167 0 012.947-1.22h6.666a4.167 4.167 0 014.167 4.167V17.5a.833.833 0 11-1.667 0v-1.666a2.5 2.5 0 00-2.5-2.5H6.667a2.5 2.5 0 00-2.5 2.5V17.5a.833.833 0 11-1.667 0v-1.666a4.17 4.17 0 011.22-2.947zM10 3.334a2.5 2.5 0 100 5 2.5 2.5 0 000-5zm-4.166 2.5a4.167 4.167 0 118.333 0 4.167 4.167 0 01-8.333 0z" fill-rule="evenodd" clip-rule="evenodd"/></symbol><symbol id="icon-users" viewBox="0 0 20 20"><title>users</title><path d="M1.22 12.887a4.167 4.167 0 012.947-1.22h6.666A4.167 4.167 0 0115 15.834V17.5a.833.833 0 11-1.667 0v-1.666a2.5 2.5 0 00-2.5-2.5H4.167a2.5 2.5 0 00-2.5 2.5V17.5A.833.833 0 110 17.5v-1.666a4.17 4.17 0 011.22-2.947zM7.5 3.334a2.5 2.5 0 100 5 2.5 2.5 0 000-5zm-4.166 2.5a4.167 4.167 0 118.333 0 4.167 4.167 0 01-8.333 0zM15.86 12.4a.833.833 0 011.016-.599A4.167 4.167 0 0120 15.832V17.5a.833.833 0 11-1.667 0v-1.666a2.5 2.5 0 00-1.875-2.42.833.833 0 01-.598-1.014zm-3.334-9.999a.833.833 0 011.014-.6 4.167 4.167 0 010 8.073.833.833 0 01-.413-1.615 2.5 2.5 0 000-4.844.833.833 0 01-.6-1.014z" fill-rule="evenodd" clip-rule="evenodd"/></symbol></svg>