<svg xmlns="http://www.w3.org/2000/svg"><symbol id="icon-color-bell" viewBox="0 0 25 24"><title>bell</title><path class="ph1" d="M18.344 8a6 6 0 00-12 0c0 7-3 9-3 9h18s-3-2-3-9z"/><path class="ph2" d="M14.073 21a2 2 0 01-3.46 0"/></symbol><symbol fill="none" id="icon-color-logo" viewBox="0 0 161 18"><title>logo</title><path fill-rule="evenodd" clip-rule="evenodd" d="M24.516 3.06h8.82v2.538h-5.832V8.1h1.8c.815 0 1.542.105 2.178.315.635.21 1.17.498 1.602.864a3.72 3.72 0 011.332 2.907 4.37 4.37 0 01-.333 1.71 3.926 3.926 0 01-.981 1.386c-.432.396-.967.708-1.602.936-.636.228-1.368.342-2.196.342h-4.788V3.06zm4.77 11.016c.66 0 1.182-.162 1.566-.486.383-.324.576-.792.576-1.404 0-.516-.186-.942-.558-1.278-.373-.336-.9-.504-1.584-.504H27.45v3.672h1.836zm6.498 2.484V15.3l4.59-12.24h3.042l4.572 12.06v1.44h-2.592l-1.044-2.862h-5.148l-1.026 2.862h-2.394zm6.012-10.278l-1.764 4.968h3.528l-1.764-4.968zm7.938-3.222h2.988v5.31h5.292V3.06h2.988v13.5h-2.988v-5.67h-5.292v5.67h-2.988V3.06zm17.208 13.5h-2.988V3.06h2.988v5.796L71.82 3.06h2.358v1.35l-4.41 5.13 4.914 5.616v1.404h-2.628l-5.112-5.868v5.868zm14.256-13.5h4.338c.792 0 1.509.105 2.15.315.642.21 1.188.507 1.638.891a3.93 3.93 0 011.044 1.395c.247.546.37 1.161.37 1.845 0 .588-.11 1.171-.324 1.719a4.192 4.192 0 01-.981 1.485c-.439.432-.981.78-1.63 1.044-.647.264-1.403.396-2.267.396h-1.35v4.41h-2.988V3.06zm4.32 6.606c.696 0 1.242-.194 1.638-.585.396-.39.594-.909.594-1.557 0-.576-.193-1.05-.576-1.422-.384-.372-.936-.558-1.656-.558h-1.386v4.122h1.386zm7.254-6.606h8.478v2.538h-5.49V8.46h4.86v2.34h-4.86v3.222h5.49v2.538h-8.478V3.06zm15.696 13.77c-.816 0-1.521-.099-2.116-.297-.594-.198-1.088-.441-1.484-.729a3.638 3.638 0 01-.918-.927c-.216-.33-.348-.621-.396-.873v-1.35h2.358c.023.132.08.297.171.495.09.198.23.387.423.567.192.18.44.333.746.459.307.126.681.189 1.126.189.684 0 1.206-.168 1.566-.504.36-.336.54-.774.54-1.314 0-.516-.171-.936-.513-1.26-.343-.324-.904-.486-1.683-.486h-1.62V8.532h1.404c.648 0 1.13-.166 1.449-.495.318-.33.477-.741.477-1.233 0-.48-.177-.861-.532-1.143-.353-.282-.782-.423-1.286-.423-.373 0-.687.054-.946.162a1.91 1.91 0 00-.62.396 1.6 1.6 0 00-.351.504c-.078.18-.123.342-.135.486h-2.358v-1.35c.048-.228.165-.495.351-.801.186-.306.459-.594.819-.864.36-.27.815-.5 1.368-.693.552-.192 1.224-.288 2.016-.288a6.39 6.39 0 011.845.252 4.25 4.25 0 011.44.73c.402.317.714.707.936 1.169.222.462.333.987.333 1.575a3.13 3.13 0 01-.504 1.746c-.337.516-.81.9-1.422 1.152.768.204 1.365.585 1.791 1.143.426.558.639 1.239.639 2.043a4.45 4.45 0 01-.324 1.719 3.618 3.618 0 01-.954 1.341c-.42.372-.936.66-1.548.864-.612.204-1.309.306-2.088.306zm17.982 0c-.877 0-1.68-.147-2.412-.441a6.05 6.05 0 01-1.926-1.224 6.135 6.135 0 01-1.341-1.881 7.956 7.956 0 01-.675-2.394h-1.494v5.67h-2.988V3.06h2.988v5.31h1.548a7.588 7.588 0 01.72-2.25 6.1 6.1 0 011.332-1.764 5.942 5.942 0 011.881-1.152c.714-.276 1.503-.414 2.367-.414.984 0 1.872.174 2.664.522a5.827 5.827 0 012.025 1.458 6.565 6.565 0 011.287 2.205c.3.846.45 1.773.45 2.781 0 1.02-.15 1.962-.45 2.826a6.604 6.604 0 01-1.288 2.24 5.861 5.861 0 01-2.024 1.477c-.792.354-1.68.531-2.664.531zm0-2.538c.54 0 1.026-.114 1.458-.342.43-.227.803-.55 1.088-.945a4.44 4.44 0 00.676-1.44c.16-.59.238-1.198.234-1.809 0-.636-.078-1.224-.234-1.764a4.274 4.274 0 00-.684-1.404 3.215 3.215 0 00-1.09-.927 3.076 3.076 0 00-1.448-.333c-.54 0-1.023.11-1.449.333-.426.222-.796.54-1.08.927a4.361 4.361 0 00-.675 1.404 6.298 6.298 0 00-.234 1.764c0 .648.077 1.25.234 1.809a4.43 4.43 0 00.675 1.44 3.19 3.19 0 001.08.945c.426.228.909.342 1.449.342zm11.466-6.948v9.216h-2.808V3.06h3.672l3.276 6.876 3.204-6.876h3.654v13.5h-2.97V7.344l-3.024 6.354h-1.998l-3.006-6.354zm13.95-4.284h8.478v2.538h-5.49V8.46h4.86v2.34h-4.86v3.222h5.49v2.538h-8.478V3.06z" fill="#292929"/><path d="M6 6V0h9.12A2.88 2.88 0 0118 2.88V12h-6v6H2.88A2.88 2.88 0 010 15.12V6h6zm0 0v6h6V6H6z" fill="#007DB6"/></symbol></svg>