<svg xmlns="http://www.w3.org/2000/svg"><symbol id="icon-camera" viewBox="0 0 16 17"><title>camera</title><g fill-rule="evenodd" clip-rule="evenodd"><path d="M5.445 2.13A.667.667 0 016 1.834h4c.223 0 .431.11.555.296l1.135 1.704H14a2 2 0 012 2v7.333a2 2 0 01-2 2H2a2 2 0 01-2-2V5.834a2 2 0 012-2h2.31L5.445 2.13zm.912 1.037L5.22 4.87a.667.667 0 01-.554.297H2a.667.667 0 00-.667.667v7.333a.667.667 0 00.667.667h12a.666.666 0 00.667-.667V5.834A.667.667 0 0014 5.167h-2.667a.667.667 0 01-.554-.297L9.643 3.167H6.357z"/><path d="M8 7.167a2 2 0 100 4 2 2 0 000-4zm-3.333 2a3.333 3.333 0 116.666 0 3.333 3.333 0 01-6.666 0z"/></g></symbol><symbol id="icon-check" viewBox="0 0 20 20"><title>check</title><path fill-rule="evenodd" clip-rule="evenodd" d="M17.317 5.183a.625.625 0 010 .884l-8.75 8.75a.625.625 0 01-.884 0l-4.375-4.375a.625.625 0 11.884-.884l3.933 3.933 8.308-8.308a.625.625 0 01.884 0z"/></symbol><symbol id="icon-close" viewBox="0 0 18 18"><title>close</title><g fill-rule="evenodd" clip-rule="evenodd"><path d="M14.03 3.97a.75.75 0 010 1.06l-9 9a.75.75 0 01-1.06-1.06l9-9a.75.75 0 011.06 0z"/><path d="M3.97 3.97a.75.75 0 011.06 0l9 9a.75.75 0 11-1.06 1.06l-9-9a.75.75 0 010-1.06z"/></g></symbol><symbol id="icon-eye-off" viewBox="0 0 16 17"><title>eye-off</title><g clip-path="url(#id1a)" fill-rule="evenodd" clip-rule="evenodd"><path d="M7.998 3.833a5.413 5.413 0 00-1.246.143.667.667 0 11-.304-1.298A6.746 6.746 0 018.001 2.5L8 3.167V2.5c2.6 0 4.597 1.484 5.903 2.877a13.784 13.784 0 011.888 2.567 8.115 8.115 0 01.127.236l.008.015.002.004.001.002-.596.299-.588-.314c-.056.105-.114.21-.173.313a12.447 12.447 0 00-1.642-2.21C11.736 5.016 10.067 3.833 8 3.833h-.002zM14.572 8.5c-.345.6-.743 1.168-1.189 1.698a.667.667 0 001.02.859 13 13 0 001.518-2.242.667.667 0 00.009-.612l-.597.298-.596.299v-.001l-.004-.008a6.966 6.966 0 00-.16-.291zM4.57 4.135a.667.667 0 01-.125.935 11.633 11.633 0 00-3.017 3.432 12.45 12.45 0 001.641 2.209c1.194 1.272 2.861 2.454 4.926 2.456a6.047 6.047 0 003.56-1.237.667.667 0 01.81 1.06A7.38 7.38 0 018.01 14.5H8c-2.6 0-4.597-1.484-5.903-2.877A13.784 13.784 0 01.209 9.056a8.23 8.23 0 01-.127-.236l-.008-.015-.002-.004-.001-.002.596-.299-.597.298a.667.667 0 01.01-.613A12.967 12.967 0 013.634 4.01a.667.667 0 01.935.125zm2.504 2.497a.667.667 0 01-.033.942A1.333 1.333 0 108.926 9.46a.667.667 0 01.975.909 2.666 2.666 0 11-3.769-3.77.667.667 0 01.942.034z"/><path d="M.195.695c.26-.26.683-.26.943 0l14.667 14.667a.667.667 0 11-.943.943L.195 1.638a.667.667 0 010-.943z"/></g><defs><clipPath id="id1a"><path transform="translate(0 .5)" d="M0 0h16v16H0z"/></clipPath></defs></symbol><symbol id="icon-eye" viewBox="0 0 16 17"><title>eye</title><path fill-rule="evenodd" clip-rule="evenodd" d="M1.427 8.5a12.45 12.45 0 001.643 2.21c1.194 1.274 2.863 2.457 4.93 2.457 2.067 0 3.736-1.183 4.93-2.456A12.447 12.447 0 0014.573 8.5a12.448 12.448 0 00-1.643-2.21C11.736 5.015 10.067 3.832 8 3.832c-2.067 0-3.736 1.183-4.93 2.456A12.45 12.45 0 001.427 8.5zm13.906 0c.597-.298.597-.298.596-.299V8.2l-.003-.004-.008-.015a12.393 12.393 0 00-.515-.875 13.785 13.785 0 00-1.5-1.928C12.597 3.984 10.6 2.5 8 2.5c-2.6 0-4.597 1.484-5.903 2.877A13.784 13.784 0 00.209 7.944a8.253 8.253 0 00-.127.236l-.008.015-.002.004-.001.002.596.299-.597-.298a.667.667 0 000 .596L.667 8.5l-.597.298.002.003.002.004.008.015a5.066 5.066 0 00.127.236 13.783 13.783 0 001.888 2.567C3.403 13.016 5.4 14.5 8 14.5c2.6 0 4.597-1.484 5.903-2.877a13.784 13.784 0 001.888-2.567 8.137 8.137 0 00.127-.236l.008-.015.002-.004.001-.002-.596-.299zm0 0l.597.298a.668.668 0 000-.597l-.597.299z"/><path fill-rule="evenodd" clip-rule="evenodd" d="M8 7.167a1.333 1.333 0 100 2.666 1.333 1.333 0 000-2.666zM5.333 8.5a2.667 2.667 0 115.334 0 2.667 2.667 0 01-5.333 0z"/></symbol><symbol id="icon-logo1" viewBox="0 0 169 68"><title>logo1</title><path d="M148.695 67.767c1.349 0 2.409-.482 3.181-1.35l-.772-.77c-.674.674-1.446 1.06-2.409 1.06-1.928 0-3.278-1.35-3.278-3.278a3.25 3.25 0 013.278-3.277c.963 0 1.735.289 2.409.964l.772-.771c-.772-.868-1.928-1.35-3.181-1.35-2.603 0-4.531 1.832-4.531 4.338.096 2.603 2.024 4.434 4.531 4.434zm7.422-1.157v-2.699h4.242v-1.06h-4.242v-2.603h4.724v-1.06h-5.977v8.483h6.169v-1.06h-4.916zm-16.291 1.06h1.253v-8.482h-1.253v8.483zm-3.663-8.482l-3.085 6.94-3.085-6.94h-1.349l3.759 8.483h1.157l3.663-8.483h-1.06zm-13.014 4.916h-2.024v-3.76h2.024c1.543 0 2.314.675 2.314 1.929.096 1.06-.771 1.831-2.314 1.831zm3.76 3.567l-2.025-2.796c1.157-.385 1.832-1.35 1.832-2.699 0-1.831-1.35-2.988-3.567-2.988h-3.277v8.483h1.253v-2.603h2.699l1.832 2.603h1.253zm-15.231-1.06v-2.7h4.242v-1.06h-4.242v-2.603h4.724v-1.06h-5.977v8.483h6.169v-1.06h-4.916zm-7.615 1.156c2.217 0 3.277-1.157 3.277-2.41 0-3.084-5.109-1.831-5.109-3.856 0-.77.579-1.35 2.024-1.35.772 0 1.543.194 2.314.676l.386-.964c-.675-.482-1.736-.772-2.7-.772-2.217 0-3.277 1.157-3.277 2.41 0 3.182 5.109 1.832 5.109 3.856 0 .771-.675 1.35-2.121 1.35-1.06 0-2.12-.386-2.795-.964l-.482.964c.867.675 2.12 1.06 3.374 1.06zm-13.689-.096h1.157v-7.423h2.892v-1.06h-7.037v1.06h2.892v7.423h.096zm-8.386-3.567h-2.025v-3.76h2.025c1.542 0 2.313.675 2.313 1.929 0 1.06-.77 1.831-2.313 1.831zm3.663 3.567l-2.025-2.796c1.157-.385 1.832-1.35 1.832-2.699 0-1.831-1.35-2.988-3.567-2.988h-3.277v8.483h1.253v-2.603h2.7l1.83 2.603h1.254zm-15.135-1.06v-2.7h4.242v-1.06h-4.242v-2.603h4.724v-1.06h-5.977v8.483h6.17v-1.06h-4.917zm-7.904-2.507h-2.024v-3.76h2.024c1.542 0 2.313.675 2.313 1.929 0 1.06-.77 1.831-2.313 1.831zm0-4.916h-3.278v8.483h1.254v-2.603h2.12c2.217 0 3.567-1.157 3.567-2.988-.096-1.735-1.446-2.892-3.663-2.892zm-5.784 8.483l-3.181-4.338 2.988-4.049h-1.35l-2.313 3.278-2.41-3.278h-1.35l2.989 4.145-3.181 4.338h1.35l2.506-3.47 2.506 3.47h1.446v-.096zm-14.845-1.06v-2.7h4.241v-1.06h-4.241v-2.603h4.723v-1.06H40.73v8.483h6.17v-1.06h-4.917zm-11.278 0v-6.363h2.313c2.12 0 3.47 1.253 3.47 3.181 0 1.928-1.35 3.181-3.47 3.181h-2.314zm-1.254 1.06h3.567c2.7 0 4.53-1.735 4.53-4.242 0-2.506-1.83-4.241-4.53-4.241h-3.567v8.483zm-8.193-1.06v-2.7h4.241v-1.06h-4.241v-2.603h4.723v-1.06h-5.977v8.483h6.17v-1.06h-4.916zm-5.11 1.06v-8.483h-.963l-3.47 5.977-3.567-5.977h-.964v8.483H8.34V61.5l3.085 5.11h.578l3.085-5.11v6.17h1.06zm100.831-44.729a9.038 9.038 0 00-1.156-1.735 5.195 5.195 0 00-3.664-1.542c-1.349 0-2.699.482-3.663 1.542l-3.663 3.663 3.663 3.664a5.195 5.195 0 003.663 1.542c1.35 0 2.7-.482 3.664-1.542a5.465 5.465 0 001.156-1.736c.289-.674.386-1.35.386-2.024.096-.578-.097-1.253-.386-1.832zM51.525 4.049c-.578-1.254-.096-2.7 1.157-3.278 1.253-.578 2.7-.096 3.278 1.157L77.745 46.27c.579 1.253.097 2.699-1.157 3.277-1.253.578-2.699.096-3.277-1.157L51.525 4.05zm-29.593 0c-.579-1.254-.097-2.7 1.157-3.278 1.253-.578 2.699-.096 3.277 1.157L48.152 46.27c.578 1.253.096 2.699-1.157 3.277-1.253.578-2.7.096-3.277-1.157L21.931 4.05zM9.593 27.184c.579-1.253 2.025-1.735 3.278-1.157 1.253.578 1.735 2.024 1.157 3.278l-9.35 19.183c-.58 1.253-2.025 1.735-3.278 1.157C.146 49.066-.336 47.62.243 46.367l9.35-19.183zM84.59 2.41C84.59 1.06 85.652 0 87 0c1.35 0 2.41 1.06 2.41 2.41v44.92c0 1.35-1.06 2.41-2.41 2.41a2.387 2.387 0 01-2.41-2.41V2.41z"/><path d="M116.691 0c1.35 0 2.41 1.06 2.41 2.41s-1.06 2.41-2.41 2.41h-29.69c-1.35 0-2.41-1.06-2.41-2.41S85.65 0 87 0h29.69zm0 44.921c1.35 0 2.41 1.06 2.41 2.41s-1.06 2.41-2.41 2.41h-29.69c-1.35 0-2.41-1.06-2.41-2.41s1.06-2.41 2.41-2.41h29.69zm14.267-31.233c0 1.35-1.061 2.41-2.41 2.41-1.35 0-2.41-1.06-2.41-2.41 0-3.76 1.542-7.23 4.048-9.64C132.693 1.543 136.067 0 139.826 0h21.786c1.349 0 2.41 1.06 2.41 2.41s-1.061 2.41-2.41 2.41h-21.786c-2.41 0-4.627.964-6.169 2.603a8.528 8.528 0 00-2.699 6.265zm-.676 36.149a2.386 2.386 0 01-2.409-2.41c0-1.35 1.06-2.41 2.409-2.41h24.389c2.41 0 4.627-.964 6.169-2.602 1.639-1.64 2.603-3.76 2.603-6.17s-.964-4.627-2.603-6.17c-1.638-1.638-3.759-2.602-6.169-2.602h-14.845c-1.35 0-2.41-1.06-2.41-2.41s1.06-2.41 2.41-2.41h14.845c3.759 0 7.23 1.543 9.64 4.049 2.506 2.506 4.048 5.88 4.048 9.64 0 3.76-1.542 7.23-4.048 9.64-2.507 2.506-5.881 4.048-9.64 4.048h-24.389v-.193z"/></symbol><symbol id="icon-minus-circle" viewBox="0 0 20 20"><title>minus-circle</title><g clip-path="url(#id3a)" fill-rule="evenodd" clip-rule="evenodd"><path d="M10 2.5a7.5 7.5 0 100 15 7.5 7.5 0 000-15zM.833 10a9.167 9.167 0 1118.333 0A9.167 9.167 0 01.833 10z"/><path d="M5.833 10c0-.46.373-.833.833-.833h6.667a.833.833 0 010 1.666H6.666A.833.833 0 015.833 10z"/></g><defs><clipPath id="id3a"><path d="M0 0h20v20H0z"/></clipPath></defs></symbol><symbol id="icon-plus-circle" viewBox="0 0 20 21"><title>plus-circle</title><path fill-rule="evenodd" clip-rule="evenodd" d="M10 3a7.5 7.5 0 100 15 7.5 7.5 0 000-15zM.833 10.5a9.167 9.167 0 1118.333 0 9.167 9.167 0 01-18.333 0z"/><path fill-rule="evenodd" clip-rule="evenodd" d="M10 6.333c.46 0 .834.373.834.834v6.666a.833.833 0 01-1.667 0V7.167c0-.46.373-.834.833-.834z"/><path fill-rule="evenodd" clip-rule="evenodd" d="M5.833 10.5c0-.46.373-.833.833-.833h6.667a.833.833 0 010 1.666H6.666a.833.833 0 01-.833-.833z"/></symbol></svg>