<svg width="15" height="15" viewBox="0 0 15 15" xmlns="http://www.w3.org/2000/svg">
<g id="arrow-up">
<path id="Vector (Stroke)" fill-rule="evenodd" clip-rule="evenodd" d="M7.5 2.5C7.84518 2.5 8.125 2.77982 8.125 3.125V11.875C8.125 12.2202 7.84518 12.5 7.5 12.5C7.15482 12.5 6.875 12.2202 6.875 11.875V3.125C6.875 2.77982 7.15482 2.5 7.5 2.5Z"/>
<path id="Vector (Stroke)_2" fill-rule="evenodd" clip-rule="evenodd" d="M7.05806 2.68306C7.30214 2.43898 7.69786 2.43898 7.94194 2.68306L12.3169 7.05806C12.561 7.30214 12.561 7.69786 12.3169 7.94194C12.0729 8.18602 11.6771 8.18602 11.4331 7.94194L7.5 4.00888L3.56694 7.94194C3.32286 8.18602 2.92714 8.18602 2.68306 7.94194C2.43898 7.69786 2.43898 7.30214 2.68306 7.05806L7.05806 2.68306Z"/>
</g>
</svg>
