<svg width="25" height="24" viewBox="0 0 25 24" fill="none" xmlns="http://www.w3.org/2000/svg">
<g id="bell">
<path class="ph1" id="Vector" d="M18.3438 8C18.3438 6.4087 17.7116 4.88258 16.5864 3.75736C15.4612 2.63214 13.935 2 12.3438 2C10.7525 2 9.22633 2.63214 8.10111 3.75736C6.97589 4.88258 6.34375 6.4087 6.34375 8C6.34375 15 3.34375 17 3.34375 17H21.3438C21.3438 17 18.3438 15 18.3438 8Z" stroke="#292929" stroke-width="2" stroke-linecap="round" stroke-linejoin="round"/>
<path class="ph2" id="Vector_2" d="M14.0733 21C13.8975 21.3031 13.6451 21.5547 13.3415 21.7295C13.0379 21.9044 12.6937 21.9965 12.3433 21.9965C11.9929 21.9965 11.6487 21.9044 11.3451 21.7295C11.0414 21.5547 10.7891 21.3031 10.6133 21" stroke="#292929" stroke-width="2" stroke-linecap="round" stroke-linejoin="round"/>
</g>
</svg>
