<svg width="15" height="15" viewBox="0 0 15 15" fill="none" xmlns="http://www.w3.org/2000/svg">
<g id="calendar">
<path id="Vector (Stroke)" fill-rule="evenodd" clip-rule="evenodd" d="M3.125 3.125C2.77982 3.125 2.5 3.40482 2.5 3.75V12.5C2.5 12.8452 2.77982 13.125 3.125 13.125H11.875C12.2202 13.125 12.5 12.8452 12.5 12.5V3.75C12.5 3.40482 12.2202 3.125 11.875 3.125H3.125ZM1.25 3.75C1.25 2.71447 2.08947 1.875 3.125 1.875H11.875C12.9105 1.875 13.75 2.71447 13.75 3.75V12.5C13.75 13.5355 12.9105 14.375 11.875 14.375H3.125C2.08947 14.375 1.25 13.5355 1.25 12.5V3.75Z" fill="white"/>
<path id="Vector (Stroke)_2" fill-rule="evenodd" clip-rule="evenodd" d="M10 0.625C10.3452 0.625 10.625 0.904822 10.625 1.25V3.75C10.625 4.09518 10.3452 4.375 10 4.375C9.65482 4.375 9.375 4.09518 9.375 3.75V1.25C9.375 0.904822 9.65482 0.625 10 0.625Z" fill="white"/>
<path id="Vector (Stroke)_3" fill-rule="evenodd" clip-rule="evenodd" d="M5 0.625C5.34518 0.625 5.625 0.904822 5.625 1.25V3.75C5.625 4.09518 5.34518 4.375 5 4.375C4.65482 4.375 4.375 4.09518 4.375 3.75V1.25C4.375 0.904822 4.65482 0.625 5 0.625Z" fill="white"/>
<path id="Vector (Stroke)_4" fill-rule="evenodd" clip-rule="evenodd" d="M1.25 6.25C1.25 5.90482 1.52982 5.625 1.875 5.625H13.125C13.4702 5.625 13.75 5.90482 13.75 6.25C13.75 6.59518 13.4702 6.875 13.125 6.875H1.875C1.52982 6.875 1.25 6.59518 1.25 6.25Z" fill="white"/>
</g>
</svg>
