<svg width="16" height="17" viewBox="0 0 16 17" fill="none" xmlns="http://www.w3.org/2000/svg">
<g id="camera">
<path id="Vector (Stroke)" fill-rule="evenodd" clip-rule="evenodd" d="M5.4453 2.13036C5.56894 1.9449 5.7771 1.8335 6 1.8335H10C10.2229 1.8335 10.4311 1.9449 10.5547 2.13036L11.6901 3.8335H14C14.5304 3.8335 15.0391 4.04421 15.4142 4.41928C15.7893 4.79436 16 5.30306 16 5.8335V13.1668C16 13.6973 15.7893 14.206 15.4142 14.581C15.0391 14.9561 14.5304 15.1668 14 15.1668H2C1.46957 15.1668 0.960859 14.9561 0.585786 14.581C0.210714 14.206 0 13.6973 0 13.1668V5.8335C0 5.30306 0.210714 4.79436 0.585786 4.41928C0.960859 4.04421 1.46957 3.8335 2 3.8335H4.30988L5.4453 2.13036ZM6.35679 3.16683L5.22137 4.86996C5.09772 5.05543 4.88957 5.16683 4.66667 5.16683H2C1.82319 5.16683 1.65362 5.23707 1.5286 5.36209C1.40357 5.48712 1.33333 5.65669 1.33333 5.8335V13.1668C1.33333 13.3436 1.40357 13.5132 1.5286 13.6382C1.65362 13.7633 1.82319 13.8335 2 13.8335H14C14.1768 13.8335 14.3464 13.7633 14.4714 13.6382C14.5964 13.5132 14.6667 13.3436 14.6667 13.1668V5.8335C14.6667 5.65669 14.5964 5.48712 14.4714 5.36209C14.3464 5.23707 14.1768 5.16683 14 5.16683H11.3333C11.1104 5.16683 10.9023 5.05543 10.7786 4.86996L9.64321 3.16683H6.35679Z" fill="#A0A0A0"/>
<path id="Vector (Stroke)_2" fill-rule="evenodd" clip-rule="evenodd" d="M8.00008 7.16683C6.89551 7.16683 6.00008 8.06226 6.00008 9.16683C6.00008 10.2714 6.89551 11.1668 8.00008 11.1668C9.10465 11.1668 10.0001 10.2714 10.0001 9.16683C10.0001 8.06226 9.10465 7.16683 8.00008 7.16683ZM4.66675 9.16683C4.66675 7.32588 6.15913 5.8335 8.00008 5.8335C9.84103 5.8335 11.3334 7.32588 11.3334 9.16683C11.3334 11.0078 9.84103 12.5002 8.00008 12.5002C6.15913 12.5002 4.66675 11.0078 4.66675 9.16683Z" fill="#A0A0A0"/>
</g>
</svg>
