<svg width="16" height="15" viewBox="0 0 16 15" fill="none" xmlns="http://www.w3.org/2000/svg">
<g id="edit-2">
<path id="Vector (Stroke)" fill-rule="evenodd" clip-rule="evenodd" d="M12.375 1.98242C12.2249 1.98242 12.0763 2.01198 11.9377 2.06941C11.799 2.12684 11.6731 2.21101 11.567 2.31713L3.24682 10.6373L2.64078 12.8594L4.86294 12.2534L13.1831 3.93325C13.2892 3.82713 13.3734 3.70115 13.4308 3.56251C13.4882 3.42386 13.5178 3.27526 13.5178 3.12519C13.5178 2.97512 13.4882 2.82652 13.4308 2.68787C13.3734 2.54922 13.2892 2.42325 13.1831 2.31713C13.077 2.21101 12.951 2.12684 12.8123 2.06941C12.6737 2.01198 12.5251 1.98242 12.375 1.98242ZM11.4593 0.91456C11.7496 0.794312 12.0608 0.732422 12.375 0.732422C12.6892 0.732422 13.0004 0.794313 13.2907 0.91456C13.581 1.03481 13.8448 1.21106 14.067 1.43325C14.2891 1.65544 14.4654 1.91921 14.5856 2.20952C14.7059 2.49982 14.7678 2.81097 14.7678 3.12519C14.7678 3.43941 14.7059 3.75056 14.5856 4.04086C14.4654 4.33117 14.2891 4.59494 14.067 4.81713L5.62946 13.2546C5.55255 13.3315 5.4569 13.387 5.35196 13.4157L1.91446 14.3532C1.69808 14.4122 1.46667 14.3507 1.30807 14.1921C1.14948 14.0335 1.08802 13.8021 1.14704 13.5857L2.08454 10.1482C2.11316 10.0433 2.16866 9.94766 2.24557 9.87075L10.6831 1.43325C10.9053 1.21106 11.169 1.03481 11.4593 0.91456Z" fill="#007DB6"/>
</g>
</svg>
