<svg width="20" height="20" viewBox="0 0 20 20"  xmlns="http://www.w3.org/2000/svg">
<g id="filter">
<path id="Vector (Stroke)" fill-rule="evenodd" clip-rule="evenodd" d="M0.911397 2.14959C1.04795 1.85529 1.34289 1.66699 1.66733 1.66699H18.334C18.6584 1.66699 18.9534 1.85529 19.0899 2.14959C19.2265 2.4439 19.1798 2.7907 18.9703 3.03843L12.5007 10.6888V17.5003C12.5007 17.7891 12.3511 18.0574 12.1054 18.2092C11.8598 18.361 11.553 18.3748 11.2947 18.2457L7.96132 16.579C7.679 16.4379 7.50066 16.1493 7.50066 15.8337V10.6888L1.03102 3.03843C0.821523 2.7907 0.774849 2.4439 0.911397 2.14959ZM3.46342 3.33366L8.9703 9.84556C9.09752 9.99599 9.16733 10.1866 9.16733 10.3837V15.3186L10.834 16.152V10.3837C10.834 10.1866 10.9038 9.99599 11.031 9.84556L16.5379 3.33366H3.46342Z" />
</g>
</svg>
