<svg width="15" height="15" viewBox="0 0 15 15" fill="none" xmlns="http://www.w3.org/2000/svg">
<g id="globe" clip-path="url(#clip0_108_12798)">
<path id="Vector (Stroke)" fill-rule="evenodd" clip-rule="evenodd" d="M7.5 1.875C4.3934 1.875 1.875 4.3934 1.875 7.5C1.875 10.6066 4.3934 13.125 7.5 13.125C10.6066 13.125 13.125 10.6066 13.125 7.5C13.125 4.3934 10.6066 1.875 7.5 1.875ZM0.625 7.5C0.625 3.70304 3.70304 0.625 7.5 0.625C11.297 0.625 14.375 3.70304 14.375 7.5C14.375 11.297 11.297 14.375 7.5 14.375C3.70304 14.375 0.625 11.297 0.625 7.5Z" fill="white"/>
<path id="Vector (Stroke)_2" fill-rule="evenodd" clip-rule="evenodd" d="M0.625 7.5C0.625 7.15482 0.904822 6.875 1.25 6.875H13.75C14.0952 6.875 14.375 7.15482 14.375 7.5C14.375 7.84518 14.0952 8.125 13.75 8.125H1.25C0.904822 8.125 0.625 7.84518 0.625 7.5Z" fill="white"/>
<path id="Vector (Stroke)_3" fill-rule="evenodd" clip-rule="evenodd" d="M7.5 0.625C7.67558 0.625 7.84305 0.69885 7.96147 0.828486C9.62694 2.65182 10.5734 5.01803 10.6249 7.48698C10.625 7.49566 10.625 7.50434 10.6249 7.51302C10.5734 9.98196 9.62694 12.3482 7.96147 14.1715C7.84305 14.3011 7.67558 14.375 7.5 14.375C7.32442 14.375 7.15695 14.3011 7.03853 14.1715C5.37306 12.3482 4.42657 9.98196 4.37514 7.51302C4.37495 7.50434 4.37495 7.49566 4.37514 7.48698C4.42657 5.01803 5.37306 2.65182 7.03853 0.828486C7.15695 0.69885 7.32442 0.625 7.5 0.625ZM5.62515 7.5C5.66798 9.42177 6.32891 11.272 7.5 12.7808C8.67109 11.272 9.33202 9.42177 9.37486 7.5C9.33202 5.57822 8.67109 3.72803 7.5 2.21925C6.32891 3.72803 5.66798 5.57822 5.62515 7.5Z" fill="white"/>
</g>
<defs>
<clipPath id="clip0_108_12798">
<rect width="15" height="15" fill="white"/>
</clipPath>
</defs>
</svg>
