<svg width="16" height="16" viewBox="0 0 16 16" xmlns="http://www.w3.org/2000/svg">
<g id="log-in">
<path id="Vector (Stroke)" fill-rule="evenodd" clip-rule="evenodd" d="M9.33398 1.99967C9.33398 1.63148 9.63246 1.33301 10.0007 1.33301H12.6673C13.1978 1.33301 13.7065 1.54372 14.0815 1.91879C14.4566 2.29387 14.6673 2.80257 14.6673 3.33301V12.6663C14.6673 13.1968 14.4566 13.7055 14.0815 14.0806C13.7065 14.4556 13.1978 14.6663 12.6673 14.6663H10.0007C9.63246 14.6663 9.33398 14.3679 9.33398 13.9997C9.33398 13.6315 9.63246 13.333 10.0007 13.333H12.6673C12.8441 13.333 13.0137 13.2628 13.1387 13.1377C13.2637 13.0127 13.334 12.8432 13.334 12.6663V3.33301C13.334 3.1562 13.2637 2.98663 13.1387 2.8616C13.0137 2.73658 12.8441 2.66634 12.6673 2.66634H10.0007C9.63246 2.66634 9.33398 2.36786 9.33398 1.99967Z"/>
<path id="Vector (Stroke)_2" fill-rule="evenodd" clip-rule="evenodd" d="M6.19526 4.19526C6.45561 3.93491 6.87772 3.93491 7.13807 4.19526L10.4714 7.5286C10.7318 7.78894 10.7318 8.21106 10.4714 8.4714L7.13807 11.8047C6.87772 12.0651 6.45561 12.0651 6.19526 11.8047C5.93491 11.5444 5.93491 11.1223 6.19526 10.8619L9.05719 8L6.19526 5.13807C5.93491 4.87772 5.93491 4.45561 6.19526 4.19526Z" />
<path id="Vector (Stroke)_3" fill-rule="evenodd" clip-rule="evenodd" d="M1.33398 7.99967C1.33398 7.63148 1.63246 7.33301 2.00065 7.33301H10.0007C10.3688 7.33301 10.6673 7.63148 10.6673 7.99967C10.6673 8.36786 10.3688 8.66634 10.0007 8.66634H2.00065C1.63246 8.66634 1.33398 8.36786 1.33398 7.99967Z" />
</g>
</svg>
