<svg width="15" height="16" viewBox="0 0 15 16" fill="none" xmlns="http://www.w3.org/2000/svg">
<g id="map-pin" clip-path="url(#clip0_108_12786)">
<path id="Vector (Stroke)" fill-rule="evenodd" clip-rule="evenodd" d="M7.5 1.75C6.17392 1.75 4.90215 2.27678 3.96447 3.21447C3.02678 4.15215 2.5 5.42392 2.5 6.75C2.5 8.68629 3.75984 10.5652 5.14122 12.0233C5.81913 12.7389 6.49917 13.3247 7.01042 13.7318C7.2007 13.8833 7.36689 14.0095 7.5 14.1079C7.63311 14.0095 7.7993 13.8833 7.98958 13.7318C8.50083 13.3247 9.18087 12.7389 9.85878 12.0233C11.2402 10.5652 12.5 8.68629 12.5 6.75C12.5 5.42392 11.9732 4.15215 11.0355 3.21447C10.0979 2.27678 8.82608 1.75 7.5 1.75ZM7.5 14.875C7.15331 15.395 7.15315 15.3949 7.15297 15.3948L7.15119 15.3936L7.14702 15.3908L7.1327 15.3811C7.12053 15.3729 7.10317 15.361 7.08097 15.3456C7.03658 15.3149 6.97279 15.2701 6.89237 15.212C6.73159 15.0959 6.50398 14.9264 6.23176 14.7096C5.68833 14.2769 4.96212 13.6518 4.23378 12.883C2.80266 11.3723 1.25 9.18871 1.25 6.75C1.25 5.0924 1.90848 3.50269 3.08058 2.33058C4.25269 1.15848 5.8424 0.5 7.5 0.5C9.1576 0.5 10.7473 1.15848 11.9194 2.33058C13.0915 3.50269 13.75 5.0924 13.75 6.75C13.75 9.18871 12.1973 11.3723 10.7662 12.883C10.0379 13.6518 9.31167 14.2769 8.76824 14.7096C8.49603 14.9264 8.26841 15.0959 8.10763 15.212C8.02721 15.2701 7.96342 15.3149 7.91903 15.3456C7.89683 15.361 7.87947 15.3729 7.8673 15.3811L7.85298 15.3908L7.84881 15.3936L7.84749 15.3945C7.84731 15.3946 7.84669 15.395 7.5 14.875ZM7.5 14.875L7.84669 15.395C7.63675 15.535 7.36291 15.5348 7.15297 15.3948L7.5 14.875Z" fill="white"/>
<path id="Vector (Stroke)_2" fill-rule="evenodd" clip-rule="evenodd" d="M7.5 5.5C6.80964 5.5 6.25 6.05964 6.25 6.75C6.25 7.44036 6.80964 8 7.5 8C8.19036 8 8.75 7.44036 8.75 6.75C8.75 6.05964 8.19036 5.5 7.5 5.5ZM5 6.75C5 5.36929 6.11929 4.25 7.5 4.25C8.88071 4.25 10 5.36929 10 6.75C10 8.13071 8.88071 9.25 7.5 9.25C6.11929 9.25 5 8.13071 5 6.75Z" fill="white"/>
</g>
<defs>
<clipPath id="clip0_108_12786">
<rect width="15" height="15" fill="white" transform="translate(0 0.5)"/>
</clipPath>
</defs>
</svg>
