<svg width="15" height="15" viewBox="0 0 15 15" xmlns="http://www.w3.org/2000/svg">
<g id="message-square">
<path id="Vector (Stroke)" fill-rule="evenodd" clip-rule="evenodd" d="M3.125 2.5C2.95924 2.5 2.80027 2.56585 2.68306 2.68306C2.56585 2.80027 2.5 2.95924 2.5 3.125V11.6161L3.93306 10.1831C4.05027 10.0658 4.20924 10 4.375 10H11.875C12.0408 10 12.1997 9.93415 12.3169 9.81694C12.4342 9.69973 12.5 9.54076 12.5 9.375V3.125C12.5 2.95924 12.4342 2.80027 12.3169 2.68306C12.1997 2.56585 12.0408 2.5 11.875 2.5H3.125ZM1.79917 1.79917C2.15081 1.44754 2.62772 1.25 3.125 1.25H11.875C12.3723 1.25 12.8492 1.44754 13.2008 1.79917C13.5525 2.15081 13.75 2.62772 13.75 3.125V9.375C13.75 9.87228 13.5525 10.3492 13.2008 10.7008C12.8492 11.0525 12.3723 11.25 11.875 11.25H4.63388L2.31694 13.5669C2.13819 13.7457 1.86937 13.7992 1.63582 13.7024C1.40228 13.6057 1.25 13.3778 1.25 13.125V3.125C1.25 2.62772 1.44754 2.15081 1.79917 1.79917Z"/>
</g>
</svg>
