<svg width="15" height="15" viewBox="0 0 15 15" xmlns="http://www.w3.org/2000/svg">
<g id="printer" clip-path="url(#clip0_394_960)">
<path id="Vector (Stroke)" fill-rule="evenodd" clip-rule="evenodd" d="M3.125 1.25C3.125 0.904822 3.40482 0.625 3.75 0.625H11.25C11.5952 0.625 11.875 0.904822 11.875 1.25V5.625C11.875 5.97018 11.5952 6.25 11.25 6.25C10.9048 6.25 10.625 5.97018 10.625 5.625V1.875H4.375V5.625C4.375 5.97018 4.09518 6.25 3.75 6.25C3.40482 6.25 3.125 5.97018 3.125 5.625V1.25Z" />
<path id="Vector (Stroke)_2" fill-rule="evenodd" clip-rule="evenodd" d="M2.5 6.25C2.33424 6.25 2.17527 6.31585 2.05806 6.43306C1.94085 6.55027 1.875 6.70924 1.875 6.875V10C1.875 10.1658 1.94085 10.3247 2.05806 10.4419C2.17527 10.5592 2.33424 10.625 2.5 10.625H3.75C4.09518 10.625 4.375 10.9048 4.375 11.25C4.375 11.5952 4.09518 11.875 3.75 11.875H2.5C2.00272 11.875 1.52581 11.6775 1.17417 11.3258C0.822544 10.9742 0.625 10.4973 0.625 10V6.875C0.625 6.37772 0.822544 5.90081 1.17417 5.54918C1.52581 5.19754 2.00272 5 2.5 5H12.5C12.9973 5 13.4742 5.19754 13.8258 5.54918C14.1775 5.90081 14.375 6.37772 14.375 6.875V10C14.375 10.4973 14.1775 10.9742 13.8258 11.3258C13.4742 11.6775 12.9973 11.875 12.5 11.875H11.25C10.9048 11.875 10.625 11.5952 10.625 11.25C10.625 10.9048 10.9048 10.625 11.25 10.625H12.5C12.6658 10.625 12.8247 10.5592 12.9419 10.4419C13.0592 10.3247 13.125 10.1658 13.125 10V6.875C13.125 6.70924 13.0592 6.55027 12.9419 6.43306C12.8247 6.31585 12.6658 6.25 12.5 6.25H2.5Z" />
<path id="Vector (Stroke)_3" fill-rule="evenodd" clip-rule="evenodd" d="M3.125 8.75C3.125 8.40482 3.40482 8.125 3.75 8.125H11.25C11.5952 8.125 11.875 8.40482 11.875 8.75V13.75C11.875 14.0952 11.5952 14.375 11.25 14.375H3.75C3.40482 14.375 3.125 14.0952 3.125 13.75V8.75ZM4.375 9.375V13.125H10.625V9.375H4.375Z" />
</g>
<defs>
<clipPath id="clip0_394_960">
<rect width="15" height="15" fill="white"/>
</clipPath>
</defs>
</svg>
