<svg width="20" height="20" viewBox="0 0 20 20" xmlns="http://www.w3.org/2000/svg">
<g id="refresh-ccw" clip-path="url(#clip0_477_18962)">
<path id="Vector (Stroke)" fill-rule="evenodd" clip-rule="evenodd" d="M0.833333 2.5C1.29357 2.5 1.66667 2.8731 1.66667 3.33333V7.5H5.83333C6.29357 7.5 6.66667 7.8731 6.66667 8.33333C6.66667 8.79357 6.29357 9.16667 5.83333 9.16667H0.833333C0.373096 9.16667 0 8.79357 0 8.33333V3.33333C0 2.8731 0.373096 2.5 0.833333 2.5Z" />
<path id="Vector (Stroke)_2" fill-rule="evenodd" clip-rule="evenodd" d="M13.334 11.6663C13.334 11.2061 13.7071 10.833 14.1673 10.833H19.1673C19.6276 10.833 20.0007 11.2061 20.0007 11.6663V16.6663C20.0007 17.1266 19.6276 17.4997 19.1673 17.4997C18.7071 17.4997 18.334 17.1266 18.334 16.6663V12.4997H14.1673C13.7071 12.4997 13.334 12.1266 13.334 11.6663Z"/>
<path id="Vector (Stroke)_3" fill-rule="evenodd" clip-rule="evenodd" d="M7.68913 1.9971C9.04138 1.60596 10.4707 1.56375 11.8437 1.8744C13.2166 2.18506 14.4886 2.83845 15.5407 3.77362C16.5929 4.70879 17.391 5.89526 17.8606 7.22231C18.0141 7.65618 17.7869 8.13237 17.353 8.2859C16.9191 8.43944 16.4429 8.21218 16.2894 7.7783C15.9137 6.71666 15.2752 5.76749 14.4335 5.01935C13.5918 4.27122 12.5742 3.7485 11.4759 3.49998C10.3775 3.25145 9.23403 3.28522 8.15223 3.59814C7.07042 3.91105 6.08551 4.49291 5.28941 5.28942C5.28325 5.29557 5.277 5.30164 5.27065 5.3076L1.40398 8.94093C1.06858 9.25609 0.541201 9.23969 0.226042 8.90429C-0.089118 8.56889 -0.0727107 8.04151 0.262689 7.72635L4.12008 4.10172C5.11355 3.11095 6.34116 2.387 7.68913 1.9971ZM19.774 11.0963C20.0891 11.4317 20.0727 11.9591 19.7373 12.2743L15.8799 15.8989C14.8864 16.8897 13.6588 17.6136 12.3109 18.0035C10.9586 18.3947 9.52932 18.4369 8.15634 18.1262C6.78335 17.8156 5.51144 17.1622 4.45928 16.227C3.40712 15.2918 2.60901 14.1054 2.13941 12.7783C1.98587 12.3444 2.21313 11.8682 2.64701 11.7147C3.08088 11.5612 3.55707 11.7884 3.7106 12.2223C4.08628 13.284 4.72477 14.2331 5.5665 14.9813C6.40823 15.7294 7.42576 16.2521 8.52414 16.5006C9.62253 16.7492 10.766 16.7154 11.8478 16.4025C12.9296 16.0896 13.9145 15.5077 14.7106 14.7112C14.7143 14.7075 14.718 14.7038 14.7218 14.7002C14.7243 14.6978 14.7268 14.6954 14.7294 14.693L18.596 11.0597C18.9314 10.7445 19.4588 10.7609 19.774 11.0963Z"/>
</g>
<defs>
<clipPath id="clip0_477_18962">
<rect width="20" height="20" fill="white"/>
</clipPath>
</defs>
</svg>
