<svg width="16" height="15" viewBox="0 0 16 15" xmlns="http://www.w3.org/2000/svg">
<g id="rotate-ccw" clip-path="url(#clip0_446_3130)">
<path id="Vector (Stroke)" fill-rule="evenodd" clip-rule="evenodd" d="M1.125 1.875C1.47018 1.875 1.75 2.15482 1.75 2.5V5.625H4.875C5.22018 5.625 5.5 5.90482 5.5 6.25C5.5 6.59518 5.22018 6.875 4.875 6.875H1.125C0.779822 6.875 0.5 6.59518 0.5 6.25V2.5C0.5 2.15482 0.779822 1.875 1.125 1.875Z" />
<path id="Vector (Stroke)_2" fill-rule="evenodd" clip-rule="evenodd" d="M7.12835 1.31682C8.47017 1.12804 9.83701 1.38045 11.0229 2.03602C12.2088 2.6916 13.1495 3.71483 13.7033 4.95153C14.2571 6.18824 14.394 7.57143 14.0933 8.89269C13.7926 10.2139 13.0707 11.4017 12.0363 12.277C11.0019 13.1523 9.71104 13.6677 8.35824 13.7455C7.00544 13.8234 5.66397 13.4595 4.53597 12.7087C3.40797 11.9578 2.55454 10.8608 2.10427 9.58272C1.98957 9.25715 2.1605 8.90025 2.48607 8.78555C2.81163 8.67084 3.16854 8.84178 3.28324 9.16735C3.64346 10.1898 4.3262 11.0674 5.2286 11.6681C6.131 12.2688 7.20417 12.5599 8.28641 12.4976C9.36865 12.4353 10.4013 12.023 11.2289 11.3228C12.0564 10.6225 12.6339 9.67233 12.8745 8.61532C13.115 7.55832 13.0055 6.45177 12.5625 5.4624C12.1194 4.47304 11.3669 3.65445 10.4181 3.12999C9.46943 2.60553 8.37596 2.4036 7.3025 2.55463C6.22904 2.70566 5.23374 3.20147 4.46657 3.96735C4.46211 3.9718 4.45758 3.97618 4.45299 3.9805L1.55299 6.7055C1.30144 6.94187 0.905901 6.92956 0.669531 6.67802C0.433161 6.42647 0.445467 6.03093 0.697017 5.79456L3.59031 3.07586C4.54834 2.12241 5.78973 1.50516 7.12835 1.31682Z"/>
</g>
<defs>
<clipPath id="clip0_446_3130">
<rect width="15" height="15" fill="white" transform="translate(0.5)"/>
</clipPath>
</defs>
</svg>
