<svg width="25" height="24" viewBox="0 0 25 24" fill="none" xmlns="http://www.w3.org/2000/svg">
<g id="send">
<path id="Vector (Stroke)" fill-rule="evenodd" clip-rule="evenodd" d="M23.0509 1.29289C23.4414 1.68342 23.4414 2.31658 23.0509 2.70711L12.0509 13.7071C11.6603 14.0976 11.0272 14.0976 10.6366 13.7071C10.2461 13.3166 10.2461 12.6834 10.6366 12.2929L21.6366 1.29289C22.0272 0.902369 22.6603 0.902369 23.0509 1.29289Z" fill="#292929"/>
<path id="Vector (Stroke)_2" fill-rule="evenodd" clip-rule="evenodd" d="M23.0509 1.29292C23.3225 1.56456 23.4145 1.96779 23.2876 2.33038L16.2876 22.3304C16.1522 22.7174 15.7942 22.9825 15.3845 22.9992C14.9748 23.0159 14.5965 22.7808 14.4299 22.4062L10.5862 13.7576L1.93762 9.91384C1.56294 9.74731 1.32787 9.36894 1.34459 8.95926C1.3613 8.54959 1.6264 8.19162 2.0134 8.05617L22.0134 1.05617C22.376 0.929264 22.7792 1.02128 23.0509 1.29292ZM5.05483 9.11063L11.7499 12.0862C11.9761 12.1868 12.157 12.3677 12.2576 12.5939L15.2332 19.289L20.7138 3.63L5.05483 9.11063Z" fill="#292929"/>
</g>
</svg>
