<svg width="20" height="20" viewBox="0 0 20 20" fill="none" xmlns="http://www.w3.org/2000/svg">
<g id="user-check">
<path id="Vector (Stroke)" fill-rule="evenodd" clip-rule="evenodd" d="M1.22039 12.8874C2.00179 12.106 3.0616 11.667 4.16667 11.667H10C11.1051 11.667 12.1649 12.106 12.9463 12.8874C13.7277 13.6688 14.1667 14.7286 14.1667 15.8337V17.5003C14.1667 17.9606 13.7936 18.3337 13.3333 18.3337C12.8731 18.3337 12.5 17.9606 12.5 17.5003V15.8337C12.5 15.1706 12.2366 14.5347 11.7678 14.0659C11.2989 13.5971 10.663 13.3337 10 13.3337H4.16667C3.50363 13.3337 2.86774 13.5971 2.3989 14.0659C1.93006 14.5347 1.66667 15.1706 1.66667 15.8337V17.5003C1.66667 17.9606 1.29357 18.3337 0.833333 18.3337C0.373096 18.3337 0 17.9606 0 17.5003V15.8337C0 14.7286 0.438987 13.6688 1.22039 12.8874Z" fill="black"/>
<path id="Vector (Stroke)_2" fill-rule="evenodd" clip-rule="evenodd" d="M7.08268 3.33366C5.70197 3.33366 4.58268 4.45295 4.58268 5.83366C4.58268 7.21437 5.70197 8.33366 7.08268 8.33366C8.46339 8.33366 9.58268 7.21437 9.58268 5.83366C9.58268 4.45295 8.46339 3.33366 7.08268 3.33366ZM2.91602 5.83366C2.91602 3.53247 4.7815 1.66699 7.08268 1.66699C9.38387 1.66699 11.2493 3.53247 11.2493 5.83366C11.2493 8.13485 9.38387 10.0003 7.08268 10.0003C4.7815 10.0003 2.91602 8.13485 2.91602 5.83366Z" fill="black"/>
<path id="Vector (Stroke)_3" fill-rule="evenodd" clip-rule="evenodd" d="M19.7566 6.91107C20.082 7.23651 20.082 7.76414 19.7566 8.08958L16.4232 11.4229C16.0978 11.7484 15.5702 11.7484 15.2447 11.4229L13.5781 9.75625C13.2526 9.43081 13.2526 8.90317 13.5781 8.57774C13.9035 8.2523 14.4311 8.2523 14.7566 8.57774L15.834 9.65515L18.5781 6.91107C18.9035 6.58563 19.4311 6.58563 19.7566 6.91107Z" fill="black"/>
</g>
</svg>
