<svg width="24" height="25" viewBox="0 0 24 25" xmlns="http://www.w3.org/2000/svg">
<g id="arrow-up-right">
<path id="Vector (Stroke)" fill-rule="evenodd" clip-rule="evenodd" d="M17.7071 6.79289C18.0976 7.18342 18.0976 7.81658 17.7071 8.20711L7.70711 18.2071C7.31658 18.5976 6.68342 18.5976 6.29289 18.2071C5.90237 17.8166 5.90237 17.1834 6.29289 16.7929L16.2929 6.79289C16.6834 6.40237 17.3166 6.40237 17.7071 6.79289Z" />
<path id="Vector (Stroke)_2" fill-rule="evenodd" clip-rule="evenodd" d="M6 7.5C6 6.94772 6.44772 6.5 7 6.5H17C17.5523 6.5 18 6.94772 18 7.5V17.5C18 18.0523 17.5523 18.5 17 18.5C16.4477 18.5 16 18.0523 16 17.5V8.5H7C6.44772 8.5 6 8.05228 6 7.5Z"/>
</g>
</svg>
