<svg width="15" height="15" viewBox="0 0 15 15"  xmlns="http://www.w3.org/2000/svg">
<g id="download">
<path id="Vector (Stroke)" fill-rule="evenodd" clip-rule="evenodd" d="M1.875 8.75C2.22018 8.75 2.5 9.02982 2.5 9.375V11.875C2.5 12.0408 2.56585 12.1997 2.68306 12.3169C2.80027 12.4342 2.95924 12.5 3.125 12.5H11.875C12.0408 12.5 12.1997 12.4342 12.3169 12.3169C12.4342 12.1997 12.5 12.0408 12.5 11.875V9.375C12.5 9.02982 12.7798 8.75 13.125 8.75C13.4702 8.75 13.75 9.02982 13.75 9.375V11.875C13.75 12.3723 13.5525 12.8492 13.2008 13.2008C12.8492 13.5525 12.3723 13.75 11.875 13.75H3.125C2.62772 13.75 2.15081 13.5525 1.79917 13.2008C1.44754 12.8492 1.25 12.3723 1.25 11.875V9.375C1.25 9.02982 1.52982 8.75 1.875 8.75Z" />
<path id="Vector (Stroke)_2" fill-rule="evenodd" clip-rule="evenodd" d="M3.93306 5.80806C4.17714 5.56398 4.57286 5.56398 4.81694 5.80806L7.5 8.49112L10.1831 5.80806C10.4271 5.56398 10.8229 5.56398 11.0669 5.80806C11.311 6.05214 11.311 6.44786 11.0669 6.69194L7.94194 9.81694C7.69786 10.061 7.30214 10.061 7.05806 9.81694L3.93306 6.69194C3.68898 6.44786 3.68898 6.05214 3.93306 5.80806Z" />
<path id="Vector (Stroke)_3" fill-rule="evenodd" clip-rule="evenodd" d="M7.5 1.25C7.84518 1.25 8.125 1.52982 8.125 1.875V9.375C8.125 9.72018 7.84518 10 7.5 10C7.15482 10 6.875 9.72018 6.875 9.375V1.875C6.875 1.52982 7.15482 1.25 7.5 1.25Z" />
</g>
</svg>
