<svg width="25" height="24" viewBox="0 0 25 24" fill="none" xmlns="http://www.w3.org/2000/svg">
<g id="heart" clip-path="url(#clip0_324_335)">
<path id="Vector (Stroke)" fill-rule="evenodd" clip-rule="evenodd" d="M14.8057 2.49312C15.5945 2.16628 16.44 1.99805 17.2939 1.99805C18.1477 1.99805 18.9932 2.16628 19.782 2.49312C20.5707 2.81991 21.2873 3.29885 21.8908 3.9026C22.4946 4.50615 22.9738 5.22306 23.3006 6.01173C23.6275 6.80054 23.7957 7.64602 23.7957 8.49987C23.7957 9.35372 23.6275 10.1992 23.3006 10.988C22.9738 11.7768 22.4948 12.4934 21.891 13.097C21.8909 13.097 21.891 13.0969 21.891 13.097L13.051 21.937C12.6605 22.3275 12.0273 22.3275 11.6368 21.937L2.79676 13.097C1.57753 11.8778 0.892578 10.2241 0.892578 8.49987C0.892578 6.77562 1.57753 5.12199 2.79676 3.90277C4.01599 2.68354 5.66962 1.99858 7.39387 1.99858C9.11812 1.99858 10.7717 2.68354 11.991 3.90277L12.3439 4.25566L12.6966 3.90293C12.6965 3.90299 12.6967 3.90288 12.6966 3.90293C13.3002 3.29911 14.017 2.81994 14.8057 2.49312ZM17.2939 3.99805C16.7027 3.99805 16.1174 4.11451 15.5713 4.34079C15.0252 4.56707 14.529 4.89873 14.1111 5.31681L13.051 6.37698C12.6605 6.7675 12.0273 6.7675 11.6368 6.37698L10.5768 5.31698C9.73261 4.47282 8.58769 3.99858 7.39387 3.99858C6.20005 3.99858 5.05513 4.47282 4.21098 5.31698C3.36682 6.16114 2.89258 7.30606 2.89258 8.49987C2.89258 9.69369 3.36682 10.8386 4.21098 11.6828L12.3439 19.8157L20.4768 11.6828C20.8948 11.2649 21.2267 10.7685 21.4529 10.2224C21.6792 9.67633 21.7957 9.091 21.7957 8.49987C21.7957 7.90875 21.6792 7.32341 21.4529 6.77731C21.2267 6.23121 20.895 5.73504 20.4769 5.31715C20.059 4.89906 19.5625 4.56707 19.0164 4.34079C18.4703 4.11451 17.885 3.99805 17.2939 3.99805Z" fill="#292929"/>
</g>
<defs>
<clipPath id="clip0_324_335">
<rect width="24" height="24" fill="white" transform="translate(0.34375)"/>
</clipPath>
</defs>
</svg>
