<svg width="15" height="15" viewBox="0 0 15 15" xmlns="http://www.w3.org/2000/svg">
<g id="sliders">
<path id="Vector (Stroke)" fill-rule="evenodd" clip-rule="evenodd" d="M2.5 8.125C2.84518 8.125 3.125 8.40482 3.125 8.75V13.125C3.125 13.4702 2.84518 13.75 2.5 13.75C2.15482 13.75 1.875 13.4702 1.875 13.125V8.75C1.875 8.40482 2.15482 8.125 2.5 8.125Z"/>
<path id="Vector (Stroke)_2" fill-rule="evenodd" clip-rule="evenodd" d="M2.5 1.25C2.84518 1.25 3.125 1.52982 3.125 1.875V6.25C3.125 6.59518 2.84518 6.875 2.5 6.875C2.15482 6.875 1.875 6.59518 1.875 6.25V1.875C1.875 1.52982 2.15482 1.25 2.5 1.25Z" />
<path id="Vector (Stroke)_3" fill-rule="evenodd" clip-rule="evenodd" d="M7.5 6.875C7.84518 6.875 8.125 7.15482 8.125 7.5V13.125C8.125 13.4702 7.84518 13.75 7.5 13.75C7.15482 13.75 6.875 13.4702 6.875 13.125V7.5C6.875 7.15482 7.15482 6.875 7.5 6.875Z" />
<path id="Vector (Stroke)_4" fill-rule="evenodd" clip-rule="evenodd" d="M7.5 1.25C7.84518 1.25 8.125 1.52982 8.125 1.875V5C8.125 5.34518 7.84518 5.625 7.5 5.625C7.15482 5.625 6.875 5.34518 6.875 5V1.875C6.875 1.52982 7.15482 1.25 7.5 1.25Z" />
<path id="Vector (Stroke)_5" fill-rule="evenodd" clip-rule="evenodd" d="M12.5 9.375C12.8452 9.375 13.125 9.65482 13.125 10V13.125C13.125 13.4702 12.8452 13.75 12.5 13.75C12.1548 13.75 11.875 13.4702 11.875 13.125V10C11.875 9.65482 12.1548 9.375 12.5 9.375Z" />
<path id="Vector (Stroke)_6" fill-rule="evenodd" clip-rule="evenodd" d="M12.5 1.25C12.8452 1.25 13.125 1.52982 13.125 1.875V7.5C13.125 7.84518 12.8452 8.125 12.5 8.125C12.1548 8.125 11.875 7.84518 11.875 7.5V1.875C11.875 1.52982 12.1548 1.25 12.5 1.25Z" />
<path id="Vector (Stroke)_7" fill-rule="evenodd" clip-rule="evenodd" d="M0 8.75C0 8.40482 0.279822 8.125 0.625 8.125H4.375C4.72018 8.125 5 8.40482 5 8.75C5 9.09518 4.72018 9.375 4.375 9.375H0.625C0.279822 9.375 0 9.09518 0 8.75Z" />
<path id="Vector (Stroke)_8" fill-rule="evenodd" clip-rule="evenodd" d="M5 5C5 4.65482 5.27982 4.375 5.625 4.375H9.375C9.72018 4.375 10 4.65482 10 5C10 5.34518 9.72018 5.625 9.375 5.625H5.625C5.27982 5.625 5 5.34518 5 5Z" />
<path id="Vector (Stroke)_9" fill-rule="evenodd" clip-rule="evenodd" d="M10 10C10 9.65482 10.2798 9.375 10.625 9.375H14.375C14.7202 9.375 15 9.65482 15 10C15 10.3452 14.7202 10.625 14.375 10.625H10.625C10.2798 10.625 10 10.3452 10 10Z" />
</g>
</svg>
