<svg width="16" height="15" viewBox="0 0 16 15" xmlns="http://www.w3.org/2000/svg"><g clip-path="url(#id2a)" fill-rule="evenodd" clip-rule="evenodd"><path d="M2.375 4.375c.345 0 .625.28.625.625v7.5h10V5a.625.625 0 111.25 0v8.125c0 .345-.28.625-.625.625H2.375a.625.625 0 01-.625-.625V5c0-.345.28-.625.625-.625z"/><path d="M.5 1.875c0-.345.28-.625.625-.625h13.75c.345 0 .625.28.625.625V5c0 .345-.28.625-.625.625H1.125A.625.625 0 01.5 5V1.875zm1.25.625v1.875h12.5V2.5H1.75zm4.375 5c0-.345.28-.625.625-.625h2.5a.625.625 0 110 1.25h-2.5a.625.625 0 01-.625-.625z"/></g><defs><clipPath id="id2a"><path transform="translate(.5)" d="M0 0h15v15H0z"/></clipPath></defs></svg>