<svg width="16" height="17" viewBox="0 0 16 17" xmlns="http://www.w3.org/2000/svg"><g clip-path="url(#id1a)" fill-rule="evenodd" clip-rule="evenodd"><path d="M7.998 3.833a5.413 5.413 0 00-1.246.143.667.667 0 11-.304-1.298A6.746 6.746 0 018.001 2.5L8 3.167V2.5c2.6 0 4.597 1.484 5.903 2.877a13.784 13.784 0 011.888 2.567 8.115 8.115 0 01.127.236l.008.015.002.004.001.002-.596.299-.588-.314c-.056.105-.114.21-.173.313a12.447 12.447 0 00-1.642-2.21C11.736 5.016 10.067 3.833 8 3.833h-.002zM14.572 8.5c-.345.6-.743 1.168-1.189 1.698a.667.667 0 001.02.859 13 13 0 001.518-2.242.667.667 0 00.009-.612l-.597.298-.596.299v-.001l-.004-.008a6.966 6.966 0 00-.16-.291zM4.57 4.135a.667.667 0 01-.125.935 11.633 11.633 0 00-3.017 3.432 12.45 12.45 0 001.641 2.209c1.194 1.272 2.861 2.454 4.926 2.456a6.047 6.047 0 003.56-1.237.667.667 0 01.81 1.06A7.38 7.38 0 018.01 14.5H8c-2.6 0-4.597-1.484-5.903-2.877A13.784 13.784 0 01.209 9.056a8.23 8.23 0 01-.127-.236l-.008-.015-.002-.004-.001-.002.596-.299-.597.298a.667.667 0 01.01-.613A12.967 12.967 0 013.634 4.01a.667.667 0 01.935.125zm2.504 2.497a.667.667 0 01-.033.942A1.333 1.333 0 108.926 9.46a.667.667 0 01.975.909 2.666 2.666 0 11-3.769-3.77.667.667 0 01.942.034z"/><path d="M.195.695c.26-.26.683-.26.943 0l14.667 14.667a.667.667 0 11-.943.943L.195 1.638a.667.667 0 010-.943z"/></g><defs><clipPath id="id1a"><path transform="translate(0 .5)" d="M0 0h16v16H0z"/></clipPath></defs></svg>