<svg width="15" height="15" viewBox="0 0 15 15" xmlns="http://www.w3.org/2000/svg"><g clip-path="url(#id10a)"><path d="M13.75 10.575v1.875a1.25 1.25 0 01-1.363 1.25 12.37 12.37 0 01-5.393-1.919c-1.51-.96-2.79-2.24-3.75-3.75a12.369 12.369 0 01-1.92-5.418A1.25 1.25 0 012.57 1.25h1.875a1.25 1.25 0 011.25 1.075c.079.6.226 1.19.437 1.756a1.25 1.25 0 01-.281 1.32l-.794.793a10 10 0 003.75 3.75L9.6 9.15a1.25 1.25 0 011.319-.281 8.027 8.027 0 001.756.437 1.25 1.25 0 011.075 1.27z"/></g><defs><clipPath id="id10a"><path d="M0 0h15v15H0z"/></clipPath></defs></svg>