<svg width="15" height="15" viewBox="0 0 15 15" xmlns="http://www.w3.org/2000/svg"><g clip-path="url(#id22a)" fill-rule="evenodd" clip-rule="evenodd"><path d="M3.125 1.25c0-.345.28-.625.625-.625h7.5c.345 0 .625.28.625.625v4.375a.625.625 0 11-1.25 0v-3.75h-6.25v3.75a.625.625 0 11-1.25 0V1.25z"/><path d="M2.5 6.25a.625.625 0 00-.625.625V10a.625.625 0 00.625.625h1.25a.625.625 0 110 1.25H2.5A1.875 1.875 0 01.625 10V6.875A1.875 1.875 0 012.5 5h10a1.875 1.875 0 011.875 1.875V10a1.875 1.875 0 01-1.875 1.875h-1.25a.625.625 0 110-1.25h1.25a.624.624 0 00.625-.625V6.875a.625.625 0 00-.625-.625h-10z"/><path d="M3.125 8.75c0-.345.28-.625.625-.625h7.5c.345 0 .625.28.625.625v5c0 .345-.28.625-.625.625h-7.5a.625.625 0 01-.625-.625v-5zm1.25.625v3.75h6.25v-3.75h-6.25z"/></g><defs><clipPath id="id22a"><path d="M0 0h15v15H0z"/></clipPath></defs></svg>