<svg width="20" height="20" viewBox="0 0 20 20" xmlns="http://www.w3.org/2000/svg"><g clip-path="url(#id24a)" fill-rule="evenodd" clip-rule="evenodd"><path d="M.833 2.5c.46 0 .834.373.834.833V7.5h4.166a.833.833 0 110 1.667h-5A.833.833 0 010 8.333v-5c0-.46.373-.833.833-.833zm12.501 9.166c0-.46.373-.833.833-.833h5c.46 0 .834.373.834.833v5a.833.833 0 11-1.667 0V12.5h-4.167a.833.833 0 01-.833-.834z"/><path d="M7.69 1.997a8.334 8.334 0 0110.17 5.225.833.833 0 01-1.57.556 6.667 6.667 0 00-11.02-2.47L1.405 8.94A.833.833 0 11.263 7.726L4.12 4.102a8.333 8.333 0 013.57-2.105zm12.084 9.1a.833.833 0 01-.037 1.177L15.88 15.9a8.333 8.333 0 01-13.74-3.12.833.833 0 111.57-.557 6.667 6.667 0 0011 2.49l.012-.012.007-.007 3.867-3.633a.833.833 0 011.178.036z"/></g><defs><clipPath id="id24a"><path d="M0 0h20v20H0z"/></clipPath></defs></svg>