<svg width="16" height="15" viewBox="0 0 16 15" xmlns="http://www.w3.org/2000/svg"><g clip-path="url(#id17a)" fill-rule="evenodd" clip-rule="evenodd"><path d="M1.125 1.875c.345 0 .625.28.625.625v3.125h3.125a.625.625 0 110 1.25h-3.75A.625.625 0 01.5 6.25V2.5c0-.345.28-.625.625-.625z"/><path d="M7.128 1.317a6.25 6.25 0 11-5.024 8.266.625.625 0 111.18-.416 5 5 0 101.169-5.186l-2.9 2.724a.625.625 0 01-.856-.91l2.893-2.72a6.25 6.25 0 013.538-1.758z"/></g><defs><clipPath id="id17a"><path transform="translate(.5)" d="M0 0h15v15H0z"/></clipPath></defs></svg>