<svg width="15" height="15" viewBox="0 0 15 15" xmlns="http://www.w3.org/2000/svg"><g fill-rule="evenodd" clip-rule="evenodd"><path d="M2.5 8.125c.345 0 .625.28.625.625v4.375a.625.625 0 11-1.25 0V8.75c0-.345.28-.625.625-.625zm0-6.875c.345 0 .625.28.625.625V6.25a.625.625 0 11-1.25 0V1.875c0-.345.28-.625.625-.625zm5 5.625c.345 0 .625.28.625.625v5.625a.625.625 0 11-1.25 0V7.5c0-.345.28-.625.625-.625zm0-5.625c.345 0 .625.28.625.625V5a.625.625 0 11-1.25 0V1.875c0-.345.28-.625.625-.625zm5 8.125c.345 0 .625.28.625.625v3.125a.625.625 0 11-1.25 0V10c0-.345.28-.625.625-.625zm0-8.125c.345 0 .625.28.625.625V7.5a.625.625 0 11-1.25 0V1.875c0-.345.28-.625.625-.625z"/><path d="M0 8.75c0-.345.28-.625.625-.625h3.75a.625.625 0 110 1.25H.625A.625.625 0 010 8.75zM5 5c0-.345.28-.625.625-.625h3.75a.625.625 0 110 1.25h-3.75A.625.625 0 015 5zm5 5c0-.345.28-.625.625-.625h3.75a.625.625 0 110 1.25h-3.75A.625.625 0 0110 10z"/></g></svg>