<svg width="20" height="20" viewBox="0 0 20 20" xmlns="http://www.w3.org/2000/svg"><path d="M1.22 12.887a4.167 4.167 0 012.947-1.22H10a4.167 4.167 0 014.167 4.167V17.5a.833.833 0 11-1.667 0v-1.666a2.5 2.5 0 00-2.5-2.5H4.167a2.5 2.5 0 00-2.5 2.5V17.5A.833.833 0 110 17.5v-1.666a4.17 4.17 0 011.22-2.947zm5.863-9.553a2.5 2.5 0 100 5 2.5 2.5 0 000-5zm-4.167 2.5a4.167 4.167 0 118.333 0 4.167 4.167 0 01-8.333 0zm16.841 1.077a.833.833 0 010 1.179l-3.334 3.333a.833.833 0 01-1.178 0l-1.667-1.667a.833.833 0 111.179-1.178l1.077 1.077 2.744-2.744a.833.833 0 011.179 0z" fill-rule="evenodd" clip-rule="evenodd"/></svg>